<svg id="Logo" xmlns="http://www.w3.org/2000/svg" viewBox="0 0 605 214">
  <defs>
    <style>
      .cls-1, .cls-2 {
        stroke: #000;
        stroke-width: 0.5px;
      }

      .cls-2 {
        stroke-miterlimit: 10;
      }
    </style>
  </defs>
  <path id="G" class="cls-1" d="M68,132l28-24-18-6,44-10L68,164,4,116,20,82,98,14,164,4,150,24l2-14L106,20,36,90l-4,20Z"/>
  <path id="A" class="cls-1" d="M192,84l-44,16L96,132,72,164l28-16,36-8-4,24Zm-28,22-24,22-26,4,34-22Z"/>
  <polygon id="M" class="cls-1" points="196 122 196 106 184 100 136 164 182 126 182 148 206 130 196 164 256 84 196 122"/>
  <polygon id="E" class="cls-1" points="252 110 246 120 276 116 280 122 272 130 241 131 224 150 258 140 268 146 264 156 200 164 248 100 292 92 286 106 252 110"/>
  <path id="R" class="cls-1" d="M322,134l18-12-8-38-40,16-28,64,22-22,10-12,66,78Zm-22-28,22-6,2,16-10,10-16-10Z"/>
  <polygon id="N" class="cls-1" points="416 56 394 116 388 164 372 156 352 108 352 126 342 164 328 136 344 124 336 84 360 100 378 138 380 114 416 56"/>
  <g id="Rocket">
    <polygon class="cls-1" points="444 144 448 142 460 154 444 182 428 154 440 142 444 144"/>
    <polygon class="cls-2" points="420.5 118.07 418.7 80.32 408 116 404 148 412 164 427.19 133.61 420.51 118.35 420.5 118.07"/>
    <polygon class="cls-2" points="484 148 480 116 469.3 80.32 467.49 118.35 460.81 133.61 476 164 484 148"/>
    <polygon class="cls-2" points="466.47 76.66 454 82 434 82 421.53 76.66 423.49 117.65 430.25 133.13 444 140 457.75 133.13 464.51 117.65 466.47 76.66"/>
    <path class="cls-1" d="M444,20,428,42l-6,26,12,6h20l12-6-6-26Zm0,44a10,10,0,1,1,10-10A10,10,0,0,1,444,64Z"/>
  </g>
  <polygon id="V" class="cls-1" points="532 116 556 100 520 158 500 164 494 116 472 56 508 114 516 138 532 116"/>
  <polygon id="T" class="cls-1" points="596 73 579.39 77.75 599 34 571.38 80.03 540 89 534 109 564.69 91.18 521 164 582 156 592 144 582 138 547 150 576.42 84.37 596 73"/>
</svg>
