<svg xmlns="http://www.w3.org/2000/svg" viewBox="0 0 611 220">
  <defs>
    <style>
      .cls-1, .cls-2, .cls-3, .cls-4, .cls-5 {
        stroke: #000;
      }

      .cls-2 {
        fill: #fff;
      }

      .cls-2, .cls-3, .cls-4, .cls-5 {
        stroke-width: 0.5px;
      }

      .cls-3 {
        fill: #ff0032;
      }

      .cls-4, .cls-5 {
        fill: #c8c8c8;
      }

      .cls-4 {
        stroke-miterlimit: 10;
      }
    </style>
  </defs>
  <g id="Logo_Shadow" data-name="Logo Shadow">
    <path id="G" class="cls-1" d="M72,136l28-24-18-6,44-10L72,168,8,120,24,86l78-68L168,8,154,28l2-14L110,24,40,94l-4,20Z"/>
    <path id="A" class="cls-1" d="M196,88l-44,16-52,32L76,168l28-16,36-8-4,24Zm-28,22-24,22-26,4,34-22Z"/>
    <polygon id="M" class="cls-1" points="200 126 200 110 188 104 140 168 186 130 186 152 210 134 200 168 260 88 200 126"/>
    <polygon id="E" class="cls-1" points="256 114 250 124 280 120 284 126 276 134 245 135 228 154 262 144 272 150 268 160 204 168 252 104 296 96 290 110 256 114"/>
    <path id="R" class="cls-1" d="M326,138l18-12-8-38-40,16-28,64,22-22,10-12,66,78Zm-22-28,22-6,2,16-10,10-16-10Z"/>
    <polygon id="N" class="cls-1" points="420 60 398 120 392 168 376 160 356 112 356 130 346 168 332 140 348 128 340 88 364 104 382 142 384 118 420 60"/>
    <g id="Rocket">
      <polygon class="cls-1" points="462 156 452 146 448 148 444 146 434 156 432 158 448 186 464 158 462 156"/>
      <polygon class="cls-1" points="484 120 472 80 458 86 438 86 424 80 412 120 408 152 416 168 432 136 448 144 464 136 480 168 488 152 484 120"/>
      <path class="cls-1" d="M448,24,432,46l-6,26,12,6h20l12-6-6-26Zm0,44a10,10,0,1,1,10-10A10,10,0,0,1,448,68Z"/>
    </g>
    <polygon id="V" class="cls-1" points="536 120 560 104 524 162 504 168 498 120 476 60 512 118 520 142 536 120"/>
    <polygon id="T" class="cls-1" points="600 77 583.39 81.75 603 38 575.38 84.03 544 93 538 113 568.69 95.18 525 168 586 160 596 148 586 142 551 154 580.42 88.37 600 77"/>
  </g>
  <g id="Logo">
    <path id="G-2" data-name="G" class="cls-2" d="M68,132l28-24-18-6,44-10L68,164,4,116,20,82,98,14,164,4,150,24l2-14L106,20,36,90l-4,20Z"/>
    <path id="A-2" data-name="A" class="cls-2" d="M192,84l-44,16L96,132,72,164l28-16,36-8-4,24Zm-28,22-24,22-26,4,34-22Z"/>
    <polygon id="M-2" data-name="M" class="cls-2" points="196 122 196 106 184 100 136 164 182 126 182 148 206 130 196 164 256 84 196 122"/>
    <polygon id="E-2" data-name="E" class="cls-2" points="252 110 246 120 276 116 280 122 272 130 241 131 224 150 258 140 268 146 264 156 200 164 248 100 292 92 286 106 252 110"/>
    <path id="R-2" data-name="R" class="cls-2" d="M322,134l18-12-8-38-40,16-28,64,22-22,10-12,66,78Zm-22-28,22-6,2,16-10,10-16-10Z"/>
    <polygon id="N-2" data-name="N" class="cls-2" points="416 56 394 116 388 164 372 156 352 108 352 126 342 164 328 136 344 124 336 84 360 100 378 138 380 114 416 56"/>
    <g id="Rocket-2" data-name="Rocket">
      <g>
        <polygon class="cls-2" points="444 144 448 142 460 154 444 182 428 154 440 142 444 144"/>
        <polygon class="cls-2" points="444 144 448 142 458 152 444 168 430 152 440 142 444 144"/>
      </g>
      <g>
        <polygon class="cls-2" points="468 76 480 116 484 148 476 164 460 132 444 140 428 132 412 164 404 148 408 116 420 76 434 82 454 82 468 76"/>
        <path class="cls-2" d="M466,118l-6,14-16,8-16-8-6-14-2-41.84a.1.1,0,0,1,.14-.1L434,82h20l13.85-5.94a.1.1,0,0,1,.14.1Z"/>
      </g>
      <path class="cls-2" d="M444,20,428,42l-6,26,12,6h20l12-6-6-26Zm0,44a10,10,0,1,1,10-10A10,10,0,0,1,444,64Z"/>
    </g>
    <polygon id="V-2" data-name="V" class="cls-2" points="532 116 556 100 520 158 500 164 494 116 472 56 508 114 516 138 532 116"/>
    <polygon id="T-2" data-name="T" class="cls-2" points="596 73 579.39 77.75 599 34 571.38 80.03 540 89 534 109 564.69 91.18 521 164 582 156 592 144 582 138 547 150 576.42 84.37 596 73"/>
  </g>
  <g id="Logo_Accent" data-name="Logo Accent">
    <path id="G-3" data-name="G" class="cls-3" d="M98,14,164,4,150,24l2-14L106,20,20.2,81.85h0Zm-2,94-18-6,44-10s-51.22,68.31-53.89,71.85c0,0,0,0,0,0Z"/>
    <path id="A-3" data-name="A" class="cls-3" d="M164,106l-24,22-4,12-4,24,59.54-79.39C191.61,84.52,164,106,164,106Z"/>
    <path id="M-3" data-name="M" class="cls-3" d="M255.35,84.87,196,164l10-34S255.42,84.77,255.35,84.87Z"/>
    <g id="E-3" data-name="E">
      <path class="cls-3" d="M242,152l22,4s.05,0,.06,0l4-10s-10-6-10.05-6Z"/>
      <path class="cls-3" d="M256,124l16,6a0,0,0,0,0,0,0l8-8-3.95-5.93S256,124,256,124Z"/>
      <path class="cls-3" d="M268,102l18,4s.05,0,.06,0l5.88-13.73C291.94,92.14,268,102,268,102Z"/>
    </g>
    <g id="R-3" data-name="R">
      <path class="cls-3" d="M322,134l18-12-7.95-37.76C332,84.15,322,100,322,100l2,16-10,10Z"/>
      <polygon class="cls-3" points="337.63 162.92 318 156 362 208 337.63 162.92"/>
    </g>
    <polygon id="N-3" data-name="N" class="cls-3" points="394 116 416 56 380 114 378 138 394 116"/>
    <g id="Rocket-3" data-name="Rocket">
      <polygon class="cls-3" points="440 142 444 144 448 142 458 152 444 168 430 152 440 142"/>
      <g>
        <path class="cls-3" d="M468.17,76.56,480,116l4,32-8,16-16-32,6-14S468.14,76.45,468.17,76.56Z"/>
        <path class="cls-3" d="M419.83,76.56,408,116l-4,32,8,16,16-32-6-14S419.86,76.45,419.83,76.56Z"/>
      </g>
    </g>
    <path id="V-3" data-name="V" class="cls-3" d="M520.07,157.89,556,100l-24,16-16,22,4,19.88S520,157.93,520.07,157.89Z"/>
    <g id="T-3" data-name="T">
      <polygon class="cls-3" points="540 89 534 109 596 73 540 89"/>
      <path class="cls-3" d="M562,152l20,4a0,0,0,0,0,0,0l10-12-9.92-5.95a0,0,0,0,0-.05,0Z"/>
    </g>
  </g>
  <g id="Fix_Edges" data-name="Fix Edges">
    <polyline id="N-4" data-name="N" class="cls-2" points="360 100 378 138 394 116 388 164"/>
  </g>
  <g id="Rocket_Self_Shadow" data-name="Rocket Self Shadow">
    <path class="cls-4" d="M454,82l-3,38-7,19.88c0,.05,0,.08.07.06L460,132l6-14,2-41.84a.1.1,0,0,0-.14-.1Z"/>
    <path class="cls-5" d="M460,42,444,20.05s0,0,0,0l7.88,23.63A12.93,12.93,0,0,0,443,41a13,13,0,0,0,1,26,12.93,12.93,0,0,0,9.27-3.9L454,73.92a.07.07,0,0,0,.08,0L466,68ZM444,64a10,10,0,1,1,10-10A10,10,0,0,1,444,64Z"/>
  </g>
</svg>
