<svg xmlns="http://www.w3.org/2000/svg" viewBox="0 0 1024 1024">
  <defs>
    <style>
      .cls-1 {
        fill: #ffc800;
      }

      .cls-2 {
        opacity: 0.25;
      }

      .cls-3 {
        fill: #1d1d1b;
      }

      .cls-10, .cls-11, .cls-12, .cls-13, .cls-14, .cls-15, .cls-4, .cls-5, .cls-6, .cls-9 {
        stroke: #000;
      }

      .cls-10, .cls-11, .cls-12, .cls-13, .cls-14, .cls-15, .cls-4, .cls-5, .cls-6, .cls-7, .cls-8, .cls-9 {
        stroke-miterlimit: 10;
      }

      .cls-4, .cls-7 {
        stroke-width: 10px;
      }

      .cls-5 {
        fill: #ff0032;
      }

      .cls-10, .cls-11, .cls-12, .cls-13, .cls-14, .cls-15, .cls-5 {
        stroke-width: 5px;
      }

      .cls-6, .cls-7 {
        fill: none;
      }

      .cls-6 {
        stroke-width: 15px;
      }

      .cls-7 {
        stroke: #ff0032;
      }

      .cls-8 {
        stroke: #1d1d1b;
      }

      .cls-8, .cls-9 {
        stroke-width: 0.25px;
      }

      .cls-10 {
        fill: #969696;
      }

      .cls-11 {
        fill: #fff;
      }

      .cls-12 {
        fill: #ff0;
      }

      .cls-13 {
        fill: #64e100;
      }

      .cls-14 {
        fill: #0096ff;
      }

      .cls-15 {
        fill: #c8c8c8;
      }
    </style>
  </defs>
  <g id="Background">
    <rect id="Background-2" data-name="Background" class="cls-1" width="1024" height="1024"/>
  </g>
  <g id="Pattern">
    <g id="Pattern-2" data-name="Pattern" class="cls-2">
      <g id="_1_1" data-name="1_1">
        <path id="Gamepad" class="cls-3" d="M333.88,520.89l-21.71.48-13.85,9.24-16.63-.91-18.93,10.63L262,584.21l7.09,12.63,10.46-8.32,8.15-16.79,19.39-8.94,21.25-2.17,15.56,10.31,13.24,1.84-.32-14.48Zm-56.33,33.6a7,7,0,1,1,4.92-8.62A7,7,0,0,1,277.55,554.49Zm22.63,2.91-4,2,.31,4.46-3.38.93-2-4-4.46.31-.93-3.39,4-2-.31-4.47,3.39-.92,2,4,4.47-.31ZM297.25,540l-6.77,1.85-.93-3.39,6.77-1.85Zm27.17-13.8a3.51,3.51,0,1,1-2.47,4.31A3.51,3.51,0,0,1,324.42,526.21Zm-21.32,8.56,6.77-1.85.93,3.38L304,538.16Zm15.41,23.08a7,7,0,1,1,4.92-8.62A7,7,0,0,1,318.51,557.85ZM322,540.53a3.51,3.51,0,1,1,2.46-4.31A3.51,3.51,0,0,1,322,540.53Zm7.55,4.31a3.51,3.51,0,1,1,2.46-4.31A3.52,3.52,0,0,1,329.51,544.84Zm4.3-7.55a3.51,3.51,0,1,1,2.46-4.31A3.51,3.51,0,0,1,333.81,537.29Z"/>
        <g id="Disk">
          <path class="cls-3" d="M153.54,315.22A33.75,33.75,0,1,0,187.29,349,33.76,33.76,0,0,0,153.54,315.22ZM136.75,375a31.17,31.17,0,0,1-9.19-9.18l13.9-9.62a14,14,0,0,0,4.91,4.9Zm16.79-14.73A11.25,11.25,0,1,1,164.79,349,11.25,11.25,0,0,1,153.54,360.22Zm12.08-18.42a14,14,0,0,0-4.91-4.9l9.62-13.9a31.05,31.05,0,0,1,9.19,9.18Z"/>
          <circle class="cls-3" cx="153.54" cy="348.97" r="5.62"/>
        </g>
        <g>
          <path id="Shield" class="cls-3" d="M192.7,87.32l-30.56,4.35-5.6,40.2,10.91,18,19.86-4.13,24.38-34.13ZM186.09,115,169,146l9.24-34.18-10.16-8.65,12.79,2.13,9.17-11.46-1.35,14.62,10.69,7.34Z"/>
          <g id="Sword">
            <polygon class="cls-3" points="136.45 125.28 131.44 141.46 134.05 142.51 141.66 127.38 136.45 125.28"/>
            <polygon class="cls-3" points="132.28 120.57 147.93 126.88 151.59 125.32 130.73 116.91 132.28 120.57"/>
            <polygon class="cls-3" points="137 116.4 147.43 120.61 161.65 77.83 162.2 68.95 155.38 78.33 137 116.4"/>
          </g>
        </g>
        <path id="Mouse" class="cls-3" d="M407.73,425.27l-10.63-3.69-20,2L364.38,477.2,378,493.83l21-4.63,23.31-50Zm-9.36,1.21,5.32,1.85-5.54,15.94-5.31-1.85Zm-2.65-.92-12,34.54-9.24-7.68,5.65-24.83Zm10.64,37.94-12,.29,12-34.54,11,11.26Z"/>
        <g id="Screen">
          <polygon class="cls-3" points="224.24 741.96 224.63 740.61 203.76 731.72 192.95 728.63 170.54 725.15 170.16 726.5 224.24 741.96"/>
          <rect class="cls-3" x="194.54" y="715.76" width="12.66" height="11.25" transform="translate(-547.94 716.2) rotate(-74.04)"/>
          <g>
            <path class="cls-3" d="M248.2,678.61l-64.9-18.56-17.78,41.72,75.72,21.65Zm-75.72,19.3,12.75-34.38,59.5,17-7.35,35.93Z"/>
            <polygon class="cls-3" points="180.4 695.79 239.9 682.09 232.16 709.13 180.4 695.79"/>
          </g>
        </g>
        <path id="GG" class="cls-3" d="M-1.22,534.88l-11,16.6,6.86,54.58,55.64-15.69,8.77-13.28-7.43-57.33Zm20.45,8.74L7.39,548.91l-5.13,24,5.57,13.21,6.61-2.79.78-10.2-5-3.29,1.63-6.08,10.21.79-.72,24.55L1.82,598.85-6,574.62.75,544.53,17.25,534Zm19.28-4-5.13,24L39,576.9l6.61-2.78.78-10.21-5-3.29L43,554.55l10.21.78-.72,24.55-19.54,9.74-7.83-24.24,6.77-30.09,16.5-10.55,2,9.64Z"/>
        <path id="GLHF" class="cls-3" d="M414.52-13.65l-8,18.21,16,52.64,47-22.81L479,12.55l-14.94-50ZM424-12.52l15.71-10-.08,3.67L429-11.31l-4.73,15,6,3.71,8.66-4.88-.22-4.44-5.75.73-.22-4.44,10.71.36.14,12-14.7,8.74L416.93,8.05Zm13.46,57.85.36-10.71-6,3.86-.87,9.4-4.74,3.35-1.82-28L433,18.39l-.65,13.83,6-3.86.65-13.83,4.73-3.36,1,29.78ZM467.09,5.12,454.5,11.54l.73,5.75,8.66-4.88L461.2,21l-6,3.86.15,12-6.05,3.86L447.73,9.64,468.47-3ZM468.25-7.4,447.51,5.2,447-23.27l8.15-6.19L453.62-6.23l12.08-7.72Z"/>
        <g id="Magic_Wand" data-name="Magic Wand">
          <g>
            <polygon class="cls-3" points="41.67 324.19 42.05 333.66 50.83 337.2 41.37 337.58 37.83 346.36 37.45 336.9 28.66 333.36 38.13 332.98 41.67 324.19"/>
            <polygon class="cls-3" points="55.63 346.59 56.01 356.05 64.8 359.59 55.33 359.97 51.79 368.76 51.41 359.3 42.63 355.75 52.09 355.38 55.63 346.59"/>
            <polygon class="cls-3" points="42.15 358.53 42.43 365.63 49.02 368.28 41.92 368.56 39.27 375.15 38.98 368.06 32.39 365.4 39.49 365.12 42.15 358.53"/>
            <polygon class="cls-3" points="47.58 339.49 47.77 344.22 52.17 345.99 47.43 346.18 45.66 350.57 45.47 345.84 41.08 344.07 45.81 343.88 47.58 339.49"/>
            <polygon class="cls-3" points="60.53 338.88 60.72 343.61 65.12 345.38 60.38 345.57 58.62 349.96 58.42 345.23 54.03 343.46 58.76 343.27 60.53 338.88"/>
            <polygon class="cls-3" points="32.77 342.63 32.96 347.36 37.35 349.13 32.62 349.32 30.85 353.72 30.66 348.98 26.27 347.21 31 347.02 32.77 342.63"/>
          </g>
          <g>
            <path class="cls-3" d="M6.33,379.71,40.81,355.4l3-5.54-6.22.94L3.09,375.11ZM38.38,352l3.11-.47L40,354.25l-5.75,4.05-2-.34.34-2Z"/>
            <polygon class="cls-3" points="0.79 376.73 -17.6 389.69 -18.28 393.61 -14.36 394.29 4.03 381.33 0.79 376.73"/>
          </g>
        </g>
        <g id="Crosshair">
          <g>
            <circle class="cls-3" cx="28.51" cy="95.35" r="2.81"/>
            <path class="cls-3" d="M23.94,82a14.07,14.07,0,1,0,17.87,8.74A14.07,14.07,0,0,0,23.94,82ZM32.16,106a11.25,11.25,0,1,1,7-14.29A11.27,11.27,0,0,1,32.16,106Z"/>
            <path class="cls-3" d="M20.29,71.4A25.32,25.32,0,1,0,52.45,87.13,25.32,25.32,0,0,0,20.29,71.4Zm15.52,45.23a22.5,22.5,0,1,1,14-28.58A22.51,22.51,0,0,1,35.81,116.63Z"/>
          </g>
          <g>
            <polygon class="cls-3" points="27.59 92.69 11.32 62.59 21.96 58.94 27.59 92.69"/>
            <polygon class="cls-3" points="25.85 96.26 -4.25 112.53 -7.9 101.89 25.85 96.26"/>
            <polyline class="cls-3" points="29.42 98.01 45.69 128.11 35.05 131.76 29.42 98.01"/>
            <polyline class="cls-3" points="31.17 94.43 61.27 78.16 64.92 88.81 31.17 94.43"/>
          </g>
        </g>
        <g id="Xbox_Buttons" data-name="Xbox Buttons">
          <path class="cls-3" d="M100.65,426.19a15.47,15.47,0,1,0,20,8.89A15.47,15.47,0,0,0,100.65,426.19Zm16.43,19.07-2.46,3.67-7-4.72-2.06,8.22-4.28-1.08,2.44-9.75L95.33,436l2.46-3.66,7,4.71,2.06-8.21,4.28,1.07-2.45,9.75Z"/>
          <path id="Button_Y" data-name="Button Y" class="cls-3" d="M67.94,411.65a15.47,15.47,0,1,0,20,8.89A15.47,15.47,0,0,0,67.94,411.65Zm8.3,15.43,3.32,8.62-4.13,1.59-3.31-8.62-9.68-6.31,2.42-3.7,7.71,5,2.35-8.9,4.27,1.13Z"/>
          <g id="Button_B" data-name="Button B">
            <rect class="cls-3" x="57.38" y="459.13" width="5.52" height="5.52" transform="translate(-161.77 52.36) rotate(-21.03)"/>
            <rect class="cls-3" x="54.52" y="453.65" width="2.21" height="2.21" transform="translate(-159.51 50.26) rotate(-21.03)"/>
            <path class="cls-3" d="M53.4,444.36a15.47,15.47,0,1,0,20,8.89A15.48,15.48,0,0,0,53.4,444.36Zm16,21.66L56,471.18l-3.57-9.28-4-10.32,10.31-4,2.38,6.18,3.1-1.19Z"/>
          </g>
          <g id="Button_A" data-name="Button A">
            <path class="cls-3" d="M86.11,458.9a15.47,15.47,0,1,0,20,8.89A15.47,15.47,0,0,0,86.11,458.9Zm14.51,21.92-3.37-3.71L90,479.88v5H85.61l.08-21.34,3.84-1.48,14.36,15.79Z"/>
            <polygon class="cls-3" points="90.06 475.14 94.06 473.61 90.08 469.24 90.06 475.14"/>
          </g>
        </g>
        <g id="Thumbs_Up" data-name="Thumbs Up">
          <polygon class="cls-3" points="159.63 256.8 171.97 265.59 174.85 280.46 184.31 274.37 181.44 259.5 169.1 250.72 159.63 256.8"/>
          <path class="cls-3" d="M222.16,226.63l-4.65-2-1.86-5.49-5.83-1.26L196.05,225l-5.83-1.27-4.06-14.11-5-5.15-4.31,1.1,1.86,5.49,2.11,13.69-4.22,19.43-4,4.23L185,257.22l2.88,14.87L215,259.67l6.76-7.69.08-5.07,2.79-3.46.51-7-3.47-2.79Zm-16.66-.91,2,2-4.7,4.65-2-2Zm-12.36,34.09L184.75,241l9.52-10.12,9.33,8.2-4.16,19.15Zm17-8.07-4.29.21-.14-2.81,4.29-.21Zm3.54-8.75-5.94,1.16-.54-2.76,5.94-1.16Zm-.84-8.65-5.3,3.37-1.5-2.38,5.29-3.36Z"/>
        </g>
        <g id="Map">
          <g>
            <polygon class="cls-3" points="258.18 449.77 258.46 452.46 258.88 456.59 259.46 462.29 250.57 461.93 258.18 449.77"/>
            <polygon class="cls-3" points="237.78 503.7 247.52 493.85 240.12 489.55 237.78 503.7"/>
          </g>
          <path class="cls-3" d="M242.15,472.28,257.36,448,221.53,431.4l-25.66-3.7L183.28,453l-7,30.43,23.36,5.83,35.83,16.56Zm-21.39-29.42,3.81,4.13-2.06,1.91-3.82-4.14ZM218.62,464l5.21,3.53-1.58,2.33-4.09-2.78-4.73,1.46-.83-2.68ZM207.73,436l9,3.4-1,2.63-9-3.4Zm-5.54-.65,1.16,2.57-4.47,2-1.28,6.46,4.16,1.37-.88,2.67-6.53-2.15,2.06-10.32Zm-9.39,21.56,6.22.44-.2,2.8-5-.35-3.68,3.41-1.91-2.07ZM186.19,477l.58-7.67,2.8.21L189.3,473l3.4-1.05.83,2.69Zm19.38-25,.87-2.67,6.88,2.26-4.52,9.29-6.56-.46.2-2.81,4.66.33,2.28-4.69Zm-7.06,21.22-.83-2.69,9.94-3.07.83,2.69Zm15.23,9L205.2,485l-.89-2.67,10.41-3.49,4.1,5.19-2.21,1.74Zm7.62,9.65-4.1-5.18,2.21-1.75,2.88,3.65,6.7-2.17.19-4.64,2.81.11-.27,6.6Zm4.15-19.74,1.57-2.33,5.31,3.6-.26,6.4-2.81-.11.2-4.84Zm12.62-6.7-3.94-8.72-8.77,3.63-2.15-5.19,8.61-3.57-4.38-9.71,5.13-2.32,4.45,9.87,8.51-3.52,2.15,5.19-8.35,3.46,3.87,8.57Z"/>
        </g>
        <g>
          <path class="cls-3" d="M478.22,246.7l-15.48,2.75-13.51,8,7.65,28.66,17.63-5.06,16.64-7.69ZM470.74,275l-2.29-6.15-10.54,3.92-2.29-6.15,10.54-3.92-2.28-6.15,16.61,4.33Z"/>
          <path class="cls-3" d="M399.14,276.1l-15.48,2.76-13.52,8,7.66,28.66,17.62-5.06,16.65-7.69Zm3.41,17.24L392,297.26l2.29,6.15-16.61-4.32L387.43,285l2.29,6.15,10.54-3.92Z"/>
          <path class="cls-3" d="M438.68,261.4l-15.48,2.76-13.52,8,7.66,28.66,17.63-5,16.64-7.69Zm-5.18,30.44-14.13-9.75,6.15-2.29-3.92-10.55,6.15-2.28,3.92,10.54,6.15-2.29Z"/>
          <path class="cls-3" d="M425.94,227.13l-15.48,2.76-13.52,8,7.66,28.66,17.62-5.05,16.65-7.69Zm-6,18.75,3.92,10.54-6.15,2.29-3.92-10.55-6.16,2.29,4.33-16.61,14.13,9.75Z"/>
        </g>
        <path id="Stalker" class="cls-3" d="M163.74,549.88a33.75,33.75,0,1,0,33.75,33.75A33.75,33.75,0,0,0,163.74,549.88Zm0,2.81a30.77,30.77,0,0,1,15.47,4.15l-9.85,17a11.21,11.21,0,0,0-11.24,0l-9.85-17A30.72,30.72,0,0,1,163.74,552.69Zm-15.47,57.73a30.93,30.93,0,0,1-15.47-26.79h19.69a11.23,11.23,0,0,0,5.63,9.73Zm7-26.79a8.44,8.44,0,1,1,8.44,8.43A8.44,8.44,0,0,1,155.3,583.63Zm23.91,26.79-9.85-17.06a11.23,11.23,0,0,0,5.63-9.73h19.69A30.93,30.93,0,0,1,179.21,610.42Z"/>
        <g id="Pacman_Ghost" data-name="Pacman Ghost">
          <path class="cls-3" d="M476.7,662.92l-19.31-17.19-25.82,1.39-17.19,19.31-14.87,42.48,17-6,5.58,13.87,13-7.36,5.57,13.87,13-7.37,9.56,15.27,14.86-42.48Zm-35.51,24.82-5.31-1.86L434,691.19l-10.61-3.72,1.85-5.31L420,680.3l7.43-21.23,5.31,1.85,1.86-5.3,10.61,3.71-1.85,5.31,5.31,1.86Zm23.89,8.36-5.31-1.86-1.85,5.31-10.62-3.72,1.86-5.31-5.31-1.85,7.43-21.24,5.31,1.86,1.86-5.31,10.62,3.71L467.21,673l5.31,1.86Z"/>
          <rect class="cls-3" x="454.55" y="679.53" width="9.84" height="9.84" transform="translate(251.91 -113.36) rotate(19.29)"/>
          <rect class="cls-3" x="430.66" y="671.17" width="9.84" height="9.84" transform="translate(247.8 -105.94) rotate(19.29)"/>
        </g>
        <g id="Globus">
          <g>
            <polygon class="cls-3" points="333.74 699.82 358.34 686.2 353.16 682.64 333.48 693.54 333.74 699.82"/>
            <path class="cls-3" d="M352.4,634.83A33.74,33.74,0,0,0,323,617.44l0,2.81a30.94,30.94,0,1,1-1.1,61.86l-.05,2.81a33.63,33.63,0,0,0,14.95-3l2.78,5,4.92-2.72-2.78-5A33.76,33.76,0,0,0,352.4,634.83Z"/>
          </g>
          <path class="cls-3" d="M309.25,626.58a28.13,28.13,0,1,0,38.23,11A28.13,28.13,0,0,0,309.25,626.58Zm13.25.7,6.41,2.88-10,2.31L315,628.23Zm3.08,43.3-1.09,3.83-3.83-1.1-4-4.24,2.87-6.42,5.74,1.65-4.24,4Zm-9-19.13-5-.42,1.5,5.6,2.59,1.78-2.33,4.51-1,7-4.64-5.47L303.61,657,302,648.29l7-13.51,2.59,1.77-.42,5.06,3.15-.13,1.77-2.6,5.06.42L317,646.4Zm24.72,4-.28,8.2-6.7,5.32-5.19-3.56-.4-9.43,4.79-5.86-.94-7.52L327.4,639l-1.49-5.6,11.33.15.95,7.52,5.87,4.79Z"/>
        </g>
        <g id="Lambda">
          <path class="cls-3" d="M173.38-36a33.75,33.75,0,0,0-12.14,46.16,33.74,33.74,0,0,0,46.15,12.15,33.75,33.75,0,0,0,12.15-46.16A33.75,33.75,0,0,0,173.38-36Zm31.18,53.45A28.13,28.13,0,0,1,166.09,7.33a28.14,28.14,0,0,1,10.13-38.47A28.12,28.12,0,0,1,214.68-21,28.12,28.12,0,0,1,204.56,17.45Z"/>
          <g>
            <rect class="cls-3" x="191.29" y="-30.33" width="5.62" height="39.37" transform="translate(78.19 145.41) rotate(-50.26)"/>
            <rect class="cls-3" x="203.25" y="-4.83" width="11.25" height="5.62" transform="translate(76.88 159.89) rotate(-50.26)"/>
            <polygon class="cls-3" points="190.3 -16.89 184.67 -16.87 184.83 17.3 190.44 14.03 190.3 -16.89"/>
          </g>
        </g>
        <path class="cls-3" d="M445.46,541.92l-.87,16.35,16.69,8.64,10.61-8-1.48-14.67-10.64-.37-.2,5.62,5.74.2.67,6.64-5.26,4-10.32-5.34.54-10.15,12.49-9.64,14.24,4.1,4,17.25-7.27,12.56-14.05,7.76-23.71-11.48-3-18.12L447.2,526.5l26.5-4.91,6.37-14.17-5.13-2.31-5.16,11.48-26,4.82L427.76,546l3.78,23.15h0l4.6,27.49,24.36-13.47,1.27-.7,16.68-9.23,9.17-15.82-5.22-22.64L462.24,529Zm-5.07,45.93-2.63-15.72,16.55,8Z"/>
        <g id="Uchiha">
          <path class="cls-3" d="M73,695.74a28.08,28.08,0,0,0-42.54,23.62,28.12,28.12,0,0,0,22.9,2.72l11.2,20.17,9.83-5.46L63.18,716.62A28.16,28.16,0,0,0,73,695.74Z"/>
          <path class="cls-3" d="M31.23,670.67a28.12,28.12,0,0,0-10.94,38.24,27,27,0,0,0,1.91,2.94,28.66,28.66,0,0,0,2.9,3.38,34,34,0,0,1,1.65-6.68,33.69,33.69,0,0,1,39-21.66A34.37,34.37,0,0,1,72.3,689,28.77,28.77,0,0,0,71,684.77a26.67,26.67,0,0,0-1.49-3.16A28.12,28.12,0,0,0,31.23,670.67Zm8.19,14.75A33.63,33.63,0,0,0,24,703.62,22.48,22.48,0,0,1,63,682,33.62,33.62,0,0,0,39.42,685.42Z"/>
        </g>
        <g id="Sharingan">
          <g>
            <path class="cls-3" d="M45.8,8.78a11.19,11.19,0,0,0,8.92,2A11.25,11.25,0,0,0,63.54-2.47,11.25,11.25,0,0,0,50.3-11.29a11.27,11.27,0,0,0-8.56,7.78l-2.19-.6L37.34-8l-.55-2.76L36-7.7V-.53l3.87,5Z"/>
            <path class="cls-3" d="M90.34,10a11.26,11.26,0,1,0-8.62,9.66l.58,2.2-2.24,3.84L78,27.6l3-.8,6.21-3.59,2.37-5.83Z"/>
          </g>
          <path class="cls-3" d="M66.54,12.31a17.22,17.22,0,0,1-3.18-.74,19.09,19.09,0,0,1-2.17-.92,13.09,13.09,0,0,1-2.81,1.64,19.92,19.92,0,0,0,4.08,2,20,20,0,0,0,5.5,1A13.26,13.26,0,0,1,66.54,12.31Z"/>
        </g>
        <g id="Splinter_Cell" data-name="Splinter Cell">
          <circle class="cls-3" cx="470.99" cy="370.34" r="11.25"/>
          <circle class="cls-3" cx="443.55" cy="376.53" r="11.25"/>
          <circle class="cls-3" cx="484.6" cy="394.95" r="11.25"/>
        </g>
        <polygon id="Quake" class="cls-3" points="337.59 202.36 330.8 187.97 333.62 200.94 329.71 215.97 315.7 225.88 303.69 226.05 308.72 212.03 313.64 210.81 297.75 205.11 300.77 209.19 295.74 223.2 286.58 215.43 282.07 198.87 288.62 184.78 299.03 176.57 284.64 183.36 275.35 200.94 278.44 221.47 291.94 233.79 289.37 240.95 288.59 255.61 297.31 243.8 299.88 236.64 318.14 235.72 333.58 221.84 337.59 202.36"/>
        <g id="Joystick">
          <path class="cls-3" d="M75.85,172.62a11.24,11.24,0,0,0-10.73,19.56l-9.93,25.2a2.81,2.81,0,1,0,5.23,2.06l9.93-25.2a11.24,11.24,0,0,0,5.5-21.62Z"/>
          <g>
            <path class="cls-3" d="M46,213.77a12.66,12.66,0,1,0,23.08-1l-3.45,8.76A8.44,8.44,0,1,1,50,215.32l3.45-8.76A12.6,12.6,0,0,0,46,213.77Z"/>
            <path class="cls-3" d="M84.37,204.69,73.9,200.57,71,207.92a16.87,16.87,0,1,1-15.7-6.19l2.89-7.35-10.46-4.12-7.3,3.17L21.8,225.38l3.18,7.3,47.1,18.56,7.29-3.17L87.54,212ZM30.45,230.3a4.22,4.22,0,1,1,5.47-2.38A4.21,4.21,0,0,1,30.45,230.3ZM69.7,245.77a4.22,4.22,0,1,1,5.47-2.38A4.23,4.23,0,0,1,69.7,245.77Z"/>
          </g>
        </g>
        <g id="Cup">
          <g>
            <path class="cls-3" d="M331.84,81.79,328,89.29l-7.69,11.86L338,94.44l3.86-7.5Zm4.28,10.11L326,96.19l3.82-4.36,3.22-6.25,5,2.57Z"/>
            <path class="cls-3" d="M286.83,58.61,283,66.11l4.81,18.3L293,71.26l3.86-7.5Zm1.67,18.26-2.39-10.72L288,62.4,293,65l-3.21,6.25Z"/>
          </g>
          <g>
            <polygon class="cls-3" points="293.85 103.35 290.63 109.6 289.3 115.25 273.58 115.06 272.29 117.56 302.3 133.01 303.59 130.51 294.3 117.82 298.13 113.46 301.35 107.21 296.31 107.78 293.85 103.35"/>
            <path class="cls-3" d="M315.62,70.28,301.91,60.05l-6.44,12.5-5.23,16.29,7.36,16.44,17.65-3.56L325.48,88l6.43-12.5Zm-6.5,27.07-4.29-6.12-7.47.07,4.49-6-2.37-7.09,7.07,2.43,6-4.44-.13,7.47L318.51,88l-7.14,2.19Z"/>
          </g>
        </g>
        <g id="Jem_Stone" data-name="Jem Stone">
          <g>
            <polygon class="cls-3" points="438.85 141.12 444.92 123.5 427.07 130.28 438.85 141.12"/>
            <polygon class="cls-3" points="447.41 124.9 441.78 141.23 462.46 133.38 447.41 124.9"/>
            <polygon class="cls-3" points="464.4 135.65 441.84 144.22 465.12 171.52 464.4 135.65"/>
            <polygon class="cls-3" points="448.34 122.19 464.58 131.34 466.19 115.41 448.34 122.19"/>
            <polygon class="cls-3" points="421.45 148.96 436.85 143.11 425.24 132.41 421.45 148.96"/>
            <polygon class="cls-3" points="467.4 131.5 482.8 125.65 468.98 115.79 467.4 131.5"/>
            <polygon class="cls-3" points="467.19 134.59 467.94 171.72 483.55 128.37 467.19 134.59"/>
            <polygon class="cls-3" points="463.15 173.54 439.05 145.28 422.7 151.49 463.15 173.54"/>
          </g>
          <g>
            <g>
              <line class="cls-3" x1="442.63" y1="112.33" x2="440.63" y2="107.07"/>
              <rect class="cls-3" x="440.23" y="106.89" width="2.81" height="5.62" transform="translate(-10.17 164.02) rotate(-20.81)"/>
            </g>
            <g>
              <line class="cls-3" x1="453.65" y1="109.65" x2="453.08" y2="104.05"/>
              <rect class="cls-3" x="451.96" y="104.04" width="2.81" height="5.62" transform="translate(-8.48 46.41) rotate(-5.81)"/>
            </g>
            <g>
              <line class="cls-3" x1="465.66" y1="109.59" x2="466.56" y2="104.04"/>
              <rect class="cls-3" x="463.3" y="105.41" width="5.62" height="2.81" transform="translate(286.23 549.89) rotate(-80.81)"/>
            </g>
            <g>
              <line class="cls-3" x1="432.62" y1="117.64" x2="429.33" y2="113.08"/>
              <rect class="cls-3" x="429.56" y="112.55" width="2.81" height="5.62" transform="translate(13.96 273.93) rotate(-35.81)"/>
            </g>
            <g>
              <line class="cls-3" x1="423.6" y1="125.58" x2="419.24" y2="122.02"/>
              <rect class="cls-3" x="420.01" y="120.99" width="2.81" height="5.62" transform="translate(59.16 372.17) rotate(-50.81)"/>
            </g>
          </g>
        </g>
        <g id="Campfire">
          <g>
            <g>
              <polygon class="cls-3" points="278.62 391.91 277.93 399.45 271.19 401.45 266.09 394.17 271.22 386.77 278.62 391.91"/>
              <polygon class="cls-3" points="280.91 389.76 272.17 385.02 292.14 373.23 316.95 362.92 322.19 365.76 321.1 371.95 315.45 367.76 302.38 373.12 280.22 397.3 280.91 389.76"/>
            </g>
            <g>
              <polygon class="cls-3" points="314.91 370.86 308.82 380 312.97 389.04 323.76 385.84 322.3 376 314.91 370.86"/>
              <g>
                <polygon class="cls-3" points="269.07 384.48 281.75 377.78 269.22 380.03 262.08 380.69 259.64 387.28 263.94 391.87 266.23 389.72 269.07 384.48"/>
                <polygon class="cls-3" points="302.23 377.56 287.91 393.55 310.28 389.84 306.13 380.81 310.86 372.06 302.23 377.56"/>
              </g>
            </g>
          </g>
          <path class="cls-3" d="M275.3,324l-5.62,35.41,5.9,10,13.74,1.79,10.53-9-.51-11.58Zm12.41,41.79-6.19-1.1-2.95-5,3.54-12.78,9.94,8.78.25,5.79Z"/>
        </g>
      </g>
      <g id="_1_2" data-name="1_2">
        <g id="Rocket">
          <polygon class="cls-3" points="857.9 42.61 853.58 42.22 851.29 38.52 839.57 42.7 837.22 68.66 859.4 54.97 857.9 42.61"/>
          <path class="cls-3" d="M881.24-2.49l15.7,3.72,7.45-19L902.65-37.1,884.56-30,870.91-14.88Zm11.65-18.83a7.68,7.68,0,0,1,2.49,10.57,7.68,7.68,0,0,1-10.57,2.49,7.68,7.68,0,0,1-2.49-10.57A7.68,7.68,0,0,1,892.89-21.32Z"/>
          <polygon class="cls-3" points="869.73 38.29 896.07 5.02 879.08 1 867.9 -12.41 849.9 25.97 849.8 26.18 856.64 37.26 869.62 38.44 869.73 38.29"/>
          <g>
            <polygon class="cls-3" points="846.41 24.28 861.57 -8.05 842.08 5.4 826.12 27.52 826.59 41.52 843.32 30.45 846.41 24.28"/>
            <polygon class="cls-3" points="895 12.63 872.8 40.67 868.68 46.15 866.25 66.06 879 60.23 891.66 36.07 895 12.63"/>
          </g>
        </g>
        <g id="Knight">
          <path class="cls-3" d="M884,142.17l-45.55,5.14-13.33,49.5,9.29,23.47L863.19,216l32.64-36.71ZM847,150.07l27.09-1.18-20.56,33.28-15.7-4.67Zm-2.47,55.55L832.5,190.77l31.9,15.73Zm26.75-11.53-10.68-10,18.14-32.59,10,25.89Z"/>
          <ellipse class="cls-3" cx="857.97" cy="163.28" rx="6.22" ry="2.66" transform="translate(297.93 833.46) rotate(-60.89)"/>
          <ellipse class="cls-3" cx="872.97" cy="174.68" rx="7.1" ry="3.55" transform="translate(295.68 852.42) rotate(-60.89)"/>
          <polygon class="cls-3" points="876.98 138.28 847.38 142.14 874.82 133.02 876.98 138.28"/>
          <polygon class="cls-3" points="897.04 169.79 890.85 148.04 894.82 148.22 897.04 169.79"/>
        </g>
        <path id="GG-2" data-name="GG" class="cls-3" d="M958.78,54.88l-11,16.6,6.86,54.58,55.64-15.69,8.77-13.28-7.43-57.33Zm20.45,8.74-11.84,5.29-5.13,24,5.57,13.21,6.61-2.79.78-10.2-5-3.29,1.63-6.08,10.21.79-.72,24.55-19.54,9.73L954,94.62l6.76-30.09L977.25,54Zm19.28-3.95-5.13,24L999,96.9l6.61-2.78.78-10.21-5-3.29,1.63-6.07,10.21.78-.72,24.55-19.54,9.74-7.83-24.24,6.77-30.09,16.5-10.55,2,9.64Z"/>
        <g id="Portal_Cube" data-name="Portal Cube">
          <path class="cls-3" d="M730,70.71a16.88,16.88,0,1,0,9.54,21.88A16.86,16.86,0,0,0,730,70.71Zm3.78,21.14a10.76,10.76,0,0,1-5.41,2.61,22.5,22.5,0,0,0-9.17,3.74,22.48,22.48,0,0,0-4.16-9,10.73,10.73,0,0,1-2.19-5.6,8.57,8.57,0,0,1,1.55-5.72,6.85,6.85,0,0,1,4.11-2.71,5,5,0,0,1,4.24,1,5.75,5.75,0,0,1,2.68,5.18l0,1.06.68-.82a5.79,5.79,0,0,1,5.49-2,5,5,0,0,1,3.82,2.12,6.83,6.83,0,0,1,1.16,4.78A8.52,8.52,0,0,1,733.74,91.85Z"/>
          <g>
            <g>
              <path class="cls-3" d="M720.44,64.19l5.22-13.3-20.94-8.23-8.23,21,13.3,5.22A22.55,22.55,0,0,1,720.44,64.19Z"/>
              <path class="cls-3" d="M746,83.07l13.3,5.22,8.23-20.94L746.6,59.12l-5.22,13.3A22.51,22.51,0,0,1,746,83.07Z"/>
              <path class="cls-3" d="M701.56,89.77l-13.29-5.22L680,105.49,701,113.72l5.22-13.3A22.55,22.55,0,0,1,701.56,89.77Z"/>
              <path class="cls-3" d="M727.15,108.65,721.92,122l20.94,8.22,8.23-20.94L737.8,104A22.6,22.6,0,0,1,727.15,108.65Z"/>
            </g>
            <g>
              <path class="cls-3" d="M737,68.22l3.35-8.54-10.47-4.11-3.36,8.54A22.24,22.24,0,0,1,732,65.48,22.57,22.57,0,0,1,737,68.22Z"/>
              <path class="cls-3" d="M710.6,104.62l-3.36,8.54,10.48,4.11,3.35-8.54a22.8,22.8,0,0,1-5.51-1.37A22.49,22.49,0,0,1,710.6,104.62Z"/>
              <path class="cls-3" d="M705.59,73.23l-8.54-3.36-4.11,10.47,8.54,3.36a22.69,22.69,0,0,1,1.37-5.51A22.27,22.27,0,0,1,705.59,73.23Z"/>
              <path class="cls-3" d="M754.64,92.5l-8.54-3.36a21.8,21.8,0,0,1-1.37,5.51,22.27,22.27,0,0,1-2.74,5l8.54,3.36Z"/>
            </g>
          </g>
        </g>
        <g id="Aperture">
          <path class="cls-3" d="M695.36,206.3H672.18a33.79,33.79,0,0,0,.18,23Z"/>
          <path class="cls-3" d="M718.06,219.4l16.4-16.4a33.9,33.9,0,0,0-16.4-16.13Z"/>
          <path class="cls-3" d="M737.75,217.55a33.68,33.68,0,0,0-2.11-11.75l-21.7,21.7h0l-1.3,1.3h23.18A33.78,33.78,0,0,0,737.75,217.55Z"/>
          <path class="cls-3" d="M715.25,208.91V185.73a33.79,33.79,0,0,0-23,.18Z"/>
          <path class="cls-3" d="M705.85,203.49l-16.4-16.4a33.79,33.79,0,0,0-16.13,16.4Z"/>
          <path class="cls-3" d="M702.15,231.61l16.4,16.4a33.79,33.79,0,0,0,16.13-16.4Z"/>
          <path class="cls-3" d="M694.05,227.5h0l-1.3-1.31v23.18a33.76,33.76,0,0,0,23-.18Z"/>
          <path class="cls-3" d="M689.94,215.7l-16.4,16.4a33.68,33.68,0,0,0,16.4,16.13Z"/>
        </g>
        <g>
          <path class="cls-3" d="M553.65,156.89l23.33,32c.31,0,.61.05.92.1a16.87,16.87,0,1,1-19.29,14c0-.31.12-.6.19-.9l-23.34-32,14.1,54.28,44.46,7L601,187Z"/>
          <path class="cls-3" d="M573.1,219.58a14.06,14.06,0,0,0,4.36-27.79,15.37,15.37,0,0,0-1.64-.15h-.11a14,14,0,0,0-13.41,8.67h0a11.61,11.61,0,0,0-.52,1.47l0,.1a12.28,12.28,0,0,0-.36,1.62A14.05,14.05,0,0,0,573.1,219.58Z"/>
        </g>
        <g id="Uchiha-2" data-name="Uchiha">
          <path class="cls-3" d="M1033,215.74a28.08,28.08,0,0,0-42.54,23.62,28.12,28.12,0,0,0,22.9,2.72l11.2,20.17,9.83-5.46-11.19-20.17A28.16,28.16,0,0,0,1033,215.74Z"/>
          <path class="cls-3" d="M991.23,190.67a28.12,28.12,0,0,0-10.94,38.24,27,27,0,0,0,1.91,2.94,28.66,28.66,0,0,0,2.9,3.38,34,34,0,0,1,1.65-6.68,33.69,33.69,0,0,1,39-21.66,34.37,34.37,0,0,1,6.55,2.14,28.77,28.77,0,0,0-1.34-4.26,26.67,26.67,0,0,0-1.49-3.16A28.12,28.12,0,0,0,991.23,190.67Zm8.19,14.75A33.63,33.63,0,0,0,984,223.62,22.48,22.48,0,0,1,1023,202,33.62,33.62,0,0,0,999.42,205.42Z"/>
        </g>
        <g id="Tetris">
          <path class="cls-3" d="M541.63,7.59l25.46,62.52,41.68-17L583.31-9.38Zm38.65,42.72-4.55,1.86,1.85,4.55-3.9,1.59-1.86-4.55-4.56,1.85-1.59-3.9,4.56-1.86-1.86-4.56,3.91-1.59,1.85,4.56,4.56-1.86Zm9.63-6.2a2.81,2.81,0,1,1,1.54-3.66A2.81,2.81,0,0,1,589.91,44.11Zm7.33,3.09a2.81,2.81,0,1,1,1.54-3.67A2.82,2.82,0,0,1,597.24,47.2Zm-4.29-18L561.69,41.94,549,10.68,580.22-2Z"/>
          <polygon class="cls-3" points="564.78 34.61 585.62 26.12 577.13 5.28 564.78 34.61"/>
        </g>
      </g>
      <g id="_2_1" data-name="2_1">
        <g id="Cake">
          <g>
            <g>
              <g>
                <line class="cls-3" x1="436.81" y1="798.39" x2="432.65" y2="816.91"/>
                <rect class="cls-3" x="425.24" y="806.94" width="18.98" height="1.41" transform="matrix(0.22, -0.98, 0.98, 0.22, -448.51, 1054.99)"/>
              </g>
              <path class="cls-3" d="M437.27,796.33h0a5.43,5.43,0,0,1-1.27-7.52l4.35-6.2,1.28,7.46a5.44,5.44,0,0,1-4.36,6.26Z"/>
            </g>
            <polygon class="cls-3" points="436.34 813.32 434.78 820.27 429.29 819.04 430.64 813.04 407.11 811.9 426.6 827.8 472.69 815.09 436.34 813.32"/>
            <path class="cls-3" d="M428.73,831.16l-6.16,27.45,43.35-13.34,6.16-27.44Zm32.85,7.78-31,9.53.62-2.75,31-9.52ZM464,828l-31,9.52.61-2.74,31-9.53Z"/>
            <path class="cls-3" d="M406.5,814.64l-6.16,27.45,16.75,15.28,6.15-27.44Zm7.65,30.13L407,838.22l.62-2.74,7.17,6.55Zm2.46-11-7.18-6.56.62-2.74,7.18,6.55Z"/>
          </g>
          <g>
            <polygon class="cls-3" points="415.12 776.22 398.93 784.12 392.72 837.5 415.12 776.22"/>
            <circle class="cls-3" cx="390.87" cy="845.73" r="5.62"/>
          </g>
        </g>
        <path id="Smile" class="cls-3" d="M133,803a33.75,33.75,0,1,0,18.4,44A33.75,33.75,0,0,0,133,803Zm6.13,14.67c2.88,1.18,3.29,6.8.93,12.55s-6.6,9.45-9.47,8.27-3.29-6.8-.93-12.54S136.25,816.48,139.12,817.65Zm-20.81-8.54c2.87,1.18,3.29,6.8.93,12.54s-6.6,9.46-9.48,8.28-3.29-6.8-.93-12.55S115.43,807.93,118.31,809.11ZM111.63,855a28,28,0,0,1-16.15-17.59l4.84-.63A25.23,25.23,0,0,0,132.48,850l3,3.85A28.07,28.07,0,0,1,111.63,855Z"/>
        <path id="GLHF-2" data-name="GLHF" class="cls-3" d="M414.52,946.35l-8,18.21,16,52.64,47-22.81L479,972.55l-14.94-50Zm9.49,1.13,15.71-10.05-.08,3.67L429,948.69l-4.73,15,6,3.71,8.66-4.88-.22-4.44-5.75.73-.22-4.44,10.71.36.14,12-14.7,8.74-11.94-7.42Zm13.46,57.85.36-10.71-6,3.86-.87,9.4-4.74,3.35-1.82-28,8.66-4.88-.65,13.83,6-3.86.65-13.84,4.73-3.35,1,29.78Zm29.62-40.21-12.59,6.42.73,5.75,8.66-4.88L461.2,981l-6,3.86.15,12-6.05,3.86-1.53-31.09L468.47,957Zm1.16-12.52-20.74,12.6L447,936.73l8.15-6.19-1.52,23.23,12.08-7.72Z"/>
        <g id="The_Box" data-name="The Box">
          <g>
            <rect class="cls-3" x="230.53" y="785.17" width="45" height="8.44" transform="translate(-216.02 105.91) rotate(-16.69)"/>
            <rect class="cls-3" x="247.49" y="841.74" width="45" height="8.44" transform="translate(-231.56 113.16) rotate(-16.69)"/>
          </g>
          <g>
            <polygon class="cls-3" points="257.94 805.78 259.05 803.73 264.71 793.23 245.39 799.02 255.89 804.68 257.94 805.78"/>
            <polygon class="cls-3" points="265.07 829.57 263.97 831.62 258.31 842.12 277.63 836.33 267.13 830.67 265.07 829.57"/>
            <polygon class="cls-3" points="237.13 814.71 239.55 822.79 247.87 820.3 237.36 814.64 237.13 814.71"/>
            <polygon class="cls-3" points="280 801.85 274.35 812.36 282.66 809.87 280.24 801.78 280 801.85"/>
            <polygon class="cls-3" points="242.78 833.57 243.02 833.5 248.68 822.99 240.36 825.48 242.78 833.57"/>
            <polygon class="cls-3" points="285.66 820.71 285.89 820.64 283.47 812.56 275.15 815.05 285.66 820.71"/>
          </g>
          <g>
            <path class="cls-3" d="M219.49,795l19.38,64.65,8.09-2.42-19.39-64.66Zm22.62,60.75a1.4,1.4,0,1,1,.94-1.75A1.41,1.41,0,0,1,242.11,855.79Zm-17-56.58a1.4,1.4,0,1,1,.94-1.75A1.4,1.4,0,0,1,225.15,799.21Z"/>
            <path class="cls-3" d="M276.06,778.08l19.39,64.65,8.08-2.42-19.38-64.66Zm22.62,60.75a1.41,1.41,0,1,1,.94-1.75A1.39,1.39,0,0,1,298.68,838.83Zm-17-56.58a1.4,1.4,0,1,1,.94-1.75A1.4,1.4,0,0,1,281.72,782.25Z"/>
          </g>
          <g>
            <polygon class="cls-3" points="259.09 809.59 241.58 800.16 233.5 802.58 235.92 810.66 253.43 820.1 263.93 825.76 281.44 835.19 289.52 832.77 287.1 824.68 269.59 815.25 259.09 809.59"/>
            <polygon class="cls-3" points="252.09 822.57 244 837.61 246.42 845.69 254.5 843.26 262.6 828.23 252.09 822.57"/>
            <polygon class="cls-3" points="268.52 792.08 260.42 807.12 270.93 812.78 279.02 797.74 276.6 789.66 268.52 792.08"/>
          </g>
        </g>
        <g id="Crosshair-2" data-name="Crosshair">
          <polygon class="cls-3" points="27.59 1052.68 11.32 1022.59 21.96 1018.94 27.59 1052.68"/>
        </g>
        <g id="PlayStation_Buttons" data-name="PlayStation Buttons">
          <g id="Button_O" data-name="Button O">
            <circle class="cls-3" cx="348.13" cy="930.56" r="6.63"/>
            <path class="cls-3" d="M354.51,916.46a15.47,15.47,0,1,0,7.71,20.47A15.47,15.47,0,0,0,354.51,916.46Zm-10.93,24.16a11,11,0,1,1,14.62-5.51A11.05,11.05,0,0,1,343.58,940.62Z"/>
          </g>
          <g id="Button_Square" data-name="Button Square">
            <rect class="cls-3" x="297.59" y="905.27" width="8.84" height="8.84" transform="translate(-651.29 809.85) rotate(-65.66)"/>
            <path class="cls-3" d="M308.38,895.59a15.47,15.47,0,1,0,7.72,20.47A15.48,15.48,0,0,0,308.38,895.59Zm-2,25.79-16.11-7.28L297.6,898l16.1,7.29Z"/>
          </g>
          <g id="Button_Triangle" data-name="Button Triangle">
            <polygon class="cls-3" points="337.11 893.5 331.6 897.46 337.78 900.26 337.11 893.5"/>
            <path class="cls-3" d="M341.88,883a15.47,15.47,0,1,0,7.72,20.47A15.46,15.46,0,0,0,341.88,883ZM322.8,898.33l18-12.88,2.17,22Z"/>
          </g>
          <path id="Button_X" data-name="Button X" class="cls-3" d="M321,929.09a15.47,15.47,0,1,0,7.72,20.47A15.47,15.47,0,0,0,321,929.09Zm.1,25L317,955.66,313.35,946l-9.63,3.63-1.56-4.13,9.63-3.63-3.63-9.63,4.13-1.56,3.63,9.63,9.63-3.63,1.56,4.13-9.63,3.63Z"/>
        </g>
        <g id="WASD">
          <g>
            <polygon class="cls-3" points="-3.43 821.82 -8.46 834.95 -3.2 836.96 1.74 835.84 3.75 830.59 0.51 823.33 -3.43 821.82"/>
            <path class="cls-3" d="M16.81,822,3.37,813.88-12.08,811l-13.18,26.57,16.57,7.85,17.57,5.22ZM4.68,840l-6.76,1.93-11.82-4.53,8-21,10.51,4L8.2,830.78Z"/>
          </g>
        </g>
        <g id="Lambda-2" data-name="Lambda">
          <path class="cls-3" d="M173.38,924a33.75,33.75,0,1,0,46.16,12.15A33.75,33.75,0,0,0,173.38,924Zm31.18,53.45A28.13,28.13,0,1,1,214.68,939,28.13,28.13,0,0,1,204.56,977.45Z"/>
          <g>
            <rect class="cls-3" x="191.29" y="929.67" width="5.62" height="39.37" transform="translate(-659.98 491.65) rotate(-50.26)"/>
            <rect class="cls-3" x="171.7" y="937.06" width="11.25" height="5.62" transform="matrix(0.86, -0.5, 0.5, 0.86, -449.44, 217.39)"/>
            <rect class="cls-3" x="203.25" y="955.17" width="11.25" height="5.62" transform="translate(-661.29 506.12) rotate(-50.26)"/>
            <polygon class="cls-3" points="190.3 943.11 184.67 943.13 184.83 977.3 190.44 974.03 190.3 943.11"/>
          </g>
        </g>
        <g id="Sharingan-2" data-name="Sharingan">
          <g>
            <path class="cls-3" d="M69.47,929.94a11.25,11.25,0,1,0,12.67,2.63L83.76,931l4.45,0,2.66.9-2.21-2.23-6.22-3.58-6.23.86Z"/>
            <path class="cls-3" d="M45.8,968.78a11.26,11.26,0,1,0-4.06-12.29l-2.19-.6L37.34,952l-.55-2.76-.83,3v7.17l3.87,5Z"/>
            <path class="cls-3" d="M90.34,970a11.26,11.26,0,1,0-8.62,9.66l.58,2.2-2.24,3.84L78,987.6l3-.8,6.21-3.59,2.37-5.83Z"/>
          </g>
          <g>
            <path class="cls-3" d="M85.61,956.3a13.1,13.1,0,0,1,2.66,1.88A19.62,19.62,0,0,0,86,946.1,13.39,13.39,0,0,1,84.27,949,16.82,16.82,0,0,1,85.61,956.3Z"/>
            <path class="cls-3" d="M66.54,972.31a17.22,17.22,0,0,1-3.18-.74,19.09,19.09,0,0,1-2.17-.92,13.09,13.09,0,0,1-2.81,1.64,19.2,19.2,0,0,0,9.58,3A13.26,13.26,0,0,1,66.54,972.31Z"/>
            <path class="cls-3" d="M60,941.15a13.57,13.57,0,0,1,.29-3.34,19.6,19.6,0,0,0-9.11,8.91,13.31,13.31,0,0,1,3.27-.09A16.7,16.7,0,0,1,60,941.15Z"/>
          </g>
        </g>
        <g id="Cup-2" data-name="Cup">
          <path class="cls-3" d="M286.83,1018.61l-3.86,7.5,4.81,18.3,5.19-13.15,3.86-7.5Zm1.67,18.26-2.39-10.72,1.93-3.75,5,2.57-3.21,6.26Z"/>
          <path class="cls-3" d="M315.62,1030.27l-13.71-10.22-6.44,12.5-5.23,16.29,7.36,16.44,17.65-3.56L325.48,1048l6.43-12.5Zm-6.5,27.08-4.29-6.12-7.47.07,4.49-6-2.37-7.09,7.07,2.43,6-4.44-.13,7.47,6.08,4.34-7.14,2.19Z"/>
        </g>
      </g>
      <g id="_2_2" data-name="2_2">
        <g id="Rocket-2" data-name="Rocket">
          <polygon class="cls-3" points="857.9 1002.61 853.58 1002.22 851.29 998.52 839.57 1002.7 837.22 1028.66 859.4 1014.97 857.9 1002.61"/>
          <path class="cls-3" d="M881.24,957.51l15.7,3.72,7.45-19-1.74-19.35L884.56,930l-13.65,15.13Zm11.65-18.83a7.68,7.68,0,1,1-10.57,2.49A7.68,7.68,0,0,1,892.89,938.68Z"/>
          <polygon class="cls-3" points="869.73 998.29 896.07 965.02 879.08 961 867.9 947.59 849.9 985.97 849.8 986.18 856.64 997.26 869.62 998.44 869.73 998.29"/>
          <g>
            <polygon class="cls-3" points="846.41 984.28 861.57 951.95 842.08 965.4 826.12 987.51 826.59 1001.52 843.32 990.46 846.41 984.28"/>
            <polygon class="cls-3" points="895 972.63 872.8 1000.67 868.68 1006.15 866.25 1026.06 879 1020.23 891.66 996.07 895 972.63"/>
          </g>
        </g>
        <g id="Headphones">
          <g id="Left_Earcap" data-name="Left Earcap">
            <polygon class="cls-3" points="542.92 823.49 539.7 850.61 549.91 855.54 552.28 817.75 542.92 823.49"/>
            <polygon class="cls-3" points="560.25 824.89 556.15 850.23 553.02 855.1 555.83 820.43 560.25 824.89"/>
            <polygon class="cls-3" points="539.34 829.7 537.95 842.59 533.52 838.13 539.34 829.7"/>
          </g>
          <g id="Right_Earcap" data-name="Right Earcap">
            <polygon class="cls-3" points="596.21 841.49 582.33 865 571.23 862.74 592.25 831.24 596.21 841.49"/>
            <polygon class="cls-3" points="581.57 832.09 569.48 854.72 569.01 860.5 587.8 831.23 581.57 832.09"/>
            <polygon class="cls-3" points="595.29 848.6 588.58 859.69 594.81 858.83 595.29 848.6"/>
          </g>
          <polygon id="Bridge" class="cls-3" points="533.54 833.68 536.22 830.14 539.4 811.92 567.94 793.35 594.58 802.35 606.02 834.41 597.51 850.83 597.49 855.28 610.02 835.76 599.05 797.92 567.07 787.12 535.41 810.57 533.54 833.68"/>
        </g>
        <g id="Bow">
          <polygon class="cls-3" points="747 468.2 753.36 455.2 738.96 456.67 744.02 460 691.41 496.67 685.54 495.62 676.31 502.06 684.14 503.45 682.75 511.28 691.97 504.85 693.02 498.98 745.63 462.3 747 468.2"/>
          <g>
            <polygon class="cls-3" points="731.33 465.41 718.57 452.02 696.48 440 723.54 446.85 739.41 459.78 731.33 465.41"/>
            <polygon class="cls-3" points="744.24 466.7 750.88 486.07 747.95 513.83 744.31 488.94 736.16 472.33 744.24 466.7"/>
            <g>
              <line class="cls-3" x1="695.09" y1="504.4" x2="744.27" y2="506.1"/>
              <rect class="cls-3" x="718.98" y="480.64" width="1.41" height="49.22" transform="translate(189.2 1206.54) rotate(-87.97)"/>
            </g>
            <g>
              <line class="cls-3" x1="702.45" y1="446.12" x2="687.04" y2="492.86"/>
              <rect class="cls-3" x="670.14" y="468.78" width="49.22" height="1.41" transform="translate(31.26 982.2) rotate(-71.74)"/>
            </g>
          </g>
        </g>
        <g id="Crowbar">
          <polygon class="cls-3" points="667.46 369.57 647.39 366.61 636.08 379.13 642.35 384.79 649.88 376.44 661.8 375.83 668.87 397.38 667.46 369.57"/>
          <polygon class="cls-3" points="575.77 445.93 568.23 454.28 534.13 468.96 570.72 464.11 582.03 451.58 575.77 445.93"/>
          <path class="cls-3" d="M632.31,383.31l-52.77,58.44,6.26,5.66L638.58,389Zm-8,19.32-4.18-3.77,1.89-2.09,2.09,1.89,1.88-2.09-2.09-1.88,1.89-2.09,2.08,1.88,1.89-2.08-2.09-1.89,1.89-2.09,4.17,3.77Z"/>
        </g>
        <path id="Keyboard" class="cls-3" d="M637.78,761.24l33.49,58.62L808,741.73l-33.48-58.61Zm73.62-35.57,9.76-5.58,5.58,9.77L717,735.44Zm11.5,25.82-5.58-9.77,9.77-5.58,5.58,9.77Zm3.84,1,5.58,9.77-9.77,5.58L717,758.12Zm-27.56-19.88,9.77-5.58,5.58,9.77-9.77,5.58Zm5.93,16,9.77-5.58,5.58,9.77-9.77,5.58Zm9.42,10.82,5.58,9.77-9.77,5.58-5.58-9.77Zm-30-18.49,9.77-5.58,5.58,9.77-9.77,5.58Zm8.37,14.65,9.77-5.58,5.58,9.77-9.77,5.58Zm9.42,10.82,5.58,9.76-9.77,5.58-5.58-9.76Zm-30-18.5,9.77-5.58,5.58,9.77-9.77,5.58Zm8.37,14.66,9.77-5.58,5.58,9.76-9.77,5.58Zm9.42,10.81,5.58,9.77-9.77,5.58L680.34,779Zm-30-18.49,9.77-5.58,5.58,9.77-9.77,5.58Zm8.37,14.65,9.77-5.58,5.58,9.77-9.77,5.58Zm-23-6.28,9.77-5.58,5.58,9.77L651,773.11ZM653.83,778,666,771l5.58,9.76-12.21,7Zm7,12.21,17.1-9.76,5.58,9.76L666.38,800Zm22.33,16.4-9.77,5.58-5.58-9.77,9.77-5.58Zm12.21-7-9.77,5.58L680,795.44l9.77-5.58Zm41.51-23.72-39.07,22.32-5.58-9.77,39.07-22.32Zm12.22-7-9.77,5.58-5.58-9.76,9.76-5.58Zm12.21-7-9.77,5.58-5.58-9.77,9.77-5.58Zm-7-12.21-19.54,11.16-5.58-9.77L748.72,740Zm-7-12.21-12.21,7-5.58-9.77,12.21-7ZM739,722.88l-9.76,5.58-5.58-9.76,9.76-5.58Zm37,30.71-9.77,5.58-5.58-9.77,9.77-5.58ZM762,729.17l-9.77,5.58L746.63,725l9.77-5.58Zm-8.37-14.66-9.77,5.58-5.58-9.76,9.77-5.58Zm34.53,32.1-9.77,5.58-5.58-9.77,9.77-5.58Zm-7-12.21L771.4,740l-5.59-9.77,9.77-5.58Zm-7-12.21-9.77,5.58L758.84,718l9.77-5.58Zm-8.37-14.65-9.77,5.58-5.58-9.77,9.77-5.58Zm34.53,32.1-9.77,5.58L785,735.45l9.77-5.58Zm-14-24.42-9.77,5.58L771.05,711l9.77-5.58ZM778,700.56l-9.77,5.58-5.58-9.77,9.77-5.58Z"/>
        <g id="Speaker">
          <path class="cls-3" d="M771.07,309l-7.33-3.11-26.07,10.56-3.1,7.32,9.62,53.76,11,4.65,41.71-16.88,4.66-11Zm-18.78,6.08a7,7,0,1,1-3.88,9.16A7,7,0,0,1,752.29,315.09Zm22.16,54.75a21.1,21.1,0,1,1,11.64-27.47A21.09,21.09,0,0,1,774.45,369.84Z"/>
          <circle class="cls-3" cx="754.93" cy="321.61" r="2.81"/>
          <path class="cls-3" d="M760.21,334.64a16.88,16.88,0,1,0,22,9.31A16.88,16.88,0,0,0,760.21,334.64Zm9,22.16a7,7,0,1,1,3.88-9.15A7,7,0,0,1,769.18,356.8Z"/>
        </g>
        <path id="GG-3" data-name="GG" class="cls-3" d="M958.78,1014.88l-11,16.6,6.86,54.58,55.64-15.69,8.77-13.28-7.43-57.33Zm20.45,8.74-11.84,5.29-5.13,24,5.57,13.21,6.61-2.79.78-10.2-5-3.29,1.63-6.08,10.21.79-.72,24.55-19.54,9.73L954,1054.62l6.76-30.09,16.5-10.55Zm19.28-4-5.13,24L999,1056.9l6.61-2.78.78-10.21-5-3.29,1.63-6.07,10.21.78-.72,24.55-19.54,9.74-7.83-24.24,6.77-30.09,16.5-10.55,2,9.64Z"/>
        <g>
          <g id="Camera">
            <path class="cls-3" d="M877.78,414l-8.71-5.18-12.69,6.07-1.43,10-21.57,10.32-2.64,7.5,17,35.52,7.5,2.64L906,456.62l2.64-7.5-17-35.52L884.12,411Zm8,46.06a19.69,19.69,0,1,1,9.26-26.26A19.7,19.7,0,0,1,885.79,460.05Zm-31.06-22.56a2.81,2.81,0,1,1,1.32-3.75A2.81,2.81,0,0,1,854.73,437.49Z"/>
            <rect class="cls-3" x="836.22" y="425.78" width="8.44" height="2.81" transform="translate(-102.06 404.59) rotate(-25.57)"/>
          </g>
          <path class="cls-3" d="M870,427.07a16.87,16.87,0,1,0,22.5,7.93A16.87,16.87,0,0,0,870,427.07ZM883.36,455A14.06,14.06,0,1,1,890,436.22,14.05,14.05,0,0,1,883.36,455Z"/>
        </g>
        <g id="VR_Headset" data-name="VR Headset">
          <path class="cls-3" d="M572.36,300.14l-21,8.08-19,13.34,11.12,28.87,23-2.84,7-13.23,14,5.15,19-13.34L595.37,297.3Zm-16.14,36.35a8.44,8.44,0,1,1,4.84-10.9A8.44,8.44,0,0,1,556.22,336.49Zm31.49-12.13a8.44,8.44,0,1,1,4.85-10.91A8.43,8.43,0,0,1,587.71,324.36Z"/>
          <rect class="cls-3" x="549.09" y="298.84" width="22.5" height="2.81" transform="translate(-70.47 221.48) rotate(-21.07)"/>
          <rect class="cls-3" x="532.1" y="324.95" width="2.81" height="22.5" transform="translate(-85.19 214.23) rotate(-21.07)"/>
          <rect class="cls-3" x="602.96" y="297.66" width="2.81" height="22.5" transform="translate(-70.64 237.88) rotate(-21.07)"/>
        </g>
        <g id="Magic_Hat" data-name="Magic Hat">
          <polygon class="cls-3" points="606.8 697.61 602.57 705.04 575.55 701.1 563.11 686.04 564.7 677.63 554.49 676.88 542.34 681.4 556.1 696.95 570.49 706.73 594.24 715.47 606.74 714.07 616.74 707.25 606.8 697.61"/>
          <polygon class="cls-3" points="609.14 679.24 614.03 682.53 619.51 680.36 617.89 686.03 621.64 690.57 615.76 690.79 612.6 695.76 610.57 690.22 604.87 688.75 609.51 685.12 609.14 679.24"/>
          <path class="cls-3" d="M612.41,674.2l1.4,12.5,5.82-15.84-1.39-12.5-9.59-6.52-20.56,2.93-8.19,6-1.11,7.08-11,9.46-1.11,7.08L577,697.14l23.89,4.29,3.75-6.11L602.42,681l2.77-3.47L602.34,669l5.9-3.83Zm.7-11.85,1.61,1.12,1.84-.69-.57,1.88,1.22,1.54-2,0-1.08,1.64-.65-1.85-1.89-.53,1.57-1.18Zm-11.63-5.08,1.4-1.37.25,1.94,1.74.91-1.78.83-.32,1.94-1.34-1.44-1.95.3.95-1.72-.87-1.76ZM591,656.48,601,665l.46,2.23-2.34-.13-10-8.48-.19-2Zm3.27,11.13,1.66,1,1.81-.78-.48,1.9,1.31,1.47-2,.14-1,1.7-.74-1.82-1.91-.43,1.5-1.26Zm-6.75-5,1.37-1.4.28,1.95,1.76.87-1.77.86-.29,2-1.36-1.41-1.94.32.92-1.73-.91-1.74ZM576,682.82l-1.2,1.56-.51-1.9-1.85-.65,1.64-1.07,0-2,1.53,1.24,1.88-.56-.7,1.83,1.12,1.62Zm6.68-2.22-1-1.7-2-.15,1.32-1.46-.46-1.91,1.79.8,1.68-1-.21,2,1.5,1.28-1.92.41Zm1,13L582,692.49l-1.81.76.5-1.9-1.27-1.49,2-.11,1-1.68.71,1.84,1.91.45-1.53,1.24Zm5.72-6.16-1.67-1-1.8.79.47-1.91-1.3-1.47,2-.14,1-1.69.74,1.82,1.92.42-1.5,1.26Zm4.4-4.1,1.93.34,1.38-1.4.27,2,1.76.87-1.76.86-.29,2-1.37-1.41-1.93.32.91-1.73Zm3.55,12.44-1.93-.37-1.4,1.38-.24-2-1.75-.91,1.78-.83.32-1.94,1.35,1.44,1.94-.29-1,1.72Zm3.15-17.21.64,2-2,.45-18.33-10.66-.64-2,2.06-.43Zm6.37-23.95,1.33-1.42,1.48,1.31.41,7.82-1.33,1.56-1.48-1.45Z"/>
        </g>
        <g id="Magic_Wand-2" data-name="Magic Wand">
          <g>
            <polygon class="cls-3" points="1001.67 804.19 1002.05 813.66 1010.83 817.2 1001.37 817.58 997.83 826.36 997.45 816.9 988.66 813.36 998.13 812.98 1001.67 804.19"/>
            <polygon class="cls-3" points="1015.63 826.59 1016.01 836.05 1024.8 839.59 1015.33 839.97 1011.79 848.76 1011.41 839.29 1002.63 835.75 1012.09 835.38 1015.63 826.59"/>
            <polygon class="cls-3" points="1002.15 838.53 1002.43 845.63 1009.02 848.28 1001.92 848.56 999.27 855.15 998.98 848.06 992.39 845.4 999.49 845.12 1002.15 838.53"/>
            <polygon class="cls-3" points="1007.58 819.49 1007.77 824.22 1012.17 825.99 1007.43 826.18 1005.66 830.57 1005.47 825.84 1001.08 824.07 1005.81 823.88 1007.58 819.49"/>
            <polygon class="cls-3" points="1020.53 818.88 1020.72 823.61 1025.12 825.38 1020.38 825.57 1018.61 829.96 1018.42 825.23 1014.03 823.46 1018.76 823.27 1020.53 818.88"/>
            <polygon class="cls-3" points="992.77 822.63 992.96 827.36 997.35 829.13 992.62 829.32 990.85 833.72 990.66 828.98 986.26 827.21 991 827.02 992.77 822.63"/>
          </g>
          <g>
            <path class="cls-3" d="M966.33,859.71l34.48-24.31,3-5.54-6.22.94-34.48,24.31Zm32-27.76,3.11-.47-1.49,2.77-5.75,4-2-.34.34-2Z"/>
            <polygon class="cls-3" points="960.79 856.73 942.4 869.69 941.72 873.61 945.64 874.29 964.03 861.33 960.79 856.73"/>
          </g>
        </g>
        <g id="Crosshair-3" data-name="Crosshair">
          <g>
            <circle class="cls-3" cx="988.51" cy="575.35" r="2.81"/>
            <path class="cls-3" d="M983.94,562a14.07,14.07,0,1,0,17.87,8.74A14.07,14.07,0,0,0,983.94,562Zm8.22,24a11.25,11.25,0,1,1,7-14.29A11.27,11.27,0,0,1,992.16,586Z"/>
            <path class="cls-3" d="M980.29,551.4a25.32,25.32,0,1,0,32.16,15.73A25.32,25.32,0,0,0,980.29,551.4Zm15.52,45.23a22.5,22.5,0,1,1,14-28.58A22.51,22.51,0,0,1,995.81,596.63Z"/>
          </g>
          <g>
            <polygon class="cls-3" points="987.59 572.68 971.32 542.59 981.97 538.94 987.59 572.68"/>
            <polygon class="cls-3" points="985.85 576.26 955.75 592.53 952.1 581.89 985.85 576.26"/>
            <polyline class="cls-3" points="989.42 578.01 1005.69 608.11 995.05 611.76 989.42 578.01"/>
            <polyline class="cls-3" points="991.17 574.43 1021.27 558.16 1024.92 568.8 991.17 574.43"/>
          </g>
        </g>
        <g id="Xbox_Buttons-3" data-name="Xbox Buttons">
          <path id="Button_Y-2" data-name="Button Y" class="cls-3" d="M1027.94,891.65a15.47,15.47,0,1,0,20,8.89A15.47,15.47,0,0,0,1027.94,891.65Zm8.3,15.43,3.32,8.62-4.13,1.59-3.31-8.62-9.68-6.31,2.42-3.7,7.71,5,2.35-8.9,4.27,1.13Z"/>
          <g id="Button_B-2" data-name="Button B">
            <rect class="cls-3" x="1017.38" y="939.13" width="5.52" height="5.52" transform="translate(-270.09 428.9) rotate(-21.03)"/>
            <rect class="cls-3" x="1014.52" y="933.65" width="2.21" height="2.21" transform="translate(-267.83 426.8) rotate(-21.03)"/>
            <path class="cls-3" d="M1013.4,924.36a15.47,15.47,0,1,0,20,8.89A15.48,15.48,0,0,0,1013.4,924.36Zm16,21.66-13.4,5.16-3.57-9.28-4-10.32,10.31-4,2.38,6.18,3.1-1.19Z"/>
          </g>
        </g>
        <g id="Hourglass">
          <path class="cls-3" d="M739.44,577l-41.06-9.73L700,585l9.4,15.23-15.24,9.4-9.36,15.13,41.05,9.72-1.58-17.72-9.4-15.23,15.23-9.4Zm-35.19-4,13,6,14.33.5-5.33,10.3-13.86,9.72-8-14.9ZM720,628.71l-27.37-6.49,2-2.41L705.15,618l6.3-14.4-.83,15.7,8.61,6.37Z"/>
          <g>
            <g>
              <rect class="cls-3" x="693.49" y="563.81" width="53.44" height="5.62" transform="translate(150.02 -150.76) rotate(13.33)"/>
              <rect class="cls-3" x="677.28" y="632.23" width="53.44" height="5.62" transform="translate(165.35 -145.18) rotate(13.33)"/>
            </g>
            <g>
              <rect class="cls-3" x="686.07" y="565.47" width="2.81" height="59.06" transform="translate(155.68 -142.45) rotate(13.33)"/>
              <rect class="cls-3" x="735.33" y="577.14" width="2.81" height="59.06" transform="translate(159.69 -153.49) rotate(13.33)"/>
            </g>
          </g>
        </g>
        <g id="Greande">
          <g>
            <polygon class="cls-3" points="886.96 705.66 879.3 709.2 873.3 699.58 883.52 694.86 886.96 705.66"/>
            <rect class="cls-3" x="869.25" y="683.93" width="11.25" height="11.25" transform="translate(-208.5 430.32) rotate(-24.79)"/>
            <polygon class="cls-3" points="876.44 679.54 866.23 684.26 862.79 673.45 870.45 669.91 876.44 679.54"/>
            <polygon class="cls-3" points="894.52 685.13 884.89 691.13 880.17 680.91 890.98 677.47 894.52 685.13"/>
            <polygon class="cls-3" points="889.8 674.92 879 678.36 873 668.74 876.83 666.97 888.03 671.09 889.8 674.92"/>
            <polygon class="cls-3" points="863.68 685.43 854.05 691.43 852.28 687.6 856.41 676.4 860.24 674.63 863.68 685.43"/>
            <polygon class="cls-3" points="869.57 698.2 858.77 701.64 855.23 693.98 864.86 687.99 869.57 698.2"/>
            <polygon class="cls-3" points="889.51 704.48 886.07 693.68 895.7 687.69 897.46 691.52 893.34 702.72 889.51 704.48"/>
            <polygon class="cls-3" points="876.74 710.38 872.91 712.15 861.72 708.02 859.95 704.2 870.75 700.75 876.74 710.38"/>
          </g>
          <polygon class="cls-3" points="875.65 664.41 855.23 673.85 854.24 665.01 869.56 657.93 875.65 664.41"/>
          <g>
            <path class="cls-3" d="M885.08,644.57a11.25,11.25,0,1,0,14.93,5.5A11.26,11.26,0,0,0,885.08,644.57Zm8.25,17.88a8.44,8.44,0,1,1,4.13-11.2A8.45,8.45,0,0,1,893.33,662.45Z"/>
            <g>
              <path class="cls-3" d="M890.79,660.3l-2.27-4.92-4.3-1.12a5.56,5.56,0,0,0,6.57,6Z"/>
              <path class="cls-3" d="M890.09,668.84l9.93,21.5,3.83-1.77-9.47-20.49A14,14,0,0,1,890.09,668.84Z"/>
              <path class="cls-3" d="M876,652.14l-6.83-1.77-17.88,8.25,1.77,3.83,15.32-7.07,7.59,1.87A13.93,13.93,0,0,1,876,652.14Z"/>
            </g>
          </g>
        </g>
        <g id="Fist">
          <polygon class="cls-3" points="872.51 773.74 878.56 769.23 884.59 772.27 891.39 770.03 898.16 775.33 906.47 773.85 912.48 780.66 922.3 779.94 926.05 787.5 923 797.3 916.92 809.35 913.13 813.12 907.85 812.34 905.23 808.18 909.94 793.03 910.19 788.96 908.17 792.31 901.83 807.42 898.05 809.29 893.53 807.01 892.41 803.61 895.11 789.09 895.11 785.13 893.17 788.55 889.02 802.85 886.74 805.48 881.46 804.71 878.84 800.55 882.35 784.94 882.3 780.56 880.18 784.39 875.44 799.78 871.66 801.66 867.9 797.87 869.46 783.54 872.51 773.74"/>
          <polygon class="cls-3" points="923.74 799.57 923.71 810.88 913.86 822.93 907.06 825.17 898.01 820.61 889.72 818.32 888.97 816.05 895.03 811.55 902.57 811.57 904.83 814.6 913.12 816.89 919.93 810.87 923.74 799.57"/>
          <polygon class="cls-3" points="869.48 775.99 864.19 779 867.18 788.06 867.2 782.4 869.48 775.99"/>
        </g>
        <path id="Pacman" class="cls-3" d="M864.05,546.66a31.82,31.82,0,1,0,14.83,28.15l-31.79-1.23Zm-27.89,14.7a4,4,0,1,1,5.37,1.66A4,4,0,0,1,836.16,561.36Zm35,17.13-.45,1.61a24.24,24.24,0,0,1-12.19,15.17l-1.23-2.34A21.58,21.58,0,0,0,867.64,581l-19.24-.75.1-2.65Z"/>
        <g id="WASD-2" data-name="WASD">
          <g>
            <polygon class="cls-3" points="956.57 341.82 951.54 354.95 956.8 356.96 961.74 355.84 963.75 350.59 960.51 343.32 956.57 341.82"/>
            <path class="cls-3" d="M976.81,342l-13.44-8.16L947.92,331l-13.18,26.57,16.57,7.85,17.57,5.22ZM964.68,360l-6.76,1.93-11.82-4.53,8-21,10.5,4,3.56,10.39Z"/>
          </g>
          <path class="cls-3" d="M937.41,327,924,318.8l-15.45-2.9-13.18,26.57,16.57,7.85,17.57,5.22Zm-11.7,13.23-1.17,3.69-10.87,1.84-8.45-7.42,3-3.27,7,6.51,4.88-1-10-11.57,1.17-3.69,10.87-1.84,8.45,7.42-3,3.27-7-6.51-4.88,1Z"/>
          <g>
            <polygon class="cls-3" points="874.36 320.09 881.25 322.72 880.33 314.8 874.36 320.09"/>
            <path class="cls-3" d="M898,311.88l-13.44-8.16-15.45-2.9-13.18,26.57,16.57,7.85,17.57,5.22Zm-15.67,20.35-.56-4.89-10.9-4.17-3.68,3.26-2.93-3.1,16.24-14.39,3.6,1.38,2.48,21.56Z"/>
          </g>
          <path class="cls-3" d="M950.48,292.81,937,284.65l-15.45-2.9-13.18,26.58L925,316.17l17.57,5.22Zm-16,20.08-3.89-1.34,1.18-13.18L923.87,309l-3.79-1.6,3.17-20.11,4.18.64-1.83,11.68,7.28-9.74,3.8,1.45-1.08,12.12,6.43-9.92,3.54,2.31Z"/>
        </g>
        <g id="Portal_Cube-2" data-name="Portal Cube">
          <g>
            <g>
              <path class="cls-3" d="M720.44,1024.19l5.22-13.3-20.94-8.23-8.23,21,13.3,5.22A22.55,22.55,0,0,1,720.44,1024.19Z"/>
              <path class="cls-3" d="M746,1043.07l13.3,5.22,8.23-20.94-20.95-8.23-5.22,13.3A22.51,22.51,0,0,1,746,1043.07Z"/>
            </g>
            <path class="cls-3" d="M737,1028.22l3.35-8.54-10.47-4.11-3.36,8.54a22.24,22.24,0,0,1,5.51,1.37A22.57,22.57,0,0,1,737,1028.22Z"/>
          </g>
        </g>
        <g id="UFO">
          <g>
            <path class="cls-3" d="M617.13,531.47c-2-5.88-21.53-4.45-43.54,3.18s-38.22,18.56-36.18,24.44c1,2.93,6.41,4,14.3,3.46l.91,10.25,2.8-.25-.91-10.26a140.81,140.81,0,0,0,51.17-17.73l5.63,8.63,2.35-1.54L608,543C614.6,538.61,618.15,534.4,617.13,531.47Zm-38,19.12c-11.74,4.07-21.67,6.18-22.18,4.71s8.6-6,20.34-10,21.67-6.18,22.18-4.71S590.85,546.52,579.11,550.59Z"/>
            <path class="cls-3" d="M569,521.36c-8.47,2.93-13.93,10.27-13.87,17.7A185.89,185.89,0,0,1,572.67,532a188.55,188.55,0,0,1,18.16-5.31C586.29,520.81,577.46,518.42,569,521.36Zm-2.55,9.81a2.81,2.81,0,1,1,1.74-3.58A2.81,2.81,0,0,1,566.43,531.17Zm10.63-3.68a2.81,2.81,0,1,1,1.74-3.58A2.81,2.81,0,0,1,577.06,527.49Z"/>
          </g>
          <g>
            <rect class="cls-3" x="577.63" y="561.14" width="11.25" height="2.81" transform="matrix(0.94, -0.33, 0.33, 0.94, -152.01, 221.92)"/>
            <rect class="cls-3" x="573.85" y="566.46" width="22.5" height="2.81" transform="translate(-153.65 222.81) rotate(-19.11)"/>
            <rect class="cls-3" x="570.06" y="571.77" width="33.75" height="2.81" transform="translate(-155.29 223.71) rotate(-19.11)"/>
            <rect class="cls-3" x="566.28" y="577.09" width="45" height="2.81" transform="translate(-156.93 224.6) rotate(-19.11)"/>
            <rect class="cls-3" x="562.49" y="582.4" width="56.25" height="2.81" transform="translate(-158.57 225.5) rotate(-19.11)"/>
          </g>
        </g>
        <path id="Black_Mesa" data-name="Black Mesa" class="cls-3" d="M686.32,879.84a33.75,33.75,0,1,0,13.86,45.67A33.75,33.75,0,0,0,686.32,879.84Zm-2.65,5a28.08,28.08,0,0,1,1.54,48.69l-2.4-17.26L660.49,904.3l-9.28,17.36-7.78-4.15a28.12,28.12,0,0,1,40.24-32.71Z"/>
        <g id="Sharingan-3" data-name="Sharingan">
          <g>
            <path class="cls-3" d="M1029.47,449.94a11.25,11.25,0,1,0,12.67,2.63l1.62-1.61,4.44,0,2.67.9-2.21-2.23-6.22-3.58-6.23.86Z"/>
            <path class="cls-3" d="M1005.8,488.78a11.26,11.26,0,1,0-4.06-12.29l-2.19-.6L997.34,472l-.55-2.76-.83,3v7.17l3.87,5Z"/>
          </g>
          <g>
            <path class="cls-3" d="M1026.54,492.31a17.22,17.22,0,0,1-3.18-.74,19.09,19.09,0,0,1-2.17-.92,13.09,13.09,0,0,1-2.81,1.64,19.2,19.2,0,0,0,9.57,3A13.68,13.68,0,0,1,1026.54,492.31Z"/>
            <path class="cls-3" d="M1020,461.15a13.57,13.57,0,0,1,.29-3.34,19.6,19.6,0,0,0-9.11,8.91,13.31,13.31,0,0,1,3.27-.09A16.7,16.7,0,0,1,1020,461.15Z"/>
          </g>
        </g>
        <g id="Joystick-2" data-name="Joystick">
          <path class="cls-3" d="M1035.85,652.62a11.24,11.24,0,0,0-10.73,19.56l-9.93,25.2a2.81,2.81,0,1,0,5.23,2.06l9.93-25.2a11.24,11.24,0,0,0,5.5-21.62Z"/>
          <g>
            <path class="cls-3" d="M1006,693.77a12.66,12.66,0,1,0,23.08-1l-3.45,8.76a8.44,8.44,0,1,1-15.7-6.18l3.45-8.76A12.6,12.6,0,0,0,1006,693.77Z"/>
            <path class="cls-3" d="M1044.37,684.69l-10.47-4.12-2.89,7.35a16.87,16.87,0,1,1-15.7-6.19l2.89-7.35-10.46-4.12-7.3,3.17-18.64,32,3.18,7.3,47.1,18.56,7.29-3.17,8.17-36.08ZM990.45,710.3a4.22,4.22,0,1,1,5.47-2.38A4.21,4.21,0,0,1,990.45,710.3Zm39.25,15.47a4.22,4.22,0,1,1,5.47-2.38A4.23,4.23,0,0,1,1029.7,725.77Z"/>
          </g>
        </g>
        <path id="Anonimus" class="cls-3" d="M775.85,834.65l-28,14.25,11.76,30.74,20.76,22L802.53,909l-7.77-11.12.36-3.67,6.15-2.35,2.71,2.49,1.63,13.47,11.61-20.3L818,857.3l-11.76-30.74Zm-14.69,21.48,8.05-6.6,9.45,1.67.22,5.2L771,854.14l-7.68,2.94-4.39,7Zm9.09,5.33,8.86.14-5.92,7.55-9.45-1.67ZM806,881.26l-7.68,2.94-4.25-1.9-1.9,4.25L783,890.08,769,881.31l13.7,3.57,4.61-1.77,3.44-4.83,3.07-1.18,5.79,1.31,4.61-1.76,7.82-11.8Zm-5.16-22.7-9.44-1.67,6.5-6,8.87.13ZM800.17,843l-7.68,2.94-4.39,7-3.3-4,5.92-7.55,10.4-.46,7,4.39Z"/>
        <g id="Tetris-2" data-name="Tetris">
          <path class="cls-3" d="M541.63,967.59l25.46,62.52,41.68-17-25.46-62.51Zm38.65,42.72-4.55,1.85,1.85,4.56-3.9,1.59-1.86-4.55-4.56,1.85-1.59-3.9,4.56-1.86-1.86-4.56,3.91-1.59,1.85,4.56,4.56-1.86Zm9.63-6.2a2.81,2.81,0,1,1,1.54-3.66A2.81,2.81,0,0,1,589.91,1004.11Zm7.33,3.09a2.81,2.81,0,1,1,1.54-3.67A2.82,2.82,0,0,1,597.24,1007.2Zm-4.29-18-31.26,12.73L549,970.68,580.22,958Z"/>
          <polygon class="cls-3" points="564.78 994.61 585.62 986.12 577.13 965.28 564.78 994.61"/>
        </g>
      </g>
    </g>
  </g>
  <g id="Gamepad-2" data-name="Gamepad">
    <g id="Play_Button_with_Shadow" data-name="Play Button with Shadow">
      <path id="Play_Button_Shadow" data-name="Play Button Shadow" class="cls-4" d="M616,728l-96-32-96,32-32,80,32,80,96,32,96-32,32-80ZM480,864V752l112,56Z"/>
      <path id="Play_Button" data-name="Play Button" class="cls-5" d="M600,712l-96-32-96,32-32,80,32,80,96,32,96-32,32-80ZM464,848V736l65.33,32.67L576,792Z"/>
    </g>
    <g id="Cable_with_Shadow" data-name="Cable with Shadow">
      <path id="Cable_Shadow" data-name="Cable Shadow" class="cls-6" d="M504,268c0-48-39.42-62.87-28-80,32-48,43.71,26.59,106.26-1.84,88-40,120,8,128-32,4.85-24.26-23.71-40.8-64-64-41.66-24-55.57,2.24-80,16-38,21.42-55.88-21.63-96,0-73.78,39.77-72.73,75.52-120,72-33.69-2.51-72-8-64-48,6.08-30.39,56,8,104-56,21.47-28.62,60.09-32,80-32,9,0,20.59,0,29-7.18C508.89,26.72,512.5,10.72,512-4"/>
      <path id="Cable" class="cls-7" d="M500,264c0-48-39.42-62.87-28-80,32-48,43.71,26.59,106.27-1.84,88-40,120,8,128-32,4.85-24.26-23.71-40.8-64-64-41.66-24-55.58,2.24-80,16-38,21.42-55.89-21.63-96,0-73.79,39.77-72.74,75.52-120,72-33.7-2.51-72-8-64-48,6.07-30.39,56,8,104-56,21.46-28.62,60.09-32,80-32,9,0,20.59,0,29-7.18C504.88,22.72,508.49,6.72,508-8"/>
    </g>
    <g id="Gamepad_Shadow" data-name="Gamepad Shadow">
      <polygon id="Cable_Connector" data-name="Cable Connector" class="cls-8" points="476 300 492 284 556 284 572 300 524 300 476 300"/>
      <g id="Bumper_Buttons" data-name="Bumper Buttons">
        <polygon class="cls-9" points="236 316 236 348 380 284 364 268 236 316"/>
        <polygon class="cls-9" points="684 268 668 284 812 348 812 316 684 268"/>
      </g>
      <polygon id="Base" class="cls-9" points="524 300 396 268 220 348 140 652 172 748 268 716 364 604 524 572 684 604 780 716 876 748 908 652 828 348 652 268 524 300"/>
    </g>
    <g id="Gamepad-3" data-name="Gamepad">
      <polygon id="Cable_Connector-2" data-name="Cable Connector" class="cls-10" points="452 276 468 260 532 260 548 276 500 276 452 276"/>
      <g id="Bumper_Buttons-2" data-name="Bumper Buttons">
        <polygon class="cls-10" points="212 292 212 324 356 260 340 244 212 292"/>
        <polygon class="cls-10" points="660 244 644 260 788 324 788 292 660 244"/>
      </g>
      <polygon id="Base-2" data-name="Base" class="cls-11" points="500 276 372 244 196 324 116 628 148 724 244 692 340 580 500 548 660 580 756 692 852 724 884 628 804 324 628 244 500 276"/>
      <g id="Buttons_with_Shadow" data-name="Buttons with Shadow">
        <g id="Buttons_Shadow" data-name="Buttons Shadow">
          <g id="Action_Buttons" data-name="Action Buttons">
            <circle class="cls-4" cx="716" cy="348" r="24"/>
            <circle class="cls-4" cx="716" cy="444" r="24"/>
            <circle class="cls-4" cx="668" cy="396" r="24"/>
            <circle class="cls-4" cx="764" cy="396" r="24"/>
          </g>
          <polygon id="Arrows" class="cls-4" points="460 476 432 472 428 444 396 444 392 472 364 476 364 508 392 512 396 540 428 540 432 512 460 508 460 476"/>
          <g id="Control_Buttons" data-name="Control Buttons">
            <rect class="cls-4" x="428" y="348" width="48" height="16"/>
            <rect class="cls-4" x="540" y="348" width="48" height="16"/>
          </g>
        </g>
        <g id="Buttons">
          <g id="Action_Buttons-2" data-name="Action Buttons">
            <circle class="cls-12" cx="708" cy="340" r="24"/>
            <circle class="cls-13" cx="708" cy="436" r="24"/>
            <circle class="cls-14" cx="660" cy="388" r="24"/>
            <circle class="cls-5" cx="756" cy="388" r="24"/>
          </g>
          <g id="Sticks_Base_with_Shadow" data-name="Sticks Base with Shadow">
            <g id="Sticks_Base" data-name="Sticks Base">
              <circle class="cls-15" cx="596" cy="484" r="48"/>
              <circle class="cls-15" cx="292" cy="388" r="48"/>
            </g>
            <g id="Sticks_Base_Shadow" data-name="Sticks Base Shadow">
              <path d="M604,444a47.55,47.55,0,0,1,29.56,10.44,47.83,47.83,0,1,0-67.12,67.12A47.76,47.76,0,0,1,604,444Z"/>
              <path d="M300,348a47.55,47.55,0,0,1,29.56,10.44,47.83,47.83,0,1,0-67.12,67.12A47.76,47.76,0,0,1,300,348Z"/>
            </g>
          </g>
          <g id="Sticks_with_Shadow" data-name="Sticks with Shadow">
            <g id="Sticks_Shadow" data-name="Sticks Shadow">
              <circle class="cls-4" cx="604" cy="492" r="32"/>
              <circle class="cls-4" cx="300" cy="396" r="32"/>
            </g>
            <g id="Sticks">
              <circle class="cls-10" cx="596" cy="484" r="32"/>
              <circle class="cls-10" cx="292" cy="388" r="32"/>
            </g>
          </g>
          <polygon id="Arrows-2" data-name="Arrows" class="cls-10" points="452 468 424 464 420 436 388 436 384 464 356 468 356 500 384 504 388 532 420 532 424 504 452 500 452 468"/>
          <g id="Control_Buttons-2" data-name="Control Buttons">
            <rect class="cls-10" x="420" y="340" width="48" height="16"/>
            <rect class="cls-10" x="532" y="340" width="48" height="16"/>
          </g>
        </g>
      </g>
    </g>
  </g>
</svg>
