<svg xmlns="http://www.w3.org/2000/svg" viewBox="0 0 1536 1024">
  <defs>
    <style>
      .cls-1 {
        fill: #ffc800;
      }

      .cls-2 {
        opacity: 0.25;
      }

      .cls-3 {
        fill: #1d1d1b;
      }

      .cls-10, .cls-11, .cls-12, .cls-13, .cls-14, .cls-15, .cls-4, .cls-5, .cls-6, .cls-9 {
        stroke: #000;
      }

      .cls-10, .cls-11, .cls-12, .cls-13, .cls-14, .cls-15, .cls-4, .cls-5, .cls-6, .cls-7, .cls-8, .cls-9 {
        stroke-miterlimit: 10;
      }

      .cls-4, .cls-7 {
        stroke-width: 10px;
      }

      .cls-5 {
        fill: #ff0032;
      }

      .cls-10, .cls-11, .cls-12, .cls-13, .cls-14, .cls-15, .cls-5 {
        stroke-width: 5px;
      }

      .cls-6, .cls-7 {
        fill: none;
      }

      .cls-6 {
        stroke-width: 15px;
      }

      .cls-7 {
        stroke: #ff0032;
      }

      .cls-8 {
        stroke: #1d1d1b;
      }

      .cls-8, .cls-9 {
        stroke-width: 0.25px;
      }

      .cls-10 {
        fill: #969696;
      }

      .cls-11 {
        fill: #fff;
      }

      .cls-12 {
        fill: #ff0;
      }

      .cls-13 {
        fill: #64e100;
      }

      .cls-14 {
        fill: #0096ff;
      }

      .cls-15 {
        fill: #c8c8c8;
      }
    </style>
  </defs>
  <g id="Background">
    <rect id="Background-2" data-name="Background" class="cls-1" width="1536" height="1024"/>
  </g>
  <g id="Pattern">
    <g id="Pattern-2" data-name="Pattern" class="cls-2">
      <g id="_1_1" data-name="1_1">
        <g id="Rocket">
          <polygon class="cls-3" points="153.91 522.61 149.58 522.22 147.29 518.52 135.57 522.7 133.22 548.66 155.4 534.97 153.91 522.61"/>
          <path class="cls-3" d="M177.24,477.51l15.7,3.72,7.45-19-1.74-19.35L180.56,450l-13.65,15.13Zm11.65-18.83a7.68,7.68,0,1,1-10.57,2.49A7.68,7.68,0,0,1,188.89,458.68Z"/>
          <polygon class="cls-3" points="165.72 518.29 192.07 485.02 175.08 481 163.9 467.59 145.9 505.97 145.8 506.18 152.65 517.26 165.62 518.44 165.72 518.29"/>
          <g>
            <polygon class="cls-3" points="142.41 504.28 157.57 471.95 138.08 485.4 122.11 507.51 122.59 521.52 139.32 510.45 142.41 504.28"/>
            <polygon class="cls-3" points="191 492.63 168.8 520.67 164.69 526.15 162.25 546.06 175 540.23 187.66 516.07 191 492.63"/>
          </g>
        </g>
        <path id="Gamepad" class="cls-3" d="M589.88,520.89l-21.71.48-13.85,9.24-16.63-.91-18.93,10.63L518,584.21l7.09,12.63,10.46-8.32,8.15-16.79,19.4-8.94,21.24-2.17,15.56,10.31,13.24,1.84-.32-14.48Zm-56.33,33.6a7,7,0,1,1,4.92-8.62A7,7,0,0,1,533.55,554.49Zm22.63,2.91-4,2,.31,4.46-3.38.93-2-4-4.46.31-.93-3.39,4-2-.31-4.47,3.39-.92,2,4,4.47-.31ZM553.25,540l-6.77,1.85-.93-3.39,6.77-1.85Zm27.17-13.8a3.51,3.51,0,1,1-2.47,4.31A3.51,3.51,0,0,1,580.42,526.21Zm-21.32,8.56,6.77-1.85.93,3.38L560,538.16Zm15.41,23.08a7,7,0,1,1,4.92-8.62A7,7,0,0,1,574.51,557.85ZM578,540.53a3.51,3.51,0,1,1,2.46-4.31A3.51,3.51,0,0,1,578,540.53Zm7.55,4.31a3.51,3.51,0,1,1,2.46-4.31A3.52,3.52,0,0,1,585.51,544.84Zm4.3-7.55a3.51,3.51,0,1,1,2.46-4.31A3.51,3.51,0,0,1,589.81,537.29Z"/>
        <g id="Disk">
          <path class="cls-3" d="M409.54,315.22A33.75,33.75,0,1,0,443.29,349,33.76,33.76,0,0,0,409.54,315.22ZM392.75,375a31.17,31.17,0,0,1-9.19-9.18l13.9-9.62a14,14,0,0,0,4.91,4.9Zm16.79-14.73A11.25,11.25,0,1,1,420.79,349,11.25,11.25,0,0,1,409.54,360.22Zm12.08-18.42a14,14,0,0,0-4.91-4.9l9.62-13.9a31.05,31.05,0,0,1,9.19,9.18Z"/>
          <circle class="cls-3" cx="409.54" cy="348.97" r="5.62"/>
        </g>
        <g>
          <path id="Shield" class="cls-3" d="M448.7,87.32l-30.56,4.35-5.6,40.2,10.91,18,19.86-4.13,24.38-34.13ZM442.09,115,425,146l9.24-34.18-10.16-8.65,12.79,2.13,9.17-11.46-1.35,14.62,10.69,7.34Z"/>
          <g id="Sword">
            <polygon class="cls-3" points="392.45 125.28 387.44 141.46 390.05 142.51 397.66 127.38 392.45 125.28"/>
            <polygon class="cls-3" points="388.28 120.57 403.93 126.88 407.59 125.32 386.73 116.91 388.28 120.57"/>
            <polygon class="cls-3" points="393 116.4 403.43 120.61 417.65 77.83 418.2 68.95 411.38 78.33 393 116.4"/>
          </g>
        </g>
        <g id="Bow">
          <polygon class="cls-3" points="43 -11.79 49.36 -24.8 34.95 -23.33 40.02 -20 -12.59 16.67 -18.46 15.62 -27.69 22.06 -19.86 23.45 -21.25 31.28 -12.03 24.85 -10.98 18.98 41.63 -17.7 43 -11.79"/>
          <g>
            <polygon class="cls-3" points="40.23 -13.3 46.88 6.07 43.95 33.83 40.31 8.94 32.16 -7.67 40.23 -13.3"/>
            <g>
              <line class="cls-3" x1="-8.91" y1="24.4" x2="40.27" y2="26.1"/>
              <rect class="cls-3" x="14.98" y="0.64" width="1.41" height="49.22" transform="translate(-10.11 40.02) rotate(-87.97)"/>
            </g>
          </g>
        </g>
        <path id="Keyboard" class="cls-3" d="M-66.22,281.24l33.49,58.62L104,261.73,70.54,203.12ZM7.4,245.67l9.76-5.58,5.58,9.77L13,255.44Zm11.5,25.82-5.58-9.77,9.77-5.58,5.58,9.77Zm3.84,1,5.58,9.77-9.77,5.58L13,278.12ZM-4.82,252.65,5,247.07l5.58,9.77L.77,262.42Zm5.93,16,9.77-5.58,5.58,9.77-9.77,5.58Zm9.42,10.82,5.58,9.77-9.77,5.58L.76,285.09Zm-30-18.49,9.77-5.58,5.58,9.77-9.77,5.58Zm8.37,14.65,9.77-5.58,5.58,9.77-9.77,5.58Zm9.42,10.82,5.58,9.76-9.77,5.58-5.58-9.76Zm-30-18.5,9.77-5.58,5.58,9.77-9.77,5.58Zm8.37,14.66,9.77-5.58L-8,286.83l-9.77,5.58Zm9.42,10.81,5.58,9.77-9.77,5.58L-23.66,299Zm-30-18.49,9.77-5.58,5.58,9.77-9.77,5.58Zm8.37,14.65,9.77-5.58,5.58,9.77-9.77,5.58Zm-23-6.28,9.77-5.58,5.58,9.77L-53,293.11ZM-50.17,298-38,291l5.58,9.76-12.21,7Zm7,12.21,17.1-9.76,5.58,9.76L-37.62,320Zm22.33,16.4-9.77,5.58-5.58-9.77,9.77-5.58Zm12.21-7-9.77,5.58L-24,315.44l9.77-5.58Zm41.51-23.72L-6.22,318.23l-5.58-9.77,39.07-22.32Zm12.22-7-9.77,5.58-5.58-9.76,9.77-5.58Zm12.21-7-9.77,5.58-5.58-9.77,9.77-5.58Zm-7-12.21L30.76,280.91l-5.58-9.77L44.72,260Zm-7-12.21-12.22,7-5.58-9.77,12.21-7ZM35,242.88l-9.76,5.58-5.58-9.76,9.76-5.58Zm37,30.71-9.77,5.58-5.58-9.77,9.77-5.58ZM58,249.17l-9.77,5.58L42.63,245l9.77-5.58Zm-8.37-14.66-9.77,5.58-5.58-9.76L44,224.75Zm34.53,32.1-9.77,5.58-5.58-9.77,9.77-5.58Zm-7-12.21L67.4,260l-5.59-9.77,9.77-5.58Zm-7-12.21-9.77,5.58L54.84,238l9.77-5.58Zm-8.37-14.65-9.77,5.58-5.58-9.77,9.77-5.58Zm34.53,32.1-9.77,5.58L81,255.45l9.77-5.58ZM82.4,235.22l-9.77,5.58L67.05,231l9.77-5.58ZM74,220.56l-9.77,5.58-5.58-9.77,9.77-5.58Z"/>
        <path id="Mouse" class="cls-3" d="M663.73,425.27l-10.63-3.69-20,2L620.38,477.2,634,493.83l21-4.63,23.31-50Zm-9.36,1.21,5.32,1.85-5.54,15.94-5.31-1.85Zm-2.65-.92-12,34.54-9.24-7.68,5.65-24.83Zm10.64,37.94-12,.29,12-34.54,11,11.26Z"/>
        <g id="Screen">
          <polygon class="cls-3" points="480.24 741.96 480.63 740.61 459.76 731.72 448.95 728.63 426.54 725.15 426.16 726.5 480.24 741.96"/>
          <rect class="cls-3" x="450.54" y="715.76" width="12.66" height="11.25" transform="translate(-362.32 962.34) rotate(-74.04)"/>
          <g>
            <path class="cls-3" d="M504.2,678.61l-64.9-18.56-17.78,41.72,75.72,21.65Zm-75.72,19.3,12.75-34.38,59.5,17-7.35,35.93Z"/>
            <polygon class="cls-3" points="436.4 695.79 495.9 682.09 488.17 709.13 436.4 695.79"/>
          </g>
        </g>
        <g id="Knight">
          <path class="cls-3" d="M180,622.17l-45.55,5.13-13.33,49.51,9.29,23.47L159.19,696l32.64-36.71ZM143,630.07l27.09-1.18-20.56,33.28-15.7-4.67Zm-2.47,55.55L128.5,670.77l31.9,15.73Zm26.75-11.53-10.68-10,18.14-32.59,10,25.89Z"/>
          <ellipse class="cls-3" cx="153.97" cy="643.28" rx="6.22" ry="2.66" transform="translate(-482.96 464.87) rotate(-60.89)"/>
          <ellipse class="cls-3" cx="168.97" cy="654.68" rx="7.1" ry="3.55" transform="translate(-485.22 483.83) rotate(-60.89)"/>
          <polygon class="cls-3" points="172.97 618.28 143.38 622.14 170.82 613.02 172.97 618.28"/>
          <polygon class="cls-3" points="193.04 649.79 186.85 628.04 190.82 628.22 193.04 649.79"/>
        </g>
        <path id="GG" class="cls-3" d="M254.78,534.88l-11,16.6,6.86,54.58,55.64-15.69,8.77-13.28-7.43-57.33Zm20.45,8.74-11.84,5.29-5.13,24,5.57,13.21,6.61-2.79.78-10.2-5-3.29,1.63-6.08,10.21.79-.72,24.55-19.54,9.73L250,574.62l6.76-30.09L273.25,534Zm19.28-4-5.13,24L295,576.9l6.61-2.78.78-10.21-5-3.29,1.63-6.07,10.21.78-.72,24.55-19.54,9.74-7.83-24.24,6.77-30.09,16.5-10.55,2,9.64Z"/>
        <path id="GLHF" class="cls-3" d="M670.52-13.65l-8,18.21,16,52.64,47-22.81L735,12.55l-14.94-50ZM680-12.52l15.71-10-.08,3.67L685-11.31l-4.73,15,6,3.71,8.66-4.88-.22-4.44-5.75.73-.22-4.44,10.71.36.14,12-14.7,8.74L672.93,8.05Zm13.46,57.85.36-10.71-6,3.86-.87,9.4-4.74,3.35-1.82-28L689,18.39l-.65,13.83,6-3.86.65-13.83,4.73-3.36,1,29.78ZM723.09,5.12,710.5,11.54l.73,5.75,8.66-4.88L717.2,21l-6,3.86.15,12-6,3.86L703.73,9.64,724.47-3ZM724.25-7.4,703.51,5.2,703-23.27l8.15-6.19L709.62-6.23l12.08-7.72Z"/>
        <g id="Camera">
          <path class="cls-3" d="M173.78-66l-8.71-5.18-12.69,6.07-1.43,10L129.38-44.76l-2.64,7.5,17,35.52L151.24.9,202-23.38l2.64-7.5-17-35.52L180.12-69Zm8,46.06a19.7,19.7,0,0,1-26.26-9.26,19.7,19.7,0,0,1,9.26-26.26,19.69,19.69,0,0,1,26.26,9.26A19.69,19.69,0,0,1,181.79-19.95ZM150.73-42.51A2.81,2.81,0,0,1,147-43.83a2.81,2.81,0,0,1,1.32-3.75,2.81,2.81,0,0,1,3.75,1.32A2.81,2.81,0,0,1,150.73-42.51Z"/>
        </g>
        <g id="Magic_Wand" data-name="Magic Wand">
          <g>
            <polygon class="cls-3" points="297.67 324.19 298.05 333.66 306.83 337.2 297.37 337.58 293.83 346.36 293.45 336.9 284.66 333.36 294.13 332.98 297.67 324.19"/>
            <polygon class="cls-3" points="311.63 346.59 312.01 356.05 320.8 359.59 311.33 359.97 307.79 368.76 307.41 359.3 298.63 355.75 308.09 355.38 311.63 346.59"/>
            <polygon class="cls-3" points="298.15 358.53 298.43 365.63 305.02 368.28 297.92 368.56 295.27 375.15 294.98 368.06 288.39 365.4 295.49 365.12 298.15 358.53"/>
            <polygon class="cls-3" points="303.58 339.49 303.77 344.22 308.17 345.99 303.43 346.18 301.66 350.57 301.47 345.84 297.08 344.07 301.81 343.88 303.58 339.49"/>
            <polygon class="cls-3" points="316.53 338.88 316.72 343.61 321.12 345.38 316.38 345.57 314.62 349.96 314.43 345.23 310.03 343.46 314.76 343.27 316.53 338.88"/>
            <polygon class="cls-3" points="288.77 342.63 288.96 347.36 293.35 349.13 288.62 349.32 286.85 353.72 286.66 348.98 282.26 347.21 287 347.02 288.77 342.63"/>
          </g>
          <g>
            <path class="cls-3" d="M262.33,379.71l34.48-24.31,3-5.54-6.22.94-34.48,24.31ZM294.38,352l3.11-.47L296,354.25l-5.75,4.05-2-.34.34-2Z"/>
            <polygon class="cls-3" points="256.79 376.73 238.4 389.69 237.72 393.61 241.64 394.29 260.03 381.33 256.79 376.73"/>
          </g>
        </g>
        <g id="Crosshair">
          <g>
            <circle class="cls-3" cx="284.51" cy="95.35" r="2.81"/>
            <path class="cls-3" d="M279.94,82a14.07,14.07,0,1,0,17.87,8.74A14.07,14.07,0,0,0,279.94,82ZM288.16,106a11.25,11.25,0,1,1,7-14.29A11.27,11.27,0,0,1,288.16,106Z"/>
            <path class="cls-3" d="M276.29,71.4a25.32,25.32,0,1,0,32.16,15.73A25.32,25.32,0,0,0,276.29,71.4Zm15.52,45.23a22.5,22.5,0,1,1,14-28.58A22.51,22.51,0,0,1,291.81,116.63Z"/>
          </g>
          <g>
            <polygon class="cls-3" points="283.59 92.69 267.32 62.59 277.96 58.94 283.59 92.69"/>
            <polygon class="cls-3" points="281.85 96.26 251.75 112.53 248.1 101.89 281.85 96.26"/>
            <polyline class="cls-3" points="285.42 98.01 301.69 128.11 291.05 131.76 285.42 98.01"/>
            <polyline class="cls-3" points="287.17 94.43 317.27 78.16 320.92 88.81 287.17 94.43"/>
          </g>
        </g>
        <g id="Xbox_Buttons" data-name="Xbox Buttons">
          <path class="cls-3" d="M356.65,426.19a15.47,15.47,0,1,0,20,8.89A15.47,15.47,0,0,0,356.65,426.19Zm16.43,19.07-2.46,3.67-7-4.72-2.06,8.22-4.28-1.08,2.44-9.75-8.35-5.6,2.46-3.66,7,4.71,2.06-8.21,4.28,1.07-2.45,9.75Z"/>
          <path id="Button_Y" data-name="Button Y" class="cls-3" d="M323.94,411.65a15.47,15.47,0,1,0,20,8.89A15.47,15.47,0,0,0,323.94,411.65Zm8.3,15.43,3.32,8.62-4.13,1.59-3.31-8.62-9.68-6.31,2.42-3.7,7.71,5,2.35-8.9,4.27,1.13Z"/>
          <g id="Button_B" data-name="Button B">
            <rect class="cls-3" x="313.38" y="459.13" width="5.52" height="5.52" transform="translate(-144.72 144.24) rotate(-21.03)"/>
            <rect class="cls-3" x="310.52" y="453.65" width="2.21" height="2.21" transform="translate(-142.46 142.15) rotate(-21.03)"/>
            <path class="cls-3" d="M309.4,444.36a15.47,15.47,0,1,0,20,8.89A15.48,15.48,0,0,0,309.4,444.36Zm16,21.66L312,471.18l-3.57-9.28-4-10.32,10.31-4,2.38,6.18,3.1-1.19Z"/>
          </g>
          <g id="Button_A" data-name="Button A">
            <path class="cls-3" d="M342.11,458.9a15.47,15.47,0,1,0,20,8.89A15.47,15.47,0,0,0,342.11,458.9Zm14.51,21.92-3.37-3.71L346,479.88v5h-4.42l.08-21.34,3.84-1.48,14.36,15.79Z"/>
            <polygon class="cls-3" points="346.06 475.14 350.06 473.61 346.08 469.24 346.06 475.14"/>
          </g>
        </g>
        <g id="Hourglass">
          <path class="cls-3" d="M35.44,97-5.62,87.23-4,105l9.4,15.24-15.24,9.39-9.36,15.13,41.05,9.72-1.58-17.72-9.4-15.23,15.23-9.4ZM.25,93l13,6,14.33.5-5.33,10.3L8.43,119.46l-8-14.9ZM16,148.71l-27.37-6.49,2-2.41L1.15,138l6.3-14.4-.82,15.7,8.6,6.37Z"/>
          <g>
            <g>
              <rect class="cls-3" x="-10.51" y="83.81" width="53.44" height="5.62" transform="translate(20.41 -1.4) rotate(13.33)"/>
              <rect class="cls-3" x="-26.72" y="152.23" width="53.44" height="5.62" transform="translate(35.74 4.18) rotate(13.33)"/>
            </g>
            <rect class="cls-3" x="31.33" y="97.14" width="2.81" height="59.06" transform="translate(30.08 -4.13) rotate(13.33)"/>
          </g>
        </g>
        <g id="Thumbs_Up" data-name="Thumbs Up">
          <polygon class="cls-3" points="415.63 256.8 427.97 265.59 430.85 280.46 440.31 274.37 437.44 259.5 425.1 250.72 415.63 256.8"/>
          <path class="cls-3" d="M478.16,226.63l-4.65-2-1.86-5.49-5.83-1.26L452.05,225l-5.83-1.27-4.06-14.11-5-5.15-4.31,1.1,1.86,5.49,2.11,13.69-4.22,19.43-4,4.23L441,257.22l2.88,14.87L471,259.67l6.76-7.69.08-5.07,2.79-3.46.51-7-3.47-2.79Zm-16.66-.91,2,2-4.7,4.65-2-2Zm-12.36,34.09L440.75,241l9.52-10.12,9.33,8.2-4.16,19.15Zm17-8.07-4.29.21-.14-2.81,4.29-.21Zm3.54-8.75-5.94,1.16-.54-2.76,5.94-1.16Zm-.84-8.65-5.3,3.37-1.5-2.38,5.29-3.36Z"/>
        </g>
        <g id="Greande">
          <g>
            <polygon class="cls-3" points="182.96 225.66 175.3 229.2 169.3 219.58 179.52 214.86 182.96 225.66"/>
            <rect class="cls-3" x="165.25" y="203.93" width="11.25" height="11.25" transform="translate(-72.12 90.95) rotate(-24.79)"/>
            <polygon class="cls-3" points="172.44 199.54 162.23 204.26 158.79 193.45 166.45 189.91 172.44 199.54"/>
            <polygon class="cls-3" points="190.52 205.13 180.89 211.13 176.18 200.91 186.98 197.47 190.52 205.13"/>
            <polygon class="cls-3" points="185.8 194.92 175 198.36 169 188.74 172.83 186.97 184.03 191.09 185.8 194.92"/>
            <polygon class="cls-3" points="159.68 205.44 150.05 211.43 148.28 207.6 152.41 196.4 156.24 194.63 159.68 205.44"/>
            <polygon class="cls-3" points="165.57 218.2 154.77 221.64 151.23 213.98 160.85 207.99 165.57 218.2"/>
            <polygon class="cls-3" points="185.51 224.48 182.07 213.68 191.69 207.69 193.46 211.52 189.34 222.72 185.51 224.48"/>
            <polygon class="cls-3" points="172.74 230.38 168.91 232.15 157.72 228.03 155.95 224.19 166.75 220.75 172.74 230.38"/>
          </g>
          <polygon class="cls-3" points="171.65 184.41 151.23 193.85 150.24 185.01 165.56 177.93 171.65 184.41"/>
          <g>
            <path class="cls-3" d="M181.08,164.57a11.25,11.25,0,1,0,14.93,5.5A11.26,11.26,0,0,0,181.08,164.57Zm8.25,17.88a8.44,8.44,0,1,1,4.13-11.2A8.43,8.43,0,0,1,189.33,182.45Z"/>
            <g>
              <path class="cls-3" d="M186.79,180.3l-2.27-4.92-4.3-1.12a5.56,5.56,0,0,0,6.57,6Z"/>
              <path class="cls-3" d="M186.09,188.84l9.93,21.5,3.83-1.77-9.47-20.49A14,14,0,0,1,186.09,188.84Z"/>
              <path class="cls-3" d="M172,172.14l-6.83-1.77-17.87,8.25,1.76,3.83,15.32-7.07,7.59,1.87A13.93,13.93,0,0,1,172,172.14Z"/>
            </g>
          </g>
        </g>
        <g id="Map">
          <g>
            <polygon class="cls-3" points="514.18 449.77 514.46 452.46 514.88 456.59 515.46 462.29 506.57 461.93 514.18 449.77"/>
            <polygon class="cls-3" points="493.78 503.7 503.52 493.85 496.12 489.55 493.78 503.7"/>
          </g>
          <path class="cls-3" d="M498.15,472.28,513.36,448,477.53,431.4l-25.66-3.7L439.28,453l-7,30.43,23.36,5.83,35.83,16.56Zm-21.39-29.42,3.81,4.13-2.06,1.91-3.82-4.14ZM474.62,464l5.21,3.53-1.58,2.33-4.09-2.78-4.73,1.46-.83-2.68ZM463.73,436l9,3.4-1,2.63-9-3.4Zm-5.54-.65,1.16,2.57-4.47,2-1.28,6.46,4.16,1.37-.88,2.67-6.53-2.15,2.06-10.32Zm-9.39,21.56,6.22.44-.2,2.8-5-.35-3.68,3.41-1.91-2.07ZM442.19,477l.58-7.67,2.8.21L445.3,473l3.4-1.05.83,2.69Zm19.38-25,.87-2.67,6.88,2.26-4.52,9.29-6.56-.46.2-2.81,4.66.33,2.28-4.69Zm-7.06,21.22-.83-2.69,9.94-3.07.83,2.69Zm15.23,9L461.2,485l-.89-2.67,10.41-3.49,4.1,5.19-2.21,1.74Zm7.62,9.65-4.1-5.18,2.21-1.75,2.88,3.65,6.7-2.17.19-4.64,2.81.11-.27,6.6Zm4.15-19.74,1.57-2.33,5.31,3.6-.26,6.4-2.81-.11.2-4.84Zm12.62-6.7-3.94-8.72-8.77,3.63-2.15-5.19,8.61-3.57-4.38-9.71,5.13-2.32,4.45,9.87,8.51-3.52,2.15,5.19-8.35,3.46,3.87,8.57Z"/>
        </g>
        <g id="Fist">
          <polygon class="cls-3" points="168.51 293.74 174.56 289.23 180.59 292.27 187.39 290.03 194.16 295.33 202.47 293.85 208.48 300.66 218.3 299.94 222.05 307.5 219 317.3 212.92 329.35 209.13 333.12 203.85 332.34 201.22 328.18 205.94 313.04 206.19 308.96 204.17 312.31 197.83 327.42 194.05 329.29 189.53 327.01 188.41 323.61 191.11 309.09 191.11 305.13 189.17 308.56 185.02 322.85 182.74 325.48 177.46 324.71 174.84 320.55 178.35 304.94 178.3 300.56 176.18 304.39 171.44 319.79 167.66 321.66 163.9 317.87 165.46 303.54 168.51 293.74"/>
          <polygon class="cls-3" points="219.74 319.56 219.71 330.88 209.86 342.93 203.06 345.17 194.01 340.61 185.72 338.32 184.97 336.06 191.03 331.55 198.57 331.57 200.83 334.6 209.12 336.89 215.93 330.87 219.74 319.56"/>
          <polygon class="cls-3" points="165.48 295.99 160.19 299 163.18 308.06 163.2 302.4 165.48 295.99"/>
        </g>
        <path id="Pacman" class="cls-3" d="M160.05,66.66a31.82,31.82,0,1,0,14.83,28.15l-31.79-1.23Zm-27.89,14.7A4,4,0,1,1,137.53,83,4,4,0,0,1,132.16,81.36Zm35,17.13-.45,1.61a24.24,24.24,0,0,1-12.19,15.17l-1.23-2.34A21.58,21.58,0,0,0,163.64,101l-19.24-.75.1-2.65Z"/>
        <g>
          <path class="cls-3" d="M734.22,246.7l-15.48,2.75-13.51,8,7.65,28.66,17.63-5.06,16.64-7.69ZM726.74,275l-2.29-6.15-10.54,3.92-2.29-6.15,10.54-3.92-2.28-6.15,16.61,4.33Z"/>
          <path class="cls-3" d="M655.14,276.1l-15.48,2.76-13.52,8,7.66,28.66,17.62-5.06,16.65-7.69Zm3.41,17.24L648,297.26l2.29,6.15-16.61-4.32L643.43,285l2.29,6.15,10.54-3.92Z"/>
          <path class="cls-3" d="M694.68,261.4l-15.48,2.76-13.52,8,7.66,28.66,17.63-5,16.64-7.69Zm-5.18,30.44-14.13-9.75,6.15-2.29-3.92-10.55,6.15-2.28,3.92,10.54,6.15-2.29Z"/>
          <path class="cls-3" d="M681.94,227.13l-15.48,2.76-13.52,8,7.66,28.66,17.62-5.05,16.65-7.69Zm-6,18.75,3.92,10.54-6.15,2.29-3.92-10.55-6.16,2.29,4.33-16.61,14.13,9.75Z"/>
        </g>
        <g id="Portal_Cube" data-name="Portal Cube">
          <path class="cls-3" d="M26,550.71a16.88,16.88,0,1,0,9.54,21.88A16.86,16.86,0,0,0,26,550.71Zm3.78,21.14a10.76,10.76,0,0,1-5.41,2.61,22.5,22.5,0,0,0-9.17,3.74,22.48,22.48,0,0,0-4.16-9,10.73,10.73,0,0,1-2.19-5.6,8.57,8.57,0,0,1,1.55-5.72,6.85,6.85,0,0,1,4.11-2.71,5,5,0,0,1,4.24,1,5.77,5.77,0,0,1,2.68,5.19l-.05,1.06.68-.82a5.79,5.79,0,0,1,5.49-2,5,5,0,0,1,3.82,2.12,6.83,6.83,0,0,1,1.16,4.78A8.52,8.52,0,0,1,29.74,571.85Z"/>
          <g>
            <g>
              <path class="cls-3" d="M16.44,544.19l5.22-13.3L.72,522.66l-8.23,21,13.3,5.22A22.55,22.55,0,0,1,16.44,544.19Z"/>
              <path class="cls-3" d="M42,563.07l13.3,5.22,8.23-20.94L42.6,539.12l-5.22,13.3A22.51,22.51,0,0,1,42,563.07Z"/>
              <path class="cls-3" d="M-2.44,569.77l-13.29-5.22L-24,585.49-3,593.72l5.22-13.3A22.55,22.55,0,0,1-2.44,569.77Z"/>
              <path class="cls-3" d="M23.15,588.65,17.92,602l20.94,8.22,8.23-20.94L33.8,584A22.6,22.6,0,0,1,23.15,588.65Z"/>
            </g>
            <g>
              <path class="cls-3" d="M33,548.22l3.35-8.54-10.47-4.11-3.35,8.54a22.27,22.27,0,0,1,5.5,1.37A22.57,22.57,0,0,1,33,548.22Z"/>
              <path class="cls-3" d="M6.6,584.62l-3.36,8.54,10.48,4.11,3.35-8.54a22.61,22.61,0,0,1-5.5-1.37A22.34,22.34,0,0,1,6.6,584.62Z"/>
              <path class="cls-3" d="M1.59,553.23l-8.54-3.36-4.11,10.47,8.54,3.36a22.69,22.69,0,0,1,1.37-5.51A22.27,22.27,0,0,1,1.59,553.23Z"/>
              <path class="cls-3" d="M50.64,572.5l-8.54-3.36a21.8,21.8,0,0,1-1.37,5.51,22.27,22.27,0,0,1-2.74,5L46.53,583Z"/>
            </g>
          </g>
        </g>
        <path id="Stalker" class="cls-3" d="M419.74,549.88a33.75,33.75,0,1,0,33.75,33.75A33.75,33.75,0,0,0,419.74,549.88Zm0,2.81a30.77,30.77,0,0,1,15.47,4.15l-9.85,17a11.21,11.21,0,0,0-11.24,0l-9.85-17A30.72,30.72,0,0,1,419.74,552.69Zm-15.47,57.73a30.93,30.93,0,0,1-15.47-26.79h19.69a11.23,11.23,0,0,0,5.63,9.73Zm7-26.79a8.44,8.44,0,1,1,8.44,8.43A8.44,8.44,0,0,1,411.3,583.63Zm23.91,26.79-9.85-17.06a11.23,11.23,0,0,0,5.63-9.73h19.69A30.93,30.93,0,0,1,435.21,610.42Z"/>
        <g id="Pacman_Ghost" data-name="Pacman Ghost">
          <path class="cls-3" d="M732.7,662.92l-19.31-17.19-25.82,1.39-17.19,19.31-14.87,42.48,17-6,5.58,13.87,13-7.36,5.57,13.87,13-7.37,9.56,15.27,14.86-42.48Zm-35.51,24.82-5.31-1.86L690,691.19l-10.61-3.72,1.85-5.31L676,680.3l7.43-21.23,5.31,1.85,1.86-5.3,10.61,3.71-1.85,5.31,5.31,1.86Zm23.89,8.36-5.31-1.86-1.85,5.31-10.62-3.72,1.86-5.31-5.31-1.85,7.43-21.24,5.31,1.86,1.86-5.31,10.62,3.71L723.21,673l5.31,1.86Z"/>
          <rect class="cls-3" x="710.55" y="679.53" width="9.84" height="9.84" transform="translate(266.28 -197.93) rotate(19.29)"/>
          <rect class="cls-3" x="686.66" y="671.17" width="9.84" height="9.84" transform="translate(262.18 -190.51) rotate(19.29)"/>
        </g>
        <g id="Globus">
          <g>
            <polygon class="cls-3" points="589.74 699.82 614.34 686.2 609.16 682.64 589.48 693.54 589.74 699.82"/>
            <path class="cls-3" d="M608.4,634.83A33.74,33.74,0,0,0,579,617.44l-.05,2.81a30.94,30.94,0,1,1-1.1,61.86l0,2.81a33.63,33.63,0,0,0,15-3l2.78,5,4.92-2.72-2.78-5A33.76,33.76,0,0,0,608.4,634.83Z"/>
          </g>
          <path class="cls-3" d="M565.25,626.58a28.13,28.13,0,1,0,38.23,11A28.13,28.13,0,0,0,565.25,626.58Zm13.25.7,6.42,2.88-10,2.31-4-4.24Zm3.08,43.3-1.09,3.83-3.83-1.1-3.95-4.24,2.87-6.42,5.74,1.65-4.24,4Zm-9-19.13-5.05-.42,1.5,5.6,2.59,1.78-2.33,4.51-1,7-4.64-5.47L559.61,657,558,648.29l7-13.51,2.59,1.77-.42,5.06,3.15-.13,1.77-2.6,5.06.42L573,646.4Zm24.72,4-.28,8.2-6.7,5.32-5.19-3.56-.4-9.43,4.79-5.86-.94-7.52L583.4,639l-1.49-5.6,11.33.15,1,7.52,5.87,4.79Z"/>
        </g>
        <g id="Aperture">
          <path class="cls-3" d="M14.06,699.4,30.46,683a33.86,33.86,0,0,0-6.6-9.31,33.76,33.76,0,0,0-9.8-6.82Z"/>
          <path class="cls-3" d="M33.75,697.55a33.68,33.68,0,0,0-2.11-11.75L9.94,707.5h0l-1.3,1.3H31.82A33.78,33.78,0,0,0,33.75,697.55Z"/>
          <path class="cls-3" d="M11.25,688.91V665.73A33.82,33.82,0,0,0,0,663.8a33.69,33.69,0,0,0-11.76,2.11Z"/>
          <path class="cls-3" d="M1.85,683.49l-16.4-16.4a33.91,33.91,0,0,0-9.32,6.6,33.73,33.73,0,0,0-6.81,9.8Z"/>
          <path class="cls-3" d="M-1.85,711.61,14.55,728a33.83,33.83,0,0,0,9.31-6.59,33.94,33.94,0,0,0,6.82-9.81Z"/>
          <path class="cls-3" d="M-9.95,707.5h0l-1.3-1.31v23.18A33.52,33.52,0,0,0,0,731.3a33.68,33.68,0,0,0,11.75-2.11Z"/>
        </g>
        <g id="Lambda">
          <path class="cls-3" d="M429.38-36a33.75,33.75,0,0,0-12.14,46.16,33.74,33.74,0,0,0,46.15,12.15,33.75,33.75,0,0,0,12.15-46.16A33.75,33.75,0,0,0,429.38-36Zm31.18,53.45A28.13,28.13,0,0,1,422.09,7.33a28.14,28.14,0,0,1,10.13-38.47A28.12,28.12,0,0,1,470.68-21,28.12,28.12,0,0,1,460.56,17.45Z"/>
          <g>
            <rect class="cls-3" x="447.29" y="-30.33" width="5.62" height="39.37" transform="translate(170.52 342.26) rotate(-50.26)"/>
            <rect class="cls-3" x="459.25" y="-4.83" width="11.25" height="5.62" transform="translate(169.21 356.73) rotate(-50.26)"/>
            <polygon class="cls-3" points="446.3 -16.89 440.67 -16.87 440.83 17.3 446.44 14.03 446.3 -16.89"/>
          </g>
        </g>
        <path id="Black_Mesa" data-name="Black Mesa" class="cls-3" d="M-17.68,399.84A33.75,33.75,0,0,0-63.36,413.7,33.76,33.76,0,0,0-49.5,459.37,33.76,33.76,0,0,0-3.82,445.51,33.75,33.75,0,0,0-17.68,399.84Zm-2.65,5A28.12,28.12,0,0,1-8.78,442.86a28,28,0,0,1-10,10.63l-2.4-17.26L-43.51,424.3l-9.28,17.36-7.78-4.15a28,28,0,0,1,2.18-21.16A28.12,28.12,0,0,1-20.33,404.8Z"/>
        <path class="cls-3" d="M701.46,541.92l-.87,16.35,16.69,8.64,10.61-8-1.48-14.67-10.64-.37-.2,5.62,5.74.2.67,6.64-5.26,4-10.32-5.34.54-10.15,12.49-9.64,14.24,4.1,4,17.25-7.27,12.56-14,7.76-23.71-11.48-3-18.12L703.2,526.5l26.5-4.91,6.37-14.17-5.13-2.31-5.16,11.48-26,4.82-16,24.57,3.78,23.15h0l4.6,27.49,24.36-13.47,1.27-.7,16.68-9.23,9.17-15.82-5.22-22.64L718.25,529Zm-5.07,45.93-2.63-15.72,16.55,8Z"/>
        <g id="Uchiha">
          <path class="cls-3" d="M329,695.74a28.08,28.08,0,0,0-42.54,23.62,28.12,28.12,0,0,0,22.9,2.72l11.2,20.17,9.83-5.46-11.19-20.17A28.16,28.16,0,0,0,329,695.74Z"/>
          <path class="cls-3" d="M287.23,670.67a28.12,28.12,0,0,0-10.94,38.24,27,27,0,0,0,1.91,2.94,28.66,28.66,0,0,0,2.9,3.38,34,34,0,0,1,1.65-6.68,33.69,33.69,0,0,1,39-21.66A34.37,34.37,0,0,1,328.3,689a28.77,28.77,0,0,0-1.34-4.26,26.67,26.67,0,0,0-1.49-3.16A28.12,28.12,0,0,0,287.23,670.67Zm8.19,14.75A33.63,33.63,0,0,0,280,703.62,22.48,22.48,0,0,1,319,682,33.62,33.62,0,0,0,295.42,685.42Z"/>
        </g>
        <g id="Sharingan">
          <g>
            <path class="cls-3" d="M301.8,8.78a11.19,11.19,0,0,0,8.92,2,11.25,11.25,0,0,0,8.82-13.24,11.25,11.25,0,0,0-13.24-8.82,11.27,11.27,0,0,0-8.56,7.78l-2.19-.6L293.34-8l-.55-2.76-.83,3V-.53l3.87,5Z"/>
            <path class="cls-3" d="M346.34,10a11.26,11.26,0,1,0-8.62,9.66l.58,2.2-2.24,3.84L334,27.6l3-.8,6.21-3.59,2.37-5.83Z"/>
          </g>
          <path class="cls-3" d="M322.54,12.31a17.22,17.22,0,0,1-3.18-.74,19.09,19.09,0,0,1-2.17-.92,13.09,13.09,0,0,1-2.81,1.64,19.92,19.92,0,0,0,4.08,2,20,20,0,0,0,5.5,1A13.26,13.26,0,0,1,322.54,12.31Z"/>
        </g>
        <g id="Splinter_Cell" data-name="Splinter Cell">
          <circle class="cls-3" cx="726.99" cy="370.34" r="11.25"/>
          <circle class="cls-3" cx="699.55" cy="376.53" r="11.25"/>
          <circle class="cls-3" cx="740.6" cy="394.95" r="11.25"/>
        </g>
        <polygon id="Quake" class="cls-3" points="593.59 202.36 586.8 187.97 589.62 200.94 585.72 215.97 571.7 225.88 559.69 226.05 564.72 212.03 569.64 210.81 553.75 205.11 556.77 209.19 551.74 223.2 542.58 215.43 538.07 198.87 544.62 184.78 555.03 176.57 540.64 183.36 531.35 200.94 534.44 221.47 547.94 233.79 545.37 240.95 544.59 255.61 553.32 243.8 555.88 236.64 574.14 235.72 589.58 221.84 593.59 202.36"/>
        <g id="Joystick">
          <path class="cls-3" d="M331.85,172.62a11.24,11.24,0,0,0-10.73,19.56l-9.93,25.2a2.81,2.81,0,1,0,5.23,2.06l9.93-25.2a11.24,11.24,0,0,0,5.5-21.62Z"/>
          <g>
            <path class="cls-3" d="M302,213.77a12.66,12.66,0,1,0,23.08-1l-3.45,8.76a8.44,8.44,0,1,1-15.7-6.18l3.45-8.76A12.6,12.6,0,0,0,302,213.77Z"/>
            <path class="cls-3" d="M340.37,204.69l-10.47-4.12L327,207.92a16.87,16.87,0,1,1-15.7-6.19l2.89-7.35-10.46-4.12-7.3,3.17L277.8,225.38l3.18,7.3,47.1,18.56,7.29-3.17L343.54,212ZM286.45,230.3a4.22,4.22,0,1,1,5.47-2.38A4.21,4.21,0,0,1,286.45,230.3Zm39.25,15.47a4.22,4.22,0,1,1,5.47-2.38A4.23,4.23,0,0,1,325.7,245.77Z"/>
          </g>
        </g>
        <g id="Cup">
          <g>
            <path class="cls-3" d="M587.84,81.79,584,89.29l-7.69,11.86L594,94.44l3.86-7.5Zm4.28,10.11L582,96.19l3.82-4.36,3.22-6.25,5,2.57Z"/>
            <path class="cls-3" d="M542.83,58.61,539,66.11l4.81,18.3L549,71.26l3.86-7.5Zm1.67,18.26-2.39-10.72L544,62.4,549,65l-3.21,6.25Z"/>
          </g>
          <g>
            <polygon class="cls-3" points="549.85 103.35 546.63 109.6 545.3 115.25 529.58 115.06 528.29 117.56 558.3 133.01 559.59 130.51 550.3 117.82 554.13 113.46 557.35 107.21 552.31 107.78 549.85 103.35"/>
            <path class="cls-3" d="M571.62,70.28,557.91,60.05l-6.44,12.5-5.23,16.29,7.36,16.44,17.65-3.56L581.48,88l6.43-12.5Zm-6.5,27.07-4.29-6.12-7.47.07,4.49-6-2.37-7.09,7.07,2.43,6-4.44-.13,7.47L574.51,88l-7.14,2.19Z"/>
          </g>
        </g>
        <g id="Jem_Stone" data-name="Jem Stone">
          <g>
            <polygon class="cls-3" points="694.85 141.12 700.92 123.5 683.07 130.28 694.85 141.12"/>
            <polygon class="cls-3" points="703.41 124.9 697.78 141.23 718.46 133.38 703.41 124.9"/>
            <polygon class="cls-3" points="720.4 135.65 697.84 144.22 721.12 171.52 720.4 135.65"/>
            <polygon class="cls-3" points="704.34 122.19 720.59 131.34 722.19 115.41 704.34 122.19"/>
            <polygon class="cls-3" points="677.45 148.96 692.85 143.11 681.24 132.41 677.45 148.96"/>
            <polygon class="cls-3" points="723.4 131.5 738.8 125.65 724.98 115.79 723.4 131.5"/>
            <polygon class="cls-3" points="723.19 134.59 723.94 171.72 739.54 128.37 723.19 134.59"/>
            <polygon class="cls-3" points="719.15 173.54 695.05 145.28 678.7 151.49 719.15 173.54"/>
          </g>
          <g>
            <g>
              <line class="cls-3" x1="698.63" y1="112.33" x2="696.64" y2="107.07"/>
              <rect class="cls-3" x="696.23" y="106.89" width="2.81" height="5.62" transform="translate(6.53 254.95) rotate(-20.81)"/>
            </g>
            <g>
              <line class="cls-3" x1="709.65" y1="109.65" x2="709.08" y2="104.05"/>
              <rect class="cls-3" x="707.96" y="104.04" width="2.81" height="5.62" transform="translate(-7.17 72.3) rotate(-5.81)"/>
            </g>
            <g>
              <line class="cls-3" x1="721.66" y1="109.59" x2="722.56" y2="104.04"/>
              <rect class="cls-3" x="719.3" y="105.41" width="5.62" height="2.81" transform="translate(501.35 802.6) rotate(-80.81)"/>
            </g>
            <g>
              <line class="cls-3" x1="688.62" y1="117.64" x2="685.33" y2="113.08"/>
              <rect class="cls-3" x="685.56" y="112.55" width="2.81" height="5.62" transform="translate(62.34 423.7) rotate(-35.81)"/>
            </g>
            <g>
              <line class="cls-3" x1="679.6" y1="125.58" x2="675.24" y2="122.02"/>
              <rect class="cls-3" x="676.01" y="120.99" width="2.81" height="5.62" transform="translate(153.39 570.58) rotate(-50.81)"/>
            </g>
          </g>
        </g>
        <path id="Anonimus" class="cls-3" d="M71.85,354.65l-28,14.25,11.76,30.74,20.76,22L98.53,429,90.76,417.9l.36-3.67,6.15-2.35,2.71,2.49,1.63,13.47,11.61-20.3L114,377.3l-11.76-30.74ZM57.16,376.13l8-6.6,9.45,1.67.22,5.2L67,374.14l-7.68,2.94-4.39,7Zm9.09,5.33,8.86.14-5.92,7.55-9.45-1.67ZM102,401.26l-7.68,2.94-4.25-1.9-1.9,4.25L79,410.08,65,401.31l13.7,3.57,4.61-1.77,3.44-4.83,3.07-1.18,5.79,1.31,4.61-1.76,7.82-11.8Zm-5.16-22.7-9.44-1.67,6.5-6,8.87.13ZM96.17,363l-7.68,2.94-4.39,7-3.3-4,5.92-7.55,10.4-.46,7,4.39Z"/>
        <g id="Campfire">
          <g>
            <g>
              <polygon class="cls-3" points="534.62 391.91 533.92 399.45 527.18 401.45 522.09 394.17 527.22 386.77 534.62 391.91"/>
              <polygon class="cls-3" points="536.91 389.76 528.17 385.02 548.14 373.23 572.95 362.92 578.2 365.76 577.1 371.95 571.46 367.76 558.38 373.12 536.22 397.3 536.91 389.76"/>
            </g>
            <g>
              <polygon class="cls-3" points="570.91 370.86 564.82 380 568.97 389.04 579.76 385.84 578.3 376 570.91 370.86"/>
              <g>
                <polygon class="cls-3" points="525.08 384.48 537.75 377.78 525.22 380.03 518.08 380.69 515.64 387.28 519.94 391.87 522.23 389.72 525.08 384.48"/>
                <polygon class="cls-3" points="558.23 377.56 543.91 393.55 566.28 389.84 562.13 380.81 566.86 372.06 558.23 377.56"/>
              </g>
            </g>
          </g>
          <path class="cls-3" d="M531.3,324l-5.62,35.41,5.9,10,13.74,1.79,10.53-9-.51-11.58Zm12.41,41.79-6.19-1.1-2.95-5,3.54-12.78,9.94,8.78.25,5.79Z"/>
        </g>
      </g>
      <g id="_1_2" data-name="1_2">
        <g id="Rocket-2" data-name="Rocket">
          <polygon class="cls-3" points="1113.9 42.61 1109.58 42.22 1107.3 38.52 1095.57 42.7 1093.22 68.66 1115.4 54.97 1113.9 42.61"/>
          <path class="cls-3" d="M1137.24-2.49l15.7,3.72,7.45-19-1.74-19.35L1140.56-30l-13.65,15.13Zm11.65-18.83a7.68,7.68,0,0,1,2.49,10.57,7.68,7.68,0,0,1-10.57,2.49,7.68,7.68,0,0,1-2.49-10.57A7.68,7.68,0,0,1,1148.89-21.32Z"/>
          <polygon class="cls-3" points="1125.72 38.29 1152.07 5.02 1135.08 1 1123.9 -12.41 1105.9 25.97 1105.8 26.18 1112.64 37.26 1125.62 38.44 1125.72 38.29"/>
          <g>
            <polygon class="cls-3" points="1102.41 24.28 1117.57 -8.05 1098.08 5.4 1082.12 27.52 1082.59 41.52 1099.32 30.45 1102.41 24.28"/>
            <polygon class="cls-3" points="1151 12.63 1128.8 40.67 1124.68 46.15 1122.25 66.06 1134.99 60.23 1147.66 36.07 1151 12.63"/>
          </g>
        </g>
        <path id="Gamepad-2" data-name="Gamepad" class="cls-3" d="M1549.88,40.89l-21.71.48-13.85,9.24-16.63-.91-18.93,10.63-.74,43.88,7.09,12.63,10.46-8.32,8.15-16.79,19.39-8.94,21.25-2.17,15.56,10.31,13.24,1.84-.32-14.48Zm-56.33,33.6a7,7,0,1,1,4.92-8.62A7,7,0,0,1,1493.55,74.49Zm22.63,2.91-4,2,.31,4.46-3.38.93-2-4-4.46.31-.93-3.39,4-2-.31-4.47,3.39-.92,2,4,4.47-.31ZM1513.25,60l-6.77,1.85-.93-3.39,6.77-1.85Zm27.16-13.8a3.52,3.52,0,1,1-2.46,4.31A3.51,3.51,0,0,1,1540.41,46.21Zm-21.31,8.56,6.77-1.85.92,3.38L1520,58.16Zm15.41,23.08a7,7,0,1,1,4.92-8.62A7,7,0,0,1,1534.51,77.85ZM1538,60.53a3.51,3.51,0,1,1,2.46-4.31A3.51,3.51,0,0,1,1538,60.53Zm7.55,4.31a3.51,3.51,0,1,1,2.46-4.31A3.52,3.52,0,0,1,1545.51,64.84Zm4.3-7.55a3.51,3.51,0,1,1,2.46-4.31A3.51,3.51,0,0,1,1549.81,57.29Z"/>
        <g id="Screen-2" data-name="Screen">
          <polygon class="cls-3" points="1440.24 261.96 1440.63 260.61 1419.77 251.72 1408.95 248.63 1386.54 245.15 1386.16 246.5 1440.24 261.96"/>
          <rect class="cls-3" x="1410.54" y="235.76" width="12.66" height="11.25" transform="translate(795.28 1537.31) rotate(-74.04)"/>
          <g>
            <path class="cls-3" d="M1464.2,198.61l-64.9-18.56-17.78,41.72,75.72,21.65Zm-75.72,19.3,12.75-34.38,59.5,17-7.35,35.93Z"/>
            <polygon class="cls-3" points="1396.4 215.79 1455.9 202.09 1448.16 229.13 1396.4 215.79"/>
          </g>
        </g>
        <g id="Knight-2" data-name="Knight">
          <path class="cls-3" d="M1140,142.17l-45.55,5.14-13.33,49.5,9.29,23.47,28.82-4.29,32.64-36.71Zm-36.93,7.9,27.09-1.18-20.56,33.28-15.7-4.67Zm-2.47,55.55-12.06-14.85,31.9,15.73Zm26.75-11.53-10.68-10,18.14-32.59,10,25.89Z"/>
          <ellipse class="cls-3" cx="1113.97" cy="163.28" rx="6.22" ry="2.66" transform="translate(429.4 1057.12) rotate(-60.89)"/>
          <ellipse class="cls-3" cx="1128.97" cy="174.68" rx="7.1" ry="3.55" transform="translate(427.14 1076.08) rotate(-60.89)"/>
          <polygon class="cls-3" points="1132.97 138.28 1103.38 142.14 1130.82 133.02 1132.97 138.28"/>
          <polygon class="cls-3" points="1153.04 169.79 1146.85 148.04 1150.82 148.22 1153.04 169.79"/>
        </g>
        <path id="GG-2" data-name="GG" class="cls-3" d="M1214.78,54.88l-11,16.6,6.86,54.58,55.64-15.69,8.77-13.28-7.43-57.33Zm20.45,8.74-11.84,5.29-5.13,24,5.57,13.21,6.61-2.79.78-10.2-5-3.29,1.63-6.08,10.21.79-.72,24.55-19.54,9.73L1210,94.62l6.76-30.09L1233.25,54Zm19.28-3.95-5.13,24L1255,96.9l6.61-2.78.78-10.21-5-3.29,1.63-6.07,10.21.78-.72,24.55-19.54,9.74-7.83-24.24,6.77-30.09,16.5-10.55,2,9.64Z"/>
        <g id="Xbox_Buttons-2" data-name="Xbox Buttons">
          <g id="Button_A-2" data-name="Button A">
            <path class="cls-3" d="M1302.11-21.1a15.47,15.47,0,0,0-8.88,20,15.46,15.46,0,0,0,20,8.89,15.47,15.47,0,0,0,8.88-20A15.47,15.47,0,0,0,1302.11-21.1ZM1316.62.82l-3.37-3.71L1306-.12v5h-4.42l.08-21.34,3.84-1.48,14.36,15.79Z"/>
          </g>
        </g>
        <g id="Map-2" data-name="Map">
          <polygon class="cls-3" points="1453.78 23.7 1463.52 13.85 1456.12 9.55 1453.78 23.7"/>
          <path class="cls-3" d="M1458.15-7.72,1473.36-32,1437.53-48.6l-25.66-3.7L1399.28-27l-7,30.43,23.35,5.83,35.84,16.56Zm-21.39-29.42,3.81,4.13-2.06,1.91-3.82-4.13ZM1434.62-16l5.21,3.53-1.58,2.33-4.09-2.78-4.73,1.46-.83-2.68Zm-10.89-28,9,3.4-1,2.63-9-3.4Zm-5.54-.65,1.16,2.57-4.47,2-1.28,6.46,4.16,1.37-.88,2.67-6.53-2.15,2.06-10.32Zm-9.39,21.56,6.22.44-.2,2.8-5-.35-3.68,3.41-1.91-2.07ZM1402.19-3l.58-7.67,2.8.21L1405.3-7l3.4-1,.83,2.69Zm19.38-25,.87-2.67,6.88,2.26-4.52,9.29-6.56-.46.2-2.81,4.66.33,2.28-4.69Zm-7.06,21.22-.83-2.69,9.94-3.07.83,2.69Zm15.23,9L1421.2,5l-.89-2.67,10.41-3.49,4.1,5.19-2.21,1.74Zm7.62,9.65-4.1-5.18,2.21-1.75,2.88,3.65,6.7-2.17.19-4.64,2.81.11-.27,6.6Zm4.15-19.74,1.57-2.33,5.31,3.6-.26,6.4-2.81-.11.2-4.84Zm12.62-6.7-3.94-8.72-8.77,3.63-2.15-5.19,8.61-3.57-4.38-9.71,5.13-2.32,4.45,9.87,8.51-3.52,2.15,5.19-8.35,3.46,3.87,8.57Z"/>
        </g>
        <g id="Portal_Cube-2" data-name="Portal Cube">
          <path class="cls-3" d="M986,70.71a16.88,16.88,0,1,0,9.54,21.88A16.86,16.86,0,0,0,986,70.71Zm3.78,21.14a10.76,10.76,0,0,1-5.41,2.61,22.5,22.5,0,0,0-9.17,3.74,22.48,22.48,0,0,0-4.16-9,10.73,10.73,0,0,1-2.19-5.6,8.57,8.57,0,0,1,1.55-5.72,6.85,6.85,0,0,1,4.11-2.71,5,5,0,0,1,4.24,1,5.75,5.75,0,0,1,2.68,5.18l0,1.06.68-.82a5.79,5.79,0,0,1,5.49-2,5,5,0,0,1,3.82,2.12,6.83,6.83,0,0,1,1.16,4.78A8.52,8.52,0,0,1,989.74,91.85Z"/>
          <g>
            <g>
              <path class="cls-3" d="M976.44,64.19l5.22-13.3-20.94-8.23-8.23,21,13.3,5.22A22.55,22.55,0,0,1,976.44,64.19Z"/>
              <path class="cls-3" d="M1002,83.07l13.3,5.22,8.23-20.94-20.95-8.23-5.22,13.3A22.51,22.51,0,0,1,1002,83.07Z"/>
              <path class="cls-3" d="M957.56,89.77l-13.29-5.22L936,105.49,957,113.72l5.22-13.3A22.55,22.55,0,0,1,957.56,89.77Z"/>
              <path class="cls-3" d="M983.15,108.65,977.92,122l20.94,8.22,8.23-20.94L993.8,104A22.6,22.6,0,0,1,983.15,108.65Z"/>
            </g>
            <g>
              <path class="cls-3" d="M993,68.22l3.35-8.54-10.47-4.11-3.36,8.54A22.24,22.24,0,0,1,988,65.48,22.57,22.57,0,0,1,993,68.22Z"/>
              <path class="cls-3" d="M966.6,104.62l-3.36,8.54,10.48,4.11,3.35-8.54a22.61,22.61,0,0,1-5.5-1.37A22.34,22.34,0,0,1,966.6,104.62Z"/>
              <path class="cls-3" d="M961.59,73.23l-8.54-3.36-4.11,10.47,8.54,3.36a22.69,22.69,0,0,1,1.37-5.51A22.27,22.27,0,0,1,961.59,73.23Z"/>
              <path class="cls-3" d="M1010.64,92.5l-8.54-3.36a21.8,21.8,0,0,1-1.37,5.51,22.27,22.27,0,0,1-2.74,5l8.54,3.36Z"/>
            </g>
          </g>
        </g>
        <path id="Stalker-2" data-name="Stalker" class="cls-3" d="M1379.74,69.88a33.75,33.75,0,1,0,33.75,33.75A33.75,33.75,0,0,0,1379.74,69.88Zm0,2.81a30.77,30.77,0,0,1,15.47,4.15l-9.85,17a11.21,11.21,0,0,0-11.24,0l-9.85-17A30.72,30.72,0,0,1,1379.74,72.69Zm-15.47,57.73a30.93,30.93,0,0,1-15.47-26.79h19.69a11.23,11.23,0,0,0,5.63,9.73Zm7-26.79a8.44,8.44,0,1,1,8.44,8.43A8.44,8.44,0,0,1,1371.3,103.63Zm23.91,26.79-9.85-17.06a11.23,11.23,0,0,0,5.63-9.73h19.69A30.93,30.93,0,0,1,1395.21,130.42Z"/>
        <g id="Globus-2" data-name="Globus">
          <path class="cls-3" d="M1525.25,146.58a28.13,28.13,0,1,0,38.23,11A28.13,28.13,0,0,0,1525.25,146.58Zm13.25.7,6.41,2.88-10,2.31-4-4.24Zm3.08,43.3-1.09,3.83-3.83-1.1-4-4.24,2.87-6.42,5.74,1.65-4.24,4Zm-9-19.13-5-.42,1.5,5.61,2.59,1.77-2.33,4.51-1,7-4.64-5.47-4.09-7.38-1.63-8.74,7-13.51,2.59,1.77-.42,5.06,3.15-.13,1.77-2.6,5.06.42-4.11,7.1Zm24.72,4-.28,8.2-6.7,5.32-5.19-3.56-.4-9.43,4.79-5.86-.94-7.52L1543.4,159l-1.49-5.6,11.33.15,1,7.52,5.87,4.79Z"/>
        </g>
        <g id="Aperture-2" data-name="Aperture">
          <path class="cls-3" d="M951.36,206.3H928.18a33.79,33.79,0,0,0,.18,23Z"/>
          <path class="cls-3" d="M974.06,219.4l16.4-16.4a33.9,33.9,0,0,0-16.4-16.13Z"/>
          <path class="cls-3" d="M993.75,217.55a33.68,33.68,0,0,0-2.11-11.75l-21.7,21.7h0l-1.3,1.3h23.18A33.78,33.78,0,0,0,993.75,217.55Z"/>
          <path class="cls-3" d="M971.25,208.91V185.73a33.79,33.79,0,0,0-23,.18Z"/>
          <path class="cls-3" d="M961.85,203.49l-16.4-16.4a33.79,33.79,0,0,0-16.13,16.4Z"/>
          <path class="cls-3" d="M958.15,231.61l16.4,16.4a33.79,33.79,0,0,0,16.13-16.4Z"/>
          <path class="cls-3" d="M950.05,227.5h0l-1.3-1.31v23.18a33.76,33.76,0,0,0,23-.18Z"/>
          <path class="cls-3" d="M945.94,215.7l-16.4,16.4a33.68,33.68,0,0,0,16.4,16.13Z"/>
        </g>
        <g>
          <path class="cls-3" d="M809.65,156.89l23.33,32c.31,0,.61.05.92.1a16.87,16.87,0,1,1-19.29,14c0-.31.12-.6.19-.9l-23.34-32,14.1,54.28,44.46,7L857,187Z"/>
          <path class="cls-3" d="M829.1,219.58a14.06,14.06,0,0,0,4.36-27.79,15.37,15.37,0,0,0-1.64-.15h-.11a14,14,0,0,0-13.41,8.67h0a11.61,11.61,0,0,0-.52,1.47l0,.1a12.28,12.28,0,0,0-.36,1.62A14.05,14.05,0,0,0,829.1,219.58Z"/>
        </g>
        <g id="Uchiha-2" data-name="Uchiha">
          <path class="cls-3" d="M1289,215.74a28.08,28.08,0,0,0-42.54,23.62,28.12,28.12,0,0,0,22.9,2.72l11.2,20.17,9.83-5.46-11.19-20.17A28.16,28.16,0,0,0,1289,215.74Z"/>
          <path class="cls-3" d="M1247.23,190.67a28.12,28.12,0,0,0-10.94,38.24,27,27,0,0,0,1.91,2.94,28.66,28.66,0,0,0,2.9,3.38,34,34,0,0,1,1.65-6.68,33.69,33.69,0,0,1,39-21.66,34.37,34.37,0,0,1,6.55,2.14,28.77,28.77,0,0,0-1.34-4.26,26.67,26.67,0,0,0-1.49-3.16A28.12,28.12,0,0,0,1247.23,190.67Zm8.19,14.75a33.63,33.63,0,0,0-15.41,18.2A22.48,22.48,0,0,1,1279,202,33.62,33.62,0,0,0,1255.42,205.42Z"/>
        </g>
        <g id="Tetris">
          <path class="cls-3" d="M797.63,7.59l25.46,62.52,41.68-17L839.31-9.38Zm38.65,42.72-4.55,1.86,1.85,4.55-3.9,1.59-1.86-4.55-4.56,1.85-1.59-3.9,4.56-1.86-1.86-4.56,3.91-1.59,1.85,4.56,4.56-1.86Zm9.63-6.2a2.81,2.81,0,1,1,1.54-3.66A2.81,2.81,0,0,1,845.91,44.11Zm7.33,3.09a2.81,2.81,0,1,1,1.54-3.67A2.82,2.82,0,0,1,853.24,47.2Zm-4.29-18L817.69,41.94,805,10.68,836.22-2Z"/>
          <polygon class="cls-3" points="820.78 34.61 841.62 26.12 833.13 5.28 820.78 34.61"/>
        </g>
      </g>
      <g id="_2_1" data-name="2_1">
        <g id="Bow-2" data-name="Bow">
          <polygon class="cls-3" points="43 948.21 49.36 935.2 34.95 936.67 40.02 940 -12.59 976.67 -18.46 975.62 -27.69 982.05 -19.86 983.45 -21.25 991.28 -12.03 984.85 -10.98 978.98 41.63 942.3 43 948.21"/>
          <g>
            <polygon class="cls-3" points="27.34 945.41 14.57 932.02 -7.52 920 19.54 926.85 35.41 939.78 27.34 945.41"/>
            <polygon class="cls-3" points="40.23 946.7 46.88 966.07 43.95 993.83 40.31 968.94 32.16 952.33 40.23 946.7"/>
            <g>
              <line class="cls-3" x1="-8.91" y1="984.4" x2="40.27" y2="986.1"/>
              <rect class="cls-3" x="14.98" y="960.64" width="1.41" height="49.22" transform="translate(-969.5 965.94) rotate(-87.97)"/>
            </g>
          </g>
        </g>
        <g id="Cake">
          <g>
            <g>
              <g>
                <line class="cls-3" x1="692.81" y1="798.39" x2="688.65" y2="816.91"/>
                <rect class="cls-3" x="681.24" y="806.94" width="18.98" height="1.41" transform="matrix(0.22, -0.98, 0.98, 0.22, -248.56, 1304.78)"/>
              </g>
              <path class="cls-3" d="M693.27,796.33h0a5.43,5.43,0,0,1-1.27-7.52l4.35-6.2,1.28,7.46a5.44,5.44,0,0,1-4.36,6.26Z"/>
            </g>
            <polygon class="cls-3" points="692.34 813.32 690.78 820.27 685.29 819.04 686.64 813.04 663.11 811.9 682.6 827.8 728.69 815.09 692.34 813.32"/>
            <path class="cls-3" d="M684.73,831.16l-6.16,27.45,43.35-13.34,6.16-27.44Zm32.85,7.78-31,9.53.62-2.75,31-9.52ZM720,828l-31,9.52.61-2.74,31-9.53Z"/>
            <path class="cls-3" d="M662.5,814.64l-6.16,27.45,16.75,15.28,6.15-27.44Zm7.65,30.13L663,838.22l.62-2.74,7.17,6.55Zm2.46-11-7.18-6.56.62-2.74,7.18,6.55Z"/>
          </g>
          <g>
            <polygon class="cls-3" points="671.12 776.22 654.93 784.12 648.72 837.5 671.12 776.22"/>
            <circle class="cls-3" cx="646.87" cy="845.73" r="5.62"/>
          </g>
        </g>
        <g id="Speaker">
          <path class="cls-3" d="M67.07,789l-7.33-3.11L33.67,796.46l-3.1,7.32,9.62,53.76,11,4.65L92.89,845.3l4.66-11Zm-18.78,6.08a7,7,0,1,1-3.88,9.16A7,7,0,0,1,48.29,795.09Zm22.16,54.75a21.1,21.1,0,1,1,11.64-27.47A21.09,21.09,0,0,1,70.45,849.84Z"/>
          <circle class="cls-3" cx="50.93" cy="801.61" r="2.81"/>
          <path class="cls-3" d="M56.21,814.64a16.88,16.88,0,1,0,22,9.31A16.88,16.88,0,0,0,56.21,814.64Zm9,22.16a7,7,0,1,1,3.88-9.15A7,7,0,0,1,65.18,836.8Z"/>
        </g>
        <path id="Smile" class="cls-3" d="M389,803a33.75,33.75,0,1,0,18.4,44A33.75,33.75,0,0,0,389,803Zm6.13,14.67c2.88,1.18,3.29,6.8.93,12.55s-6.6,9.45-9.47,8.27-3.29-6.8-.93-12.54S392.25,816.48,395.12,817.65Zm-20.81-8.54c2.87,1.18,3.29,6.8.93,12.54s-6.6,9.46-9.48,8.28-3.29-6.8-.93-12.55S371.43,807.93,374.31,809.11ZM367.63,855a28,28,0,0,1-16.15-17.59l4.84-.63A25.23,25.23,0,0,0,388.48,850l3,3.85A28.07,28.07,0,0,1,367.63,855Z"/>
        <path id="GLHF-2" data-name="GLHF" class="cls-3" d="M670.52,946.35l-8,18.21,16,52.64,47-22.81L735,972.55l-14.94-50Zm9.49,1.13,15.71-10.05-.08,3.67L685,948.69l-4.73,15,6,3.71,8.66-4.88-.22-4.44-5.75.73-.22-4.44,10.71.36.14,12-14.7,8.74-11.94-7.42Zm13.46,57.85.36-10.71-6,3.86-.87,9.4-4.74,3.35-1.82-28,8.66-4.88-.65,13.83,6-3.86.65-13.84,4.73-3.35,1,29.78Zm29.62-40.21-12.59,6.42.73,5.75,8.66-4.88L717.2,981l-6,3.86.15,12-6,3.86-1.53-31.09L724.47,957Zm1.16-12.52-20.74,12.6L703,936.73l8.15-6.19-1.52,23.23,12.08-7.72Z"/>
        <g>
          <g id="Camera-2" data-name="Camera">
            <path class="cls-3" d="M173.78,894l-8.71-5.18-12.69,6.07-1.43,10-21.57,10.32-2.64,7.5,17,35.52,7.51,2.64L202,936.62l2.64-7.5-17-35.52L180.12,891Zm8,46.06a19.69,19.69,0,1,1,9.26-26.26A19.7,19.7,0,0,1,181.79,940.05Zm-31.06-22.56a2.81,2.81,0,1,1,1.32-3.75A2.81,2.81,0,0,1,150.73,917.49Z"/>
            <rect class="cls-3" x="132.22" y="905.78" width="8.44" height="2.81" transform="translate(-378.2 147.75) rotate(-25.57)"/>
          </g>
          <path class="cls-3" d="M166,907.07a16.87,16.87,0,1,0,22.5,7.93A16.87,16.87,0,0,0,166,907.07ZM179.36,935A14.06,14.06,0,1,1,186,916.22,14.05,14.05,0,0,1,179.36,935Z"/>
        </g>
        <g id="The_Box" data-name="The Box">
          <g>
            <rect class="cls-3" x="486.53" y="785.17" width="45" height="8.44" transform="translate(-205.24 179.42) rotate(-16.69)"/>
            <rect class="cls-3" x="503.49" y="841.74" width="45" height="8.44" transform="translate(-220.77 186.67) rotate(-16.69)"/>
          </g>
          <g>
            <polygon class="cls-3" points="513.95 805.78 515.05 803.73 520.71 793.23 501.39 799.02 511.89 804.68 513.95 805.78"/>
            <polygon class="cls-3" points="521.08 829.57 519.97 831.62 514.31 842.12 533.63 836.33 523.13 830.67 521.08 829.57"/>
            <polygon class="cls-3" points="493.13 814.71 495.55 822.79 503.87 820.3 493.36 814.64 493.13 814.71"/>
            <polygon class="cls-3" points="536 801.85 530.35 812.36 538.66 809.87 536.24 801.78 536 801.85"/>
            <polygon class="cls-3" points="498.78 833.57 499.02 833.5 504.68 822.99 496.36 825.48 498.78 833.57"/>
            <polygon class="cls-3" points="541.66 820.71 541.89 820.64 539.47 812.56 531.15 815.05 541.66 820.71"/>
          </g>
          <g>
            <path class="cls-3" d="M475.49,795l19.38,64.65,8.09-2.42-19.39-64.66Zm22.62,60.75a1.4,1.4,0,1,1,.94-1.75A1.41,1.41,0,0,1,498.11,855.79Zm-17-56.58a1.4,1.4,0,1,1,.94-1.75A1.4,1.4,0,0,1,481.15,799.21Z"/>
            <path class="cls-3" d="M532.06,778.08l19.39,64.65,8.08-2.42-19.38-64.66Zm22.62,60.75a1.41,1.41,0,1,1,.94-1.75A1.39,1.39,0,0,1,554.68,838.83Zm-17-56.58a1.4,1.4,0,1,1,.94-1.75A1.4,1.4,0,0,1,537.72,782.25Z"/>
          </g>
          <g>
            <polygon class="cls-3" points="515.09 809.59 497.58 800.16 489.5 802.58 491.92 810.66 509.43 820.1 519.93 825.76 537.44 835.19 545.52 832.77 543.1 824.68 525.59 815.25 515.09 809.59"/>
            <polygon class="cls-3" points="508.09 822.57 500 837.61 502.42 845.69 510.5 843.26 518.6 828.23 508.09 822.57"/>
            <polygon class="cls-3" points="524.52 792.08 516.42 807.12 526.93 812.78 535.02 797.74 532.6 789.66 524.52 792.08"/>
          </g>
        </g>
        <g id="Crosshair-2" data-name="Crosshair">
          <polygon class="cls-3" points="283.59 1052.68 267.32 1022.59 277.96 1018.94 283.59 1052.68"/>
        </g>
        <g id="PlayStation_Buttons" data-name="PlayStation Buttons">
          <g id="Button_O" data-name="Button O">
            <circle class="cls-3" cx="604.13" cy="930.56" r="6.63"/>
            <path class="cls-3" d="M610.51,916.46a15.47,15.47,0,1,0,7.71,20.47A15.47,15.47,0,0,0,610.51,916.46Zm-10.93,24.16a11,11,0,1,1,14.62-5.51A11.05,11.05,0,0,1,599.58,940.62Z"/>
          </g>
          <g id="Button_Square" data-name="Button Square">
            <rect class="cls-3" x="553.59" y="905.27" width="8.84" height="8.84" transform="translate(-500.82 1043.09) rotate(-65.66)"/>
            <path class="cls-3" d="M564.38,895.59a15.47,15.47,0,1,0,7.72,20.47A15.48,15.48,0,0,0,564.38,895.59Zm-2,25.79-16.11-7.28L553.6,898l16.1,7.29Z"/>
          </g>
          <g id="Button_Triangle" data-name="Button Triangle">
            <polygon class="cls-3" points="593.11 893.5 587.6 897.46 593.78 900.26 593.11 893.5"/>
            <path class="cls-3" d="M597.88,883a15.47,15.47,0,1,0,7.72,20.47A15.46,15.46,0,0,0,597.88,883ZM578.8,898.33l18-12.88,2.17,22Z"/>
          </g>
          <path id="Button_X" data-name="Button X" class="cls-3" d="M577,929.09a15.47,15.47,0,1,0,7.72,20.47A15.47,15.47,0,0,0,577,929.09Zm.1,25L573,955.66,569.35,946l-9.63,3.63-1.56-4.13,9.63-3.63-3.63-9.63,4.13-1.56,3.63,9.63,9.63-3.63,1.56,4.13-9.63,3.63Z"/>
        </g>
        <path id="Pacman-2" data-name="Pacman" class="cls-3" d="M160.05,1026.66a31.82,31.82,0,1,0,14.83,28.15l-31.79-1.23Zm-27.89,14.7a4,4,0,1,1,5.37,1.66A4,4,0,0,1,132.16,1041.36Zm35,17.13-.45,1.61a24.24,24.24,0,0,1-12.19,15.17l-1.23-2.34A21.57,21.57,0,0,0,163.64,1061l-19.24-.74.1-2.65Z"/>
        <g id="WASD">
          <g>
            <polygon class="cls-3" points="252.57 821.82 247.54 834.95 252.8 836.96 257.74 835.84 259.75 830.59 256.51 823.33 252.57 821.82"/>
            <path class="cls-3" d="M272.81,822l-13.44-8.16L243.92,811l-13.18,26.57,16.57,7.85,17.57,5.22ZM260.68,840l-6.76,1.93-11.82-4.53,8-21,10.51,4,3.55,10.39Z"/>
          </g>
          <path class="cls-3" d="M233.41,807,220,798.8l-15.45-2.9-13.18,26.57,16.57,7.85,17.57,5.22Zm-11.7,13.23-1.17,3.69-10.87,1.84-8.45-7.42,3-3.27,7.05,6.51,4.88-1-10-11.57,1.17-3.69,10.87-1.84,8.45,7.42-3,3.27-7-6.51-4.88,1Z"/>
          <g>
            <polygon class="cls-3" points="170.36 800.09 177.25 802.72 176.33 794.8 170.36 800.09"/>
            <path class="cls-3" d="M194,791.88l-13.44-8.16-15.45-2.9-13.18,26.57,16.57,7.85,17.57,5.22Zm-15.67,20.35-.56-4.89-10.9-4.17-3.68,3.26-2.93-3.1,16.24-14.39,3.6,1.38,2.48,21.56Z"/>
          </g>
          <path class="cls-3" d="M246.48,772.81,233,764.65l-15.45-2.9-13.18,26.58L221,796.17l17.57,5.22Zm-16,20.08-3.89-1.34,1.18-13.18L219.87,789l-3.79-1.6,3.17-20.11,4.18.64-1.83,11.68,7.28-9.74,3.8,1.45-1.08,12.12,6.43-9.92,3.54,2.31Z"/>
        </g>
        <g id="Lambda-2" data-name="Lambda">
          <path class="cls-3" d="M429.38,924a33.75,33.75,0,1,0,46.16,12.15A33.75,33.75,0,0,0,429.38,924Zm31.18,53.45A28.13,28.13,0,1,1,470.68,939,28.13,28.13,0,0,1,460.56,977.45Z"/>
          <g>
            <rect class="cls-3" x="447.29" y="929.67" width="5.62" height="39.37" transform="translate(-567.65 688.5) rotate(-50.26)"/>
            <rect class="cls-3" x="427.7" y="937.06" width="11.25" height="5.62" transform="matrix(0.86, -0.5, 0.5, 0.86, -414.56, 346.39)"/>
            <rect class="cls-3" x="459.25" y="955.17" width="11.25" height="5.62" transform="translate(-568.96 702.97) rotate(-50.26)"/>
            <polygon class="cls-3" points="446.3 943.11 440.67 943.13 440.83 977.3 446.44 974.03 446.3 943.11"/>
          </g>
        </g>
        <g id="Sharingan-2" data-name="Sharingan">
          <g>
            <path class="cls-3" d="M325.47,929.94a11.25,11.25,0,1,0,12.67,2.63l1.62-1.61,4.45,0,2.66.9-2.21-2.23-6.22-3.58-6.23.86Z"/>
            <path class="cls-3" d="M301.8,968.78a11.26,11.26,0,1,0-4.06-12.29l-2.19-.6L293.34,952l-.55-2.76-.83,3v7.17l3.87,5Z"/>
            <path class="cls-3" d="M346.34,970a11.26,11.26,0,1,0-8.62,9.66l.58,2.2-2.24,3.84L334,987.6l3-.8,6.21-3.59,2.37-5.83Z"/>
          </g>
          <g>
            <path class="cls-3" d="M341.61,956.3a13.1,13.1,0,0,1,2.66,1.88A19.62,19.62,0,0,0,342,946.1a13.39,13.39,0,0,1-1.72,2.88A16.82,16.82,0,0,1,341.61,956.3Z"/>
            <path class="cls-3" d="M322.54,972.31a17.22,17.22,0,0,1-3.18-.74,19.09,19.09,0,0,1-2.17-.92,13.09,13.09,0,0,1-2.81,1.64,19.2,19.2,0,0,0,9.58,3A13.26,13.26,0,0,1,322.54,972.31Z"/>
            <path class="cls-3" d="M316,941.15a13.57,13.57,0,0,1,.29-3.34,19.6,19.6,0,0,0-9.11,8.91,13.31,13.31,0,0,1,3.27-.09A16.7,16.7,0,0,1,316,941.15Z"/>
          </g>
        </g>
        <g id="Cup-2" data-name="Cup">
          <path class="cls-3" d="M542.83,1018.61l-3.86,7.5,4.81,18.3,5.19-13.15,3.86-7.5Zm1.67,18.26-2.39-10.72,1.93-3.75,5,2.57-3.21,6.26Z"/>
          <path class="cls-3" d="M571.62,1030.27l-13.71-10.22-6.44,12.5-5.23,16.29,7.36,16.44,17.65-3.56L581.48,1048l6.43-12.5Zm-6.5,27.08-4.29-6.12-7.47.07,4.49-6-2.37-7.09,7.07,2.43,6-4.44-.13,7.47,6.08,4.34-7.14,2.19Z"/>
        </g>
      </g>
      <g id="_2_2" data-name="2_2">
        <g id="Rocket-3" data-name="Rocket">
          <polygon class="cls-3" points="1113.9 1002.61 1109.58 1002.22 1107.3 998.52 1095.57 1002.7 1093.22 1028.66 1115.4 1014.97 1113.9 1002.61"/>
          <path class="cls-3" d="M1137.24,957.51l15.7,3.72,7.45-19-1.74-19.35L1140.56,930l-13.65,15.13Zm11.65-18.83a7.68,7.68,0,1,1-10.57,2.49A7.68,7.68,0,0,1,1148.89,938.68Z"/>
          <polygon class="cls-3" points="1125.72 998.29 1152.07 965.02 1135.08 961 1123.9 947.59 1105.9 985.97 1105.8 986.18 1112.64 997.26 1125.62 998.44 1125.72 998.29"/>
          <g>
            <polygon class="cls-3" points="1102.41 984.28 1117.57 951.95 1098.08 965.4 1082.12 987.51 1082.59 1001.52 1099.32 990.46 1102.41 984.28"/>
            <polygon class="cls-3" points="1151 972.63 1128.8 1000.67 1124.68 1006.15 1122.25 1026.06 1134.99 1020.23 1147.66 996.07 1151 972.63"/>
          </g>
        </g>
        <path id="Gamepad-3" data-name="Gamepad" class="cls-3" d="M1549.88,1000.89l-21.71.48-13.85,9.24-16.63-.91-18.93,10.63-.74,43.88,7.09,12.63,10.46-8.32,8.15-16.79,19.39-8.94,21.25-2.17,15.56,10.31,13.24,1.84-.32-14.48Zm-56.33,33.6a7,7,0,1,1,4.92-8.62A7,7,0,0,1,1493.55,1034.49Zm22.63,2.91-4,2,.31,4.46-3.38.93-2-4-4.46.31-.93-3.39,4-2-.31-4.47,3.39-.93,2,4,4.47-.31Zm-2.93-17.39-6.77,1.85-.93-3.39,6.77-1.85Zm27.16-13.8a3.52,3.52,0,1,1-2.46,4.31A3.51,3.51,0,0,1,1540.41,1006.21Zm-21.31,8.56,6.77-1.85.92,3.38-6.77,1.86Zm15.41,23.08a7,7,0,1,1,4.92-8.62A7,7,0,0,1,1534.51,1037.85Zm3.45-17.32a3.51,3.51,0,1,1,2.46-4.31A3.51,3.51,0,0,1,1538,1020.53Zm7.55,4.31a3.51,3.51,0,1,1,2.46-4.31A3.52,3.52,0,0,1,1545.51,1024.84Zm4.3-7.55a3.51,3.51,0,1,1,2.46-4.31A3.51,3.51,0,0,1,1549.81,1017.29Z"/>
        <g id="Disk-2" data-name="Disk">
          <path class="cls-3" d="M1369.54,795.22A33.75,33.75,0,1,0,1403.29,829,33.76,33.76,0,0,0,1369.54,795.22ZM1352.75,855a31.17,31.17,0,0,1-9.19-9.18l13.9-9.62a14,14,0,0,0,4.91,4.9Zm16.79-14.73A11.25,11.25,0,1,1,1380.79,829,11.25,11.25,0,0,1,1369.54,840.22Zm12.08-18.42a14.16,14.16,0,0,0-4.91-4.91l9.62-13.89a31.05,31.05,0,0,1,9.19,9.18Z"/>
          <circle class="cls-3" cx="1369.54" cy="828.97" r="5.62"/>
        </g>
        <g id="Headphones">
          <g id="Left_Earcap" data-name="Left Earcap">
            <polygon class="cls-3" points="798.92 823.49 795.7 850.61 805.91 855.54 808.28 817.75 798.92 823.49"/>
            <polygon class="cls-3" points="816.25 824.89 812.15 850.23 809.02 855.1 811.83 820.43 816.25 824.89"/>
            <polygon class="cls-3" points="795.34 829.7 793.95 842.59 789.52 838.13 795.34 829.7"/>
          </g>
          <g id="Right_Earcap" data-name="Right Earcap">
            <polygon class="cls-3" points="852.21 841.49 838.33 865 827.23 862.74 848.25 831.24 852.21 841.49"/>
            <polygon class="cls-3" points="837.57 832.09 825.48 854.72 825.01 860.5 843.8 831.23 837.57 832.09"/>
            <polygon class="cls-3" points="851.29 848.6 844.58 859.69 850.81 858.83 851.29 848.6"/>
          </g>
          <polygon id="Bridge" class="cls-3" points="789.54 833.68 792.22 830.14 795.4 811.92 823.94 793.35 850.58 802.35 862.02 834.41 853.51 850.83 853.49 855.28 866.02 835.76 855.05 797.92 823.07 787.12 791.41 810.57 789.54 833.68"/>
        </g>
        <g>
          <path id="Shield-2" data-name="Shield" class="cls-3" d="M1408.7,567.32l-30.56,4.35-5.6,40.2,10.91,18,19.86-4.13,24.38-34.13ZM1402.09,595,1385,626l9.24-34.18-10.16-8.65,12.79,2.13,9.17-11.46-1.35,14.62,10.69,7.34Z"/>
          <g id="Sword-2" data-name="Sword">
            <polygon class="cls-3" points="1352.45 605.28 1347.44 621.46 1350.05 622.51 1357.66 607.38 1352.45 605.28"/>
            <polygon class="cls-3" points="1348.28 600.57 1363.93 606.88 1367.59 605.32 1346.73 596.91 1348.28 600.57"/>
            <polygon class="cls-3" points="1352.99 596.4 1363.43 600.61 1377.65 557.83 1378.2 548.95 1371.38 558.33 1352.99 596.4"/>
          </g>
        </g>
        <g id="Bow-3" data-name="Bow">
          <polygon class="cls-3" points="1003 468.2 1009.36 455.2 994.96 456.67 1000.02 460 947.41 496.67 941.54 495.62 932.31 502.06 940.14 503.45 938.75 511.28 947.97 504.85 949.02 498.98 1001.63 462.3 1003 468.2"/>
          <g>
            <polygon class="cls-3" points="987.33 465.41 974.57 452.02 952.48 440 979.54 446.85 995.41 459.78 987.33 465.41"/>
            <polygon class="cls-3" points="1000.24 466.7 1006.88 486.07 1003.95 513.83 1000.31 488.94 992.16 472.33 1000.24 466.7"/>
            <g>
              <line class="cls-3" x1="951.09" y1="504.4" x2="1000.27" y2="506.1"/>
              <rect class="cls-3" x="974.98" y="480.64" width="1.41" height="49.22" transform="translate(436.11 1462.37) rotate(-87.97)"/>
            </g>
            <g>
              <line class="cls-3" x1="958.45" y1="446.12" x2="943.04" y2="492.86"/>
              <rect class="cls-3" x="926.14" y="468.78" width="49.22" height="1.41" transform="translate(207.06 1225.32) rotate(-71.74)"/>
            </g>
          </g>
        </g>
        <g id="Crowbar">
          <polygon class="cls-3" points="923.46 369.57 903.39 366.61 892.08 379.13 898.35 384.79 905.88 376.44 917.8 375.83 924.87 397.38 923.46 369.57"/>
          <polygon class="cls-3" points="831.77 445.93 824.23 454.28 790.13 468.96 826.72 464.11 838.03 451.58 831.77 445.93"/>
          <path class="cls-3" d="M888.31,383.31l-52.77,58.44,6.26,5.66L894.58,389Zm-8,19.32-4.18-3.77,1.89-2.09,2.09,1.89,1.88-2.09-2.09-1.88,1.89-2.09,2.09,1.88,1.88-2.08-2.09-1.89,1.89-2.09,4.17,3.77Z"/>
        </g>
        <path id="Keyboard-2" data-name="Keyboard" class="cls-3" d="M893.78,761.24l33.49,58.62L1064,741.73l-33.48-58.61Zm73.62-35.57,9.76-5.58,5.58,9.77L973,735.44Zm11.5,25.82-5.58-9.77,9.77-5.58,5.58,9.77Zm3.84,1,5.58,9.77-9.77,5.58L973,758.12Zm-27.56-19.88,9.77-5.58,5.58,9.77-9.77,5.58Zm5.93,16,9.77-5.58,5.58,9.77-9.77,5.58Zm9.42,10.82,5.58,9.77-9.77,5.58-5.58-9.77Zm-30-18.49,9.77-5.58,5.58,9.77-9.77,5.58Zm8.37,14.65,9.77-5.58,5.58,9.77-9.77,5.58Zm9.42,10.82,5.58,9.76-9.77,5.58-5.58-9.76Zm-30-18.5,9.77-5.58,5.58,9.77-9.77,5.58Zm8.37,14.66,9.77-5.58,5.58,9.76-9.77,5.58Zm9.42,10.81,5.58,9.77-9.77,5.58L936.34,779Zm-30-18.49,9.77-5.58,5.58,9.77-9.77,5.58Zm8.37,14.65,9.77-5.58,5.58,9.77-9.77,5.58Zm-23-6.28,9.77-5.58,5.58,9.77L907,773.11ZM909.83,778,922,771l5.58,9.76-12.21,7Zm7,12.21,17.1-9.76,5.58,9.76L922.38,800Zm22.33,16.4-9.77,5.58-5.58-9.77,9.77-5.58Zm12.21-7-9.77,5.58L936,795.44l9.77-5.58Zm41.51-23.72-39.07,22.32-5.58-9.77,39.07-22.32Zm12.22-7-9.77,5.58-5.58-9.76,9.76-5.58Zm12.21-7-9.77,5.58-5.58-9.77,9.77-5.58Zm-7-12.21-19.54,11.16-5.58-9.77L1004.72,740Zm-7-12.21-12.21,7-5.58-9.77,12.21-7ZM995,722.88l-9.76,5.58-5.58-9.76,9.76-5.58Zm37,30.71-9.77,5.58-5.58-9.77,9.77-5.58Zm-14-24.42-9.77,5.58-5.58-9.77,9.77-5.58Zm-8.37-14.66-9.77,5.58-5.58-9.76,9.77-5.58Zm34.53,32.1-9.77,5.58-5.58-9.77,9.77-5.58Zm-7-12.21L1027.4,740l-5.59-9.77,9.77-5.58Zm-7-12.21-9.77,5.58-5.58-9.77,9.77-5.58Zm-8.37-14.65-9.77,5.58-5.58-9.77,9.77-5.58Zm34.53,32.1-9.77,5.58-5.58-9.77,9.77-5.58Zm-13.95-24.42-9.77,5.58-5.58-9.77,9.77-5.58ZM1034,700.56l-9.77,5.58-5.58-9.77,9.77-5.58Z"/>
        <g id="Speaker-2" data-name="Speaker">
          <path class="cls-3" d="M1027.07,309l-7.33-3.11-26.07,10.56-3.1,7.32,9.62,53.76,11,4.65,41.71-16.88,4.66-11Zm-18.78,6.08a7,7,0,1,1-3.88,9.16A7,7,0,0,1,1008.29,315.09Zm22.16,54.75a21.1,21.1,0,1,1,11.64-27.47A21.09,21.09,0,0,1,1030.45,369.84Z"/>
          <circle class="cls-3" cx="1010.93" cy="321.61" r="2.81"/>
          <path class="cls-3" d="M1016.21,334.64a16.88,16.88,0,1,0,22,9.31A16.88,16.88,0,0,0,1016.21,334.64Zm9,22.16a7,7,0,1,1,3.88-9.15A7,7,0,0,1,1025.18,356.8Z"/>
        </g>
        <path id="Smile-2" data-name="Smile" class="cls-3" d="M1349,323a33.75,33.75,0,1,0,18.4,44A33.75,33.75,0,0,0,1349,323Zm6.13,14.68c2.87,1.17,3.29,6.79.93,12.54s-6.6,9.45-9.47,8.27-3.29-6.8-.93-12.54S1352.25,336.48,1355.12,337.66Zm-20.81-8.55c2.87,1.18,3.29,6.8.93,12.54s-6.6,9.46-9.48,8.28-3.29-6.8-.93-12.55S1331.43,327.93,1334.31,329.11Zm-6.68,45.9a28,28,0,0,1-16.15-17.59l4.84-.63a25.23,25.23,0,0,0,32.16,13.2l3,3.85A28.07,28.07,0,0,1,1327.63,375Z"/>
        <path id="GG-3" data-name="GG" class="cls-3" d="M1214.78,1014.88l-11,16.6,6.86,54.58,55.64-15.69,8.77-13.28-7.43-57.33Zm20.45,8.74-11.84,5.29-5.13,24,5.57,13.21,6.61-2.79.78-10.2-5-3.29,1.63-6.08,10.21.79-.72,24.55-19.54,9.73-7.83-24.23,6.76-30.09,16.5-10.55Zm19.28-4-5.13,24,5.57,13.21,6.61-2.78.78-10.21-5-3.29,1.63-6.07,10.21.78-.72,24.55-19.54,9.74-7.83-24.24,6.77-30.09,16.5-10.55,2,9.64Z"/>
        <g>
          <g id="Camera-3" data-name="Camera">
            <path class="cls-3" d="M1133.78,414l-8.71-5.18-12.69,6.07-1.43,10-21.57,10.32-2.64,7.5,17,35.52,7.5,2.64L1162,456.62l2.64-7.5-17-35.52-7.51-2.64Zm8,46.06a19.69,19.69,0,1,1,9.26-26.26A19.7,19.7,0,0,1,1141.79,460.05Zm-31.06-22.56a2.81,2.81,0,1,1,1.32-3.75A2.81,2.81,0,0,1,1110.73,437.49Z"/>
            <rect class="cls-3" x="1092.22" y="425.78" width="8.44" height="2.81" transform="translate(-76.99 515.09) rotate(-25.57)"/>
          </g>
          <path class="cls-3" d="M1126,427.07a16.87,16.87,0,1,0,22.5,7.93A16.87,16.87,0,0,0,1126,427.07Zm13.35,27.9a14.06,14.06,0,1,1,6.62-18.75A14.05,14.05,0,0,1,1139.36,455Z"/>
        </g>
        <g id="VR_Headset" data-name="VR Headset">
          <path class="cls-3" d="M828.36,300.14l-21,8.08-19,13.34,11.12,28.87,23-2.84,7-13.23,14,5.15,19-13.34L851.37,297.3Zm-16.14,36.35a8.44,8.44,0,1,1,4.84-10.9A8.44,8.44,0,0,1,812.22,336.49Zm31.49-12.13a8.44,8.44,0,1,1,4.85-10.91A8.43,8.43,0,0,1,843.71,324.36Z"/>
          <rect class="cls-3" x="805.09" y="298.84" width="22.5" height="2.81" transform="translate(-53.36 313.5) rotate(-21.07)"/>
          <rect class="cls-3" x="788.1" y="324.95" width="2.81" height="22.5" transform="translate(-68.08 306.25) rotate(-21.07)"/>
          <rect class="cls-3" x="858.96" y="297.66" width="2.81" height="22.5" transform="translate(-53.53 329.9) rotate(-21.07)"/>
        </g>
        <g id="Magic_Hat" data-name="Magic Hat">
          <polygon class="cls-3" points="862.8 697.61 858.57 705.04 831.55 701.1 819.11 686.04 820.7 677.63 810.49 676.88 798.34 681.4 812.1 696.95 826.49 706.73 850.24 715.47 862.74 714.07 872.74 707.25 862.8 697.61"/>
          <polygon class="cls-3" points="865.14 679.24 870.03 682.53 875.51 680.36 873.89 686.03 877.64 690.57 871.76 690.79 868.6 695.76 866.57 690.22 860.87 688.75 865.51 685.12 865.14 679.24"/>
          <path class="cls-3" d="M868.41,674.2l1.4,12.5,5.82-15.84-1.39-12.5-9.59-6.52-20.56,2.93-8.19,6-1.11,7.08-11,9.46-1.11,7.08L833,697.14l23.89,4.29,3.75-6.11L858.42,681l2.77-3.47L858.34,669l5.9-3.83Zm.7-11.85,1.61,1.12,1.84-.69-.57,1.88,1.22,1.54-2,0-1.08,1.64-.65-1.85-1.89-.53,1.57-1.18Zm-11.63-5.08,1.4-1.37.25,1.94,1.74.91-1.78.83-.32,1.94-1.34-1.44-1.95.3.95-1.72-.87-1.76ZM847,656.48,857,665l.46,2.23-2.34-.13-10-8.48-.19-2Zm3.27,11.13,1.66,1,1.81-.78-.48,1.9,1.31,1.47-2,.14-1,1.7-.74-1.82-1.91-.43,1.5-1.26Zm-6.75-5,1.37-1.4.28,1.95,1.76.87-1.77.86-.29,2-1.36-1.41-1.94.32.92-1.73-.91-1.74ZM832,682.82l-1.2,1.56-.51-1.9-1.85-.65,1.64-1.07,0-2,1.53,1.24,1.88-.56-.7,1.83,1.12,1.62Zm6.68-2.22-1-1.7-2-.15,1.32-1.46-.46-1.91,1.79.8,1.68-1-.21,2,1.5,1.28-1.92.41Zm1,13L838,692.49l-1.81.76.5-1.9-1.27-1.49,2-.11,1-1.68.71,1.84,1.91.45-1.53,1.24Zm5.72-6.16-1.67-1-1.8.79.47-1.91-1.3-1.47,2-.14,1-1.69.74,1.82,1.92.42-1.5,1.26Zm4.4-4.1,1.93.34,1.38-1.4.27,2,1.76.87-1.76.86-.29,2-1.37-1.41-1.93.32.91-1.73Zm3.55,12.44-1.93-.37-1.4,1.38-.24-2-1.75-.91,1.78-.83.32-1.94,1.35,1.44,1.94-.29-1,1.72Zm3.15-17.21.64,2-2,.45-18.33-10.66-.64-2,2.06-.43Zm6.37-23.95,1.33-1.42,1.48,1.31.41,7.82-1.33,1.56-1.48-1.45Z"/>
        </g>
        <g id="Magic_Wand-2" data-name="Magic Wand">
          <g>
            <polygon class="cls-3" points="1257.67 804.19 1258.05 813.66 1266.83 817.2 1257.37 817.58 1253.83 826.36 1253.45 816.9 1244.66 813.36 1254.13 812.98 1257.67 804.19"/>
            <polygon class="cls-3" points="1271.63 826.59 1272.01 836.05 1280.8 839.59 1271.33 839.97 1267.79 848.76 1267.41 839.29 1258.63 835.75 1268.09 835.38 1271.63 826.59"/>
            <polygon class="cls-3" points="1258.15 838.53 1258.43 845.63 1265.02 848.28 1257.92 848.56 1255.27 855.15 1254.98 848.06 1248.39 845.4 1255.49 845.12 1258.15 838.53"/>
            <polygon class="cls-3" points="1263.58 819.49 1263.77 824.22 1268.17 825.99 1263.43 826.18 1261.66 830.57 1261.47 825.84 1257.08 824.07 1261.81 823.88 1263.58 819.49"/>
            <polygon class="cls-3" points="1276.53 818.88 1276.72 823.61 1281.12 825.38 1276.38 825.57 1274.61 829.96 1274.42 825.23 1270.03 823.46 1274.76 823.27 1276.53 818.88"/>
            <polygon class="cls-3" points="1248.77 822.63 1248.96 827.36 1253.35 829.13 1248.62 829.32 1246.85 833.72 1246.66 828.98 1242.27 827.21 1247 827.02 1248.77 822.63"/>
          </g>
          <g>
            <path class="cls-3" d="M1222.33,859.71l34.48-24.31,3-5.54-6.22.94-34.48,24.31ZM1254.38,832l3.11-.47-1.49,2.77-5.75,4-2-.34.34-2Z"/>
            <polygon class="cls-3" points="1216.79 856.73 1198.4 869.69 1197.72 873.61 1201.64 874.29 1220.03 861.33 1216.79 856.73"/>
          </g>
        </g>
        <g id="The_Box-2" data-name="The Box">
          <g>
            <rect class="cls-3" x="1446.53" y="305.17" width="45" height="8.44" transform="translate(-26.97 434.88) rotate(-16.69)"/>
            <rect class="cls-3" x="1463.49" y="361.74" width="45" height="8.44" transform="translate(-42.5 442.13) rotate(-16.69)"/>
          </g>
          <g>
            <polygon class="cls-3" points="1473.94 325.78 1475.05 323.73 1480.71 313.23 1461.39 319.02 1471.89 324.68 1473.94 325.78"/>
            <polygon class="cls-3" points="1481.08 349.57 1479.97 351.62 1474.31 362.12 1493.63 356.33 1483.13 350.67 1481.08 349.57"/>
            <polygon class="cls-3" points="1453.13 334.71 1455.55 342.79 1463.87 340.3 1453.36 334.64 1453.13 334.71"/>
            <polygon class="cls-3" points="1496 321.85 1490.35 332.36 1498.66 329.87 1496.24 321.78 1496 321.85"/>
            <polygon class="cls-3" points="1458.78 353.56 1459.02 353.5 1464.67 342.99 1456.36 345.48 1458.78 353.56"/>
            <polygon class="cls-3" points="1501.66 340.71 1501.89 340.64 1499.47 332.56 1491.15 335.05 1501.66 340.71"/>
          </g>
          <g>
            <path class="cls-3" d="M1435.49,315l19.38,64.65,8.09-2.42-19.39-64.66Zm22.62,60.75a1.41,1.41,0,0,1-1.75-.94,1.4,1.4,0,0,1,2.69-.81A1.41,1.41,0,0,1,1458.11,375.79Zm-17-56.58a1.4,1.4,0,1,1-.81-2.69,1.4,1.4,0,0,1,.81,2.69Z"/>
            <path class="cls-3" d="M1492.06,298.08l19.39,64.65,8.08-2.42-19.38-64.66Zm22.62,60.75a1.41,1.41,0,1,1,.94-1.75A1.39,1.39,0,0,1,1514.68,358.83Zm-17-56.58a1.4,1.4,0,1,1,.94-1.75A1.4,1.4,0,0,1,1497.72,302.25Z"/>
          </g>
          <g>
            <polygon class="cls-3" points="1475.09 329.59 1457.58 320.16 1449.5 322.58 1451.92 330.67 1469.43 340.1 1479.93 345.76 1497.44 355.19 1505.52 352.77 1503.1 344.68 1485.59 335.25 1475.09 329.59"/>
            <polygon class="cls-3" points="1468.09 342.57 1460 357.61 1462.42 365.69 1470.5 363.26 1478.6 348.23 1468.09 342.57"/>
            <polygon class="cls-3" points="1484.52 312.08 1476.42 327.12 1486.93 332.78 1495.02 317.74 1492.6 309.66 1484.52 312.08"/>
          </g>
        </g>
        <g id="Crosshair-3" data-name="Crosshair">
          <g>
            <circle class="cls-3" cx="1244.51" cy="575.35" r="2.81"/>
            <path class="cls-3" d="M1239.94,562a14.07,14.07,0,1,0,17.87,8.74A14.07,14.07,0,0,0,1239.94,562Zm8.22,24a11.25,11.25,0,1,1,7-14.29A11.27,11.27,0,0,1,1248.16,586Z"/>
            <path class="cls-3" d="M1236.29,551.4a25.32,25.32,0,1,0,32.16,15.73A25.32,25.32,0,0,0,1236.29,551.4Zm15.52,45.23a22.5,22.5,0,1,1,14-28.58A22.51,22.51,0,0,1,1251.81,596.63Z"/>
          </g>
          <g>
            <polygon class="cls-3" points="1243.59 572.68 1227.32 542.59 1237.96 538.94 1243.59 572.68"/>
            <polygon class="cls-3" points="1241.85 576.26 1211.75 592.53 1208.1 581.89 1241.85 576.26"/>
            <polyline class="cls-3" points="1245.42 578.01 1261.69 608.11 1251.05 611.76 1245.42 578.01"/>
            <polyline class="cls-3" points="1247.17 574.43 1277.27 558.16 1280.92 568.8 1247.17 574.43"/>
          </g>
        </g>
        <g id="Xbox_Buttons-3" data-name="Xbox Buttons">
          <path class="cls-3" d="M1316.65,906.19a15.47,15.47,0,1,0,20,8.89A15.47,15.47,0,0,0,1316.65,906.19Zm16.43,19.07-2.46,3.67-7-4.72-2.06,8.22-4.28-1.08,2.44-9.75-8.35-5.6,2.46-3.66,7,4.71,2.06-8.21,4.28,1.07-2.45,9.75Z"/>
          <path id="Button_Y-2" data-name="Button Y" class="cls-3" d="M1283.94,891.65a15.47,15.47,0,1,0,20,8.89A15.47,15.47,0,0,0,1283.94,891.65Zm8.3,15.43,3.32,8.62-4.13,1.59-3.31-8.62-9.68-6.31,2.42-3.7,7.71,5,2.35-8.9,4.27,1.13Z"/>
          <g id="Button_B-2" data-name="Button B">
            <rect class="cls-3" x="1273.38" y="939.13" width="5.52" height="5.52" transform="translate(-253.03 520.78) rotate(-21.03)"/>
            <rect class="cls-3" x="1270.52" y="933.65" width="2.21" height="2.21" transform="translate(-250.77 518.68) rotate(-21.03)"/>
            <path class="cls-3" d="M1269.4,924.36a15.47,15.47,0,1,0,20,8.89A15.48,15.48,0,0,0,1269.4,924.36Zm16,21.66-13.4,5.16-3.57-9.28-4-10.32,10.31-4,2.38,6.18,3.1-1.19Z"/>
          </g>
          <g id="Button_A-3" data-name="Button A">
            <path class="cls-3" d="M1302.11,938.9a15.47,15.47,0,1,0,20,8.89A15.47,15.47,0,0,0,1302.11,938.9Zm14.51,21.92-3.37-3.71-7.21,2.77v5h-4.42l.08-21.34,3.84-1.48,14.36,15.79Z"/>
            <polygon class="cls-3" points="1306.06 955.14 1310.06 953.61 1306.08 949.24 1306.06 955.14"/>
          </g>
        </g>
        <g id="PlayStation_Buttons-2" data-name="PlayStation Buttons">
          <g id="Button_Square-2" data-name="Button Square">
            <rect class="cls-3" x="1513.59" y="425.27" width="8.84" height="8.84" transform="translate(500.77 1635.59) rotate(-65.66)"/>
            <path class="cls-3" d="M1524.38,415.59a15.47,15.47,0,1,0,7.72,20.47A15.48,15.48,0,0,0,1524.38,415.59Zm-2,25.79-16.11-7.28L1513.6,418l16.1,7.29Z"/>
          </g>
          <path id="Button_X-2" data-name="Button X" class="cls-3" d="M1537,449.09a15.47,15.47,0,1,0,7.72,20.47A15.47,15.47,0,0,0,1537,449.09Zm.1,25-4.13,1.56-3.63-9.63-9.63,3.63-1.56-4.13,9.63-3.63-3.63-9.63,4.13-1.56,3.63,9.63,9.63-3.63,1.56,4.13-9.63,3.63Z"/>
        </g>
        <g id="Hourglass-2" data-name="Hourglass">
          <path class="cls-3" d="M995.44,577l-41.06-9.73L956,585l9.4,15.23-15.24,9.4-9.36,15.13,41.05,9.72-1.58-17.72-9.4-15.23,15.23-9.4Zm-35.19-4,13,6,14.33.5-5.33,10.3-13.86,9.72-8-14.9ZM976,628.71l-27.37-6.49,2-2.41L961.15,618l6.3-14.4-.83,15.7,8.61,6.37Z"/>
          <g>
            <g>
              <rect class="cls-3" x="949.49" y="563.81" width="53.44" height="5.62" transform="translate(156.91 -209.78) rotate(13.33)"/>
              <rect class="cls-3" x="933.28" y="632.23" width="53.44" height="5.62" transform="translate(172.25 -204.2) rotate(13.33)"/>
            </g>
            <g>
              <rect class="cls-3" x="942.07" y="565.47" width="2.81" height="59.06" transform="translate(162.57 -201.47) rotate(13.33)"/>
              <rect class="cls-3" x="991.33" y="577.14" width="2.81" height="59.06" transform="translate(166.59 -212.51) rotate(13.33)"/>
            </g>
          </g>
        </g>
        <g id="Thumbs_Up-2" data-name="Thumbs Up">
          <polygon class="cls-3" points="1375.63 736.8 1387.97 745.59 1390.85 760.46 1400.31 754.37 1397.43 739.5 1385.1 730.72 1375.63 736.8"/>
          <path class="cls-3" d="M1438.16,706.63l-4.65-2-1.86-5.49-5.83-1.26L1412.05,705l-5.83-1.27-4.06-14.11-5-5.15-4.31,1.1,1.86,5.49,2.11,13.69-4.22,19.43-4,4.23,12.33,8.78,2.88,14.87L1431,739.67l6.76-7.69.08-5.07,2.79-3.46.51-7-3.47-2.79Zm-16.66-.91,2,2-4.7,4.65-2-2Zm-12.36,34.09L1400.75,721l9.52-10.12,9.33,8.2-4.16,19.15Zm17-8.07-4.29.21-.14-2.81,4.29-.21Zm3.54-8.75-5.94,1.16-.54-2.76,5.94-1.16Zm-.84-8.65-5.3,3.37-1.5-2.38,5.29-3.36Z"/>
        </g>
        <g id="Greande-2" data-name="Greande">
          <g>
            <polygon class="cls-3" points="1142.96 705.66 1135.3 709.2 1129.3 699.58 1139.52 694.86 1142.96 705.66"/>
            <rect class="cls-3" x="1125.25" y="683.93" width="11.25" height="11.25" transform="translate(-184.91 537.65) rotate(-24.79)"/>
            <polygon class="cls-3" points="1132.44 679.54 1122.23 684.26 1118.79 673.45 1126.45 669.91 1132.44 679.54"/>
            <polygon class="cls-3" points="1150.52 685.13 1140.89 691.13 1136.17 680.91 1146.98 677.47 1150.52 685.13"/>
            <polygon class="cls-3" points="1145.8 674.92 1135 678.36 1129 668.74 1132.83 666.97 1144.03 671.09 1145.8 674.92"/>
            <polygon class="cls-3" points="1119.68 685.43 1110.05 691.43 1108.28 687.6 1112.41 676.4 1116.24 674.63 1119.68 685.43"/>
            <polygon class="cls-3" points="1125.57 698.2 1114.77 701.64 1111.23 693.98 1120.86 687.99 1125.57 698.2"/>
            <polygon class="cls-3" points="1145.51 704.48 1142.07 693.68 1151.69 687.69 1153.46 691.52 1149.34 702.72 1145.51 704.48"/>
            <polygon class="cls-3" points="1132.74 710.38 1128.91 712.15 1117.72 708.02 1115.95 704.2 1126.75 700.75 1132.74 710.38"/>
          </g>
          <polygon class="cls-3" points="1131.65 664.41 1111.23 673.85 1110.24 665.01 1125.56 657.93 1131.65 664.41"/>
          <g>
            <path class="cls-3" d="M1141.08,644.57a11.25,11.25,0,1,0,14.93,5.5A11.26,11.26,0,0,0,1141.08,644.57Zm8.25,17.88a8.44,8.44,0,1,1,4.13-11.2A8.45,8.45,0,0,1,1149.33,662.45Z"/>
            <g>
              <path class="cls-3" d="M1146.79,660.3l-2.27-4.92-4.3-1.12a5.56,5.56,0,0,0,6.57,6Z"/>
              <path class="cls-3" d="M1146.09,668.84l9.93,21.5,3.83-1.77-9.47-20.49A14,14,0,0,1,1146.09,668.84Z"/>
              <path class="cls-3" d="M1132,652.14l-6.83-1.77-17.88,8.25,1.77,3.83,15.32-7.07,7.59,1.87A13.93,13.93,0,0,1,1132,652.14Z"/>
            </g>
          </g>
        </g>
        <g id="Map-3" data-name="Map">
          <g>
            <polygon class="cls-3" points="1474.18 929.77 1474.46 932.46 1474.88 936.59 1475.46 942.29 1466.57 941.93 1474.18 929.77"/>
            <polygon class="cls-3" points="1453.78 983.7 1463.52 973.85 1456.12 969.55 1453.78 983.7"/>
          </g>
          <path class="cls-3" d="M1458.15,952.28,1473.36,928l-35.83-16.56-25.66-3.7L1399.28,933l-7,30.43,23.35,5.83,35.84,16.56Zm-21.39-29.42,3.81,4.13-2.06,1.91-3.82-4.14ZM1434.62,944l5.21,3.53-1.58,2.33-4.09-2.78-4.73,1.46-.83-2.68Zm-10.89-28,9,3.4-1,2.63-9-3.4Zm-5.54-.65,1.16,2.57-4.47,2-1.28,6.46,4.16,1.37-.88,2.67-6.53-2.15,2.06-10.32Zm-9.39,21.56,6.22.44-.2,2.8-5-.35-3.68,3.41-1.91-2.07ZM1402.19,957l.58-7.67,2.8.21-.27,3.55,3.4-1,.83,2.69Zm19.38-25,.87-2.67,6.88,2.26-4.52,9.29-6.56-.46.2-2.81,4.66.33,2.28-4.69Zm-7.06,21.22-.83-2.69,9.94-3.07.83,2.69Zm15.23,9L1421.2,965l-.89-2.67,10.41-3.49,4.1,5.19-2.21,1.74Zm7.62,9.65-4.1-5.18,2.21-1.75,2.88,3.65,6.7-2.17.19-4.64,2.81.11-.27,6.6Zm4.15-19.74,1.57-2.33,5.31,3.6-.26,6.4-2.81-.11.2-4.84Zm12.62-6.7-3.94-8.72-8.77,3.63-2.15-5.19,8.61-3.57-4.38-9.71,5.13-2.32,4.45,9.87,8.51-3.52,2.15,5.19-8.35,3.46,3.87,8.57Z"/>
        </g>
        <g id="Fist-2" data-name="Fist">
          <polygon class="cls-3" points="1128.51 773.74 1134.56 769.23 1140.59 772.27 1147.39 770.03 1154.16 775.33 1162.47 773.85 1168.48 780.66 1178.3 779.94 1182.05 787.5 1178.99 797.3 1172.92 809.35 1169.13 813.12 1163.85 812.34 1161.22 808.18 1165.94 793.03 1166.19 788.96 1164.17 792.31 1157.83 807.42 1154.05 809.29 1149.53 807.01 1148.41 803.61 1151.11 789.09 1151.11 785.13 1149.17 788.55 1145.02 802.85 1142.74 805.48 1137.46 804.71 1134.84 800.55 1138.35 784.94 1138.3 780.56 1136.18 784.39 1131.44 799.78 1127.66 801.66 1123.9 797.87 1125.46 783.54 1128.51 773.74"/>
          <polygon class="cls-3" points="1179.74 799.57 1179.71 810.88 1169.86 822.93 1163.06 825.17 1154.02 820.61 1145.72 818.32 1144.97 816.05 1151.03 811.55 1158.57 811.57 1160.83 814.6 1169.12 816.89 1175.93 810.87 1179.74 799.57"/>
          <polygon class="cls-3" points="1125.48 775.99 1120.19 779 1123.18 788.06 1123.2 782.4 1125.48 775.99"/>
        </g>
        <path id="Pacman-3" data-name="Pacman" class="cls-3" d="M1120.05,546.66a31.82,31.82,0,1,0,14.83,28.15l-31.79-1.23Zm-27.89,14.7a4,4,0,1,1,5.37,1.66A4,4,0,0,1,1092.16,561.36Zm35,17.13-.45,1.61a24.24,24.24,0,0,1-12.19,15.17l-1.23-2.34A21.58,21.58,0,0,0,1123.64,581l-19.24-.75.1-2.65Z"/>
        <g id="WASD-2" data-name="WASD">
          <g>
            <polygon class="cls-3" points="1212.57 341.82 1207.54 354.95 1212.8 356.96 1217.74 355.84 1219.75 350.59 1216.51 343.32 1212.57 341.82"/>
            <path class="cls-3" d="M1232.81,342l-13.44-8.16-15.45-2.9-13.18,26.57,16.57,7.85,17.57,5.22ZM1220.68,360l-6.76,1.93-11.82-4.53,8-21,10.5,4,3.56,10.39Z"/>
          </g>
          <path class="cls-3" d="M1193.41,327,1180,318.8l-15.45-2.9-13.18,26.57,16.57,7.85,17.57,5.22Zm-11.7,13.23-1.17,3.69-10.87,1.84-8.45-7.42,3-3.27,7,6.51,4.88-1-10-11.57,1.17-3.69,10.87-1.84,8.45,7.42-3,3.27-7.05-6.51-4.88,1Z"/>
          <g>
            <polygon class="cls-3" points="1130.36 320.09 1137.25 322.72 1136.33 314.8 1130.36 320.09"/>
            <path class="cls-3" d="M1154,311.88l-13.44-8.16-15.45-2.9-13.18,26.57,16.57,7.85,17.57,5.22Zm-15.67,20.35-.56-4.89-10.9-4.17-3.68,3.26-2.93-3.1,16.24-14.39,3.6,1.38,2.48,21.56Z"/>
          </g>
          <path class="cls-3" d="M1206.48,292.81,1193,284.65l-15.45-2.9-13.18,26.58,16.57,7.84,17.57,5.22Zm-16,20.08-3.89-1.34,1.18-13.18-7.92,10.6-3.79-1.6,3.17-20.11,4.18.64-1.83,11.68,7.28-9.74,3.8,1.45-1.08,12.12,6.43-9.92,3.54,2.31Z"/>
        </g>
        <g id="Portal_Cube-3" data-name="Portal Cube">
          <g>
            <g>
              <path class="cls-3" d="M976.44,1024.19l5.22-13.3-20.94-8.23-8.23,21,13.3,5.22A22.55,22.55,0,0,1,976.44,1024.19Z"/>
              <path class="cls-3" d="M1002,1043.07l13.3,5.22,8.23-20.94-20.95-8.23-5.22,13.3A22.51,22.51,0,0,1,1002,1043.07Z"/>
            </g>
            <path class="cls-3" d="M993,1028.22l3.35-8.54-10.47-4.11-3.36,8.54a22.24,22.24,0,0,1,5.51,1.37A22.57,22.57,0,0,1,993,1028.22Z"/>
          </g>
        </g>
        <g id="UFO">
          <g>
            <path class="cls-3" d="M873.13,531.47c-2-5.88-21.53-4.45-43.54,3.18s-38.22,18.56-36.18,24.44c1,2.93,6.41,4,14.3,3.46l.91,10.25,2.8-.25-.91-10.26a140.81,140.81,0,0,0,51.17-17.73l5.63,8.63,2.35-1.54L864,543C870.6,538.61,874.15,534.4,873.13,531.47Zm-38,19.12c-11.74,4.07-21.67,6.18-22.18,4.71s8.6-6,20.34-10,21.67-6.18,22.18-4.71S846.85,546.52,835.11,550.59Z"/>
            <path class="cls-3" d="M825,521.36c-8.47,2.93-13.93,10.27-13.87,17.7A185.89,185.89,0,0,1,828.67,532a188.55,188.55,0,0,1,18.16-5.31C842.29,520.81,833.46,518.42,825,521.36Zm-2.55,9.81a2.81,2.81,0,1,1,1.74-3.58A2.81,2.81,0,0,1,822.43,531.17Zm10.63-3.68a2.81,2.81,0,1,1,1.74-3.58A2.81,2.81,0,0,1,833.06,527.49Z"/>
          </g>
          <g>
            <rect class="cls-3" x="833.63" y="561.14" width="11.25" height="2.81" transform="matrix(0.94, -0.33, 0.33, 0.94, -137.91, 305.72)"/>
            <rect class="cls-3" x="829.85" y="566.46" width="22.5" height="2.81" transform="translate(-139.55 306.61) rotate(-19.11)"/>
            <rect class="cls-3" x="826.06" y="571.77" width="33.75" height="2.81" transform="translate(-141.19 307.51) rotate(-19.11)"/>
            <rect class="cls-3" x="822.28" y="577.09" width="45" height="2.81" transform="translate(-142.82 308.4) rotate(-19.11)"/>
            <rect class="cls-3" x="818.49" y="582.4" width="56.25" height="2.81" transform="translate(-144.46 309.3) rotate(-19.11)"/>
          </g>
        </g>
        <g id="Lambda-3" data-name="Lambda">
          <path class="cls-3" d="M1389.38,444a33.75,33.75,0,1,0,46.16,12.15A33.75,33.75,0,0,0,1389.38,444Zm31.18,53.45A28.13,28.13,0,1,1,1430.68,459,28.13,28.13,0,0,1,1420.56,497.45Z"/>
          <g>
            <rect class="cls-3" x="1407.29" y="449.67" width="5.62" height="39.37" transform="translate(147.67 1253.55) rotate(-50.26)"/>
            <rect class="cls-3" x="1387.7" y="457.06" width="11.25" height="5.62" transform="translate(-41.91 764.73) rotate(-30.26)"/>
            <rect class="cls-3" x="1419.25" y="475.17" width="11.25" height="5.62" transform="translate(146.37 1268.02) rotate(-50.26)"/>
            <polygon class="cls-3" points="1406.3 463.11 1400.67 463.13 1400.83 497.3 1406.44 494.03 1406.3 463.11"/>
          </g>
        </g>
        <path id="Black_Mesa-2" data-name="Black Mesa" class="cls-3" d="M942.32,879.84a33.75,33.75,0,1,0,13.86,45.67A33.75,33.75,0,0,0,942.32,879.84Zm-2.65,5a28.08,28.08,0,0,1,1.54,48.69l-2.4-17.26L916.49,904.3l-9.28,17.36-7.78-4.15a28.12,28.12,0,0,1,40.24-32.71Z"/>
        <g id="Sharingan-3" data-name="Sharingan">
          <g>
            <path class="cls-3" d="M1285.47,449.94a11.25,11.25,0,1,0,12.67,2.63l1.62-1.61,4.44,0,2.67.9-2.21-2.23-6.22-3.58-6.23.86Z"/>
            <path class="cls-3" d="M1261.8,488.78a11.26,11.26,0,1,0-4.06-12.29l-2.19-.6-2.21-3.86-.55-2.76-.83,3v7.17l3.87,5Z"/>
            <path class="cls-3" d="M1306.34,490a11.26,11.26,0,1,0-8.62,9.66l.58,2.2-2.24,3.84L1294,507.6l3-.8,6.21-3.59,2.37-5.83Z"/>
          </g>
          <g>
            <path class="cls-3" d="M1301.61,476.3a13.1,13.1,0,0,1,2.66,1.88A19.62,19.62,0,0,0,1302,466.1a13.39,13.39,0,0,1-1.72,2.88A16.82,16.82,0,0,1,1301.61,476.3Z"/>
            <path class="cls-3" d="M1282.54,492.31a17.22,17.22,0,0,1-3.18-.74,19.09,19.09,0,0,1-2.17-.92,13.09,13.09,0,0,1-2.81,1.64,19.2,19.2,0,0,0,9.58,3A13.26,13.26,0,0,1,1282.54,492.31Z"/>
            <path class="cls-3" d="M1276,461.15a13.57,13.57,0,0,1,.29-3.34,19.6,19.6,0,0,0-9.11,8.91,13.31,13.31,0,0,1,3.27-.09A16.7,16.7,0,0,1,1276,461.15Z"/>
          </g>
        </g>
        <polygon id="Quake-2" data-name="Quake" class="cls-3" points="1553.59 682.36 1546.8 667.97 1549.62 680.94 1545.71 695.97 1531.7 705.88 1519.68 706.05 1524.72 692.03 1529.64 690.81 1513.75 685.11 1516.77 689.18 1511.74 703.2 1502.58 695.43 1498.07 678.87 1504.61 664.78 1515.03 656.57 1500.64 663.36 1491.35 680.94 1494.44 701.47 1507.94 713.79 1505.37 720.95 1504.59 735.61 1513.32 723.8 1515.88 716.64 1534.14 715.72 1549.58 701.84 1553.59 682.36"/>
        <g id="Joystick-2" data-name="Joystick">
          <path class="cls-3" d="M1291.85,652.62a11.24,11.24,0,0,0-10.73,19.56l-9.93,25.2a2.81,2.81,0,1,0,5.23,2.06l9.93-25.2a11.24,11.24,0,0,0,5.5-21.62Z"/>
          <g>
            <path class="cls-3" d="M1262,693.77a12.66,12.66,0,1,0,23.08-1l-3.45,8.76a8.44,8.44,0,1,1-15.7-6.18l3.45-8.76A12.6,12.6,0,0,0,1262,693.77Z"/>
            <path class="cls-3" d="M1300.37,684.69l-10.47-4.12-2.89,7.35a16.87,16.87,0,1,1-15.7-6.19l2.89-7.35-10.46-4.12-7.3,3.17-18.64,32,3.18,7.3,47.1,18.56,7.29-3.17,8.17-36.08Zm-53.92,25.61a4.22,4.22,0,1,1,5.47-2.38A4.21,4.21,0,0,1,1246.45,710.3Zm39.25,15.47a4.22,4.22,0,1,1,5.47-2.38A4.23,4.23,0,0,1,1285.7,725.77Z"/>
          </g>
        </g>
        <g id="Cup-3" data-name="Cup">
          <path class="cls-3" d="M1502.83,538.61l-3.86,7.5,4.81,18.3,5.19-13.15,3.86-7.5Zm1.67,18.26-2.39-10.72,1.93-3.75,5,2.57-3.21,6.26Z"/>
          <g>
            <polygon class="cls-3" points="1509.85 583.35 1506.63 589.6 1505.3 595.25 1489.58 595.06 1488.29 597.56 1518.3 613.01 1519.59 610.51 1510.3 597.82 1514.13 593.46 1517.35 587.21 1512.31 587.78 1509.85 583.35"/>
            <path class="cls-3" d="M1531.62,550.28l-13.71-10.23-6.44,12.5-5.23,16.29,7.36,16.44,17.65-3.56L1541.48,568l6.43-12.5Zm-6.5,27.07-4.29-6.12-7.47.07,4.49-6-2.37-7.09,7.07,2.43,6-4.44-.13,7.47,6.08,4.34-7.14,2.19Z"/>
          </g>
        </g>
        <path id="Anonimus-2" data-name="Anonimus" class="cls-3" d="M1031.85,834.65l-28,14.25,11.76,30.74,20.76,22,22.19,7.37-7.77-11.12.36-3.67,6.15-2.35,2.71,2.49,1.63,13.47,11.61-20.3.77-30.24-11.76-30.74Zm-14.69,21.48,8.05-6.6,9.45,1.67.22,5.2-7.91-2.26-7.68,2.94-4.39,7Zm9.09,5.33,8.86.14-5.92,7.55-9.45-1.67Zm35.76,19.8-7.68,2.94-4.25-1.9-1.9,4.25-9.22,3.53L1025,881.31l13.7,3.57,4.61-1.77,3.44-4.83,3.07-1.18,5.79,1.31,4.61-1.76,7.82-11.8Zm-5.16-22.7-9.44-1.67,6.5-6,8.87.13Zm-.68-15.59-7.68,2.94-4.39,7-3.3-4,5.92-7.55,10.4-.46,7,4.39Z"/>
        <g id="Campfire-2" data-name="Campfire">
          <g>
            <g>
              <polygon class="cls-3" points="1494.62 871.91 1493.92 879.45 1487.18 881.46 1482.09 874.17 1487.22 866.77 1494.62 871.91"/>
              <polygon class="cls-3" points="1496.91 869.76 1488.17 865.02 1508.14 853.23 1532.95 842.92 1538.19 845.76 1537.1 851.96 1531.45 847.76 1518.38 853.12 1496.22 877.3 1496.91 869.76"/>
            </g>
            <g>
              <polygon class="cls-3" points="1530.91 850.86 1524.82 860 1528.97 869.04 1539.76 865.84 1538.3 856 1530.91 850.86"/>
              <g>
                <polygon class="cls-3" points="1485.08 864.48 1497.75 857.78 1485.22 860.03 1478.08 860.69 1475.64 867.28 1479.94 871.87 1482.23 869.72 1485.08 864.48"/>
                <polygon class="cls-3" points="1518.23 857.56 1503.91 873.55 1526.28 869.84 1522.13 860.8 1526.86 852.06 1518.23 857.56"/>
              </g>
            </g>
          </g>
          <path class="cls-3" d="M1491.3,804l-5.62,35.41,5.9,10,13.74,1.79,10.53-9-.51-11.58Zm12.41,41.79-6.19-1.1-3-5,3.54-12.78,9.94,8.78.25,5.79Z"/>
        </g>
        <g id="Tetris-2" data-name="Tetris">
          <path class="cls-3" d="M797.63,967.59l25.46,62.52,41.68-17-25.46-62.51Zm38.65,42.72-4.55,1.85,1.85,4.56-3.9,1.59-1.86-4.55-4.56,1.85-1.59-3.9,4.56-1.86-1.86-4.56,3.91-1.59,1.85,4.56,4.56-1.86Zm9.63-6.2a2.81,2.81,0,1,1,1.54-3.66A2.81,2.81,0,0,1,845.91,1004.11Zm7.33,3.09a2.81,2.81,0,1,1,1.54-3.67A2.82,2.82,0,0,1,853.24,1007.2Zm-4.29-18-31.26,12.73L805,970.68,836.22,958Z"/>
          <polygon class="cls-3" points="820.78 994.61 841.62 986.12 833.13 965.28 820.78 994.61"/>
        </g>
      </g>
    </g>
  </g>
  <g id="Gamepad-4" data-name="Gamepad">
    <g id="Play_Button_with_Shadow" data-name="Play Button with Shadow">
      <path id="Play_Button_Shadow" data-name="Play Button Shadow" class="cls-4" d="M872,728l-96-32-96,32-32,80,32,80,96,32,96-32,32-80ZM736,864V752l112,56Z"/>
      <path id="Play_Button" data-name="Play Button" class="cls-5" d="M856,712l-96-32-96,32-32,80,32,80,96,32,96-32,32-80ZM720,848V736l65.33,32.67L832,792Z"/>
    </g>
    <g id="Cable_with_Shadow" data-name="Cable with Shadow">
      <path id="Cable_Shadow" data-name="Cable Shadow" class="cls-6" d="M760,268c0-48-39.42-62.87-28-80,32-48,43.71,26.59,106.26-1.84,88-40,120,8,128-32,4.85-24.26-23.71-40.8-64-64-41.66-24-55.57,2.24-80,16-38,21.42-55.88-21.63-96,0-73.78,39.77-72.73,75.52-120,72-33.69-2.51-72-8-64-48,6.08-30.39,56,8,104-56,21.47-28.62,60.09-32,80-32,9,0,20.59,0,29-7.18C764.89,26.72,768.5,10.72,768-4"/>
      <path id="Cable" class="cls-7" d="M756,264c0-48-39.42-62.87-28-80,32-48,43.71,26.59,106.27-1.84,88-40,120,8,128-32,4.85-24.26-23.71-40.8-64-64-41.66-24-55.58,2.24-80,16-38,21.42-55.89-21.63-96,0-73.79,39.77-72.74,75.52-120,72-33.7-2.51-72-8-64-48,6.07-30.39,56,8,104-56,21.46-28.62,60.09-32,80-32,9,0,20.59,0,29-7.18C760.88,22.72,764.49,6.72,764-8"/>
    </g>
    <g id="Gamepad_Shadow" data-name="Gamepad Shadow">
      <polygon id="Cable_Connector" data-name="Cable Connector" class="cls-8" points="732 300 748 284 812 284 828 300 780 300 732 300"/>
      <g id="Bumper_Buttons" data-name="Bumper Buttons">
        <polygon class="cls-9" points="492 316 492 348 636 284 620 268 492 316"/>
        <polygon class="cls-9" points="940 268 924 284 1068 348 1068 316 940 268"/>
      </g>
      <polygon id="Base" class="cls-9" points="780 300 652 268 476 348 396 652 428 748 524 716 620 604 780 572 940 604 1036 716 1132 748 1164 652 1084 348 908 268 780 300"/>
    </g>
    <g id="Gamepad-5" data-name="Gamepad">
      <polygon id="Cable_Connector-2" data-name="Cable Connector" class="cls-10" points="708 276 724 260 788 260 804 276 756 276 708 276"/>
      <g id="Bumper_Buttons-2" data-name="Bumper Buttons">
        <polygon class="cls-10" points="468 292 468 324 612 260 596 244 468 292"/>
        <polygon class="cls-10" points="916 244 900 260 1044 324 1044 292 916 244"/>
      </g>
      <polygon id="Base-2" data-name="Base" class="cls-11" points="756 276 628 244 452 324 372 628 404 724 500 692 596 580 756 548 916 580 1012 692 1108 724 1140 628 1060 324 884 244 756 276"/>
      <g id="Buttons_with_Shadow" data-name="Buttons with Shadow">
        <g id="Buttons_Shadow" data-name="Buttons Shadow">
          <g id="Action_Buttons" data-name="Action Buttons">
            <circle class="cls-4" cx="972" cy="348" r="24"/>
            <circle class="cls-4" cx="972" cy="444" r="24"/>
            <circle class="cls-4" cx="924" cy="396" r="24"/>
            <circle class="cls-4" cx="1020" cy="396" r="24"/>
          </g>
          <polygon id="Arrows" class="cls-4" points="716 476 688 472 684 444 652 444 648 472 620 476 620 508 648 512 652 540 684 540 688 512 716 508 716 476"/>
          <g id="Control_Buttons" data-name="Control Buttons">
            <rect class="cls-4" x="684" y="348" width="48" height="16"/>
            <rect class="cls-4" x="796" y="348" width="48" height="16"/>
          </g>
        </g>
        <g id="Buttons">
          <g id="Action_Buttons-2" data-name="Action Buttons">
            <circle class="cls-12" cx="964" cy="340" r="24"/>
            <circle class="cls-13" cx="964" cy="436" r="24"/>
            <circle class="cls-14" cx="916" cy="388" r="24"/>
            <circle class="cls-5" cx="1012" cy="388" r="24"/>
          </g>
          <g id="Sticks_Base_with_Shadow" data-name="Sticks Base with Shadow">
            <g id="Sticks_Base" data-name="Sticks Base">
              <circle class="cls-15" cx="852" cy="484" r="48"/>
              <circle class="cls-15" cx="548" cy="388" r="48"/>
            </g>
            <g id="Sticks_Base_Shadow" data-name="Sticks Base Shadow">
              <path d="M860,444a47.55,47.55,0,0,1,29.56,10.44,47.83,47.83,0,1,0-67.12,67.12A47.76,47.76,0,0,1,860,444Z"/>
              <path d="M556,348a47.55,47.55,0,0,1,29.56,10.44,47.83,47.83,0,1,0-67.12,67.12A47.76,47.76,0,0,1,556,348Z"/>
            </g>
          </g>
          <g id="Sticks_with_Shadow" data-name="Sticks with Shadow">
            <g id="Sticks_Shadow" data-name="Sticks Shadow">
              <circle class="cls-4" cx="860" cy="492" r="32"/>
              <circle class="cls-4" cx="556" cy="396" r="32"/>
            </g>
            <g id="Sticks">
              <circle class="cls-10" cx="852" cy="484" r="32"/>
              <circle class="cls-10" cx="548" cy="388" r="32"/>
            </g>
          </g>
          <polygon id="Arrows-2" data-name="Arrows" class="cls-10" points="708 468 680 464 676 436 644 436 640 464 612 468 612 500 640 504 644 532 676 532 680 504 708 500 708 468"/>
          <g id="Control_Buttons-2" data-name="Control Buttons">
            <rect class="cls-10" x="676" y="340" width="48" height="16"/>
            <rect class="cls-10" x="788" y="340" width="48" height="16"/>
          </g>
        </g>
      </g>
    </g>
  </g>
</svg>
