<svg xmlns="http://www.w3.org/2000/svg" viewBox="0 0 64 64">
  <defs>
    <style>
      .cls-1 {
        fill: #ffc800;
      }

      .cls-10, .cls-11, .cls-12, .cls-13, .cls-14, .cls-2, .cls-3, .cls-4, .cls-7, .cls-8, .cls-9 {
        stroke: #000;
      }

      .cls-10, .cls-11, .cls-12, .cls-13, .cls-14, .cls-2, .cls-3, .cls-4, .cls-5, .cls-6, .cls-7, .cls-8, .cls-9 {
        stroke-miterlimit: 10;
      }

      .cls-2, .cls-5, .cls-8 {
        stroke-width: 0.5px;
      }

      .cls-3 {
        fill: #ff0032;
      }

      .cls-10, .cls-11, .cls-12, .cls-13, .cls-14, .cls-3, .cls-6, .cls-7, .cls-9 {
        stroke-width: 0.25px;
      }

      .cls-4, .cls-5, .cls-8 {
        fill: none;
      }

      .cls-4 {
        stroke-width: 0.75px;
      }

      .cls-5 {
        stroke: #ff0032;
      }

      .cls-6 {
        stroke: #1d1d1b;
      }

      .cls-9 {
        fill: #969696;
      }

      .cls-10 {
        fill: #fff;
      }

      .cls-11 {
        fill: #ff0;
      }

      .cls-12 {
        fill: #64e100;
      }

      .cls-13 {
        fill: #0096ff;
      }

      .cls-14 {
        fill: #c8c8c8;
      }
    </style>
  </defs>
  <g id="Background">
    <rect id="Background-2" data-name="Background" class="cls-1" width="64" height="64"/>
  </g>
  <g id="Play_Button_with_Shadow" data-name="Play Button with Shadow">
    <path id="Play_Button_Shadow" data-name="Play Button Shadow" class="cls-2" d="M38.5,45.5l-6-2-6,2-2,5,2,5,6,2,6-2,2-5ZM30,54V47l7,3.5Z"/>
    <path id="Play_Button" data-name="Play Button" class="cls-3" d="M37.5,44.5l-6-2-6,2-2,5,2,5,6,2,6-2,2-5ZM29,53V46l4.08,2L36,49.5Z"/>
  </g>
  <g id="Cable_with_Shadow" data-name="Cable with Shadow">
    <path id="Cable_Shadow" data-name="Cable Shadow" class="cls-4" d="M31.5,16.75c0-3-2.46-3.93-1.75-5,2-3,2.73,1.66,6.64-.12,5.5-2.5,7.5.5,8-2,.31-1.51-1.48-2.54-4-4s-3.47.14-5,1c-2.37,1.34-3.49-1.35-6,0-4.61,2.49-4.54,4.73-7.5,4.5-2.1-.15-4.5-.5-4-3,.38-1.89,3.5.5,6.5-3.5,1.34-1.78,3.76-2,5-2a2.71,2.71,0,0,0,1.81-.44A3.13,3.13,0,0,0,32-.25"/>
    <path id="Cable" class="cls-5" d="M31.25,16.5c0-3-2.46-3.93-1.75-5,2-3,2.73,1.66,6.64-.12,5.5-2.5,7.5.5,8-2,.3-1.51-1.48-2.54-4-4s-3.47.14-5,1c-2.38,1.34-3.49-1.35-6,0-4.61,2.49-4.54,4.73-7.5,4.5-2.1-.15-4.5-.5-4-3,.38-1.89,3.5.5,6.5-3.5,1.34-1.78,3.76-2,5-2A2.71,2.71,0,0,0,31,1.94a3.17,3.17,0,0,0,.8-2.44"/>
  </g>
  <g id="Gamepad_Shadow" data-name="Gamepad Shadow">
    <g>
      <polygon id="Cable_Connector" data-name="Cable Connector" class="cls-6" points="29.75 18.75 30.75 17.75 34.75 17.75 35.75 18.75 32.75 18.75 29.75 18.75"/>
      <g id="Bumper_Buttons" data-name="Bumper Buttons">
        <polygon class="cls-7" points="14.75 19.75 14.75 21.75 23.75 17.75 22.75 16.75 14.75 19.75"/>
        <polygon class="cls-7" points="42.75 16.75 41.75 17.75 50.75 21.75 50.75 19.75 42.75 16.75"/>
      </g>
      <polygon id="Base" class="cls-7" points="32.75 18.75 24.75 16.75 13.75 21.75 8.75 40.75 10.75 46.75 16.75 44.75 22.75 37.75 32.75 35.75 42.75 37.75 48.75 44.75 54.75 46.75 56.75 40.75 51.75 21.75 40.75 16.75 32.75 18.75"/>
    </g>
    <g>
      <polygon id="Cable_Connector-2" data-name="Cable Connector" class="cls-8" points="29.75 18.75 30.75 17.75 34.75 17.75 35.75 18.75 32.75 18.75 29.75 18.75"/>
      <g id="Bumper_Buttons-2" data-name="Bumper Buttons">
        <polygon class="cls-8" points="14.75 19.75 14.75 21.75 23.75 17.75 22.75 16.75 14.75 19.75"/>
        <polygon class="cls-8" points="42.75 16.75 41.75 17.75 50.75 21.75 50.75 19.75 42.75 16.75"/>
      </g>
      <polygon id="Base-2" data-name="Base" class="cls-8" points="32.75 18.75 24.75 16.75 13.75 21.75 8.75 40.75 10.75 46.75 16.75 44.75 22.75 37.75 32.75 35.75 42.75 37.75 48.75 44.75 54.75 46.75 56.75 40.75 51.75 21.75 40.75 16.75 32.75 18.75"/>
    </g>
  </g>
  <g id="Gamepad">
    <polygon id="Cable_Connector-3" data-name="Cable Connector" class="cls-9" points="28.25 17.25 29.25 16.25 33.25 16.25 34.25 17.25 31.25 17.25 28.25 17.25"/>
    <g id="Bumper_Buttons-3" data-name="Bumper Buttons">
      <polygon class="cls-9" points="13.25 18.25 13.25 20.25 22.25 16.25 21.25 15.25 13.25 18.25"/>
      <polygon class="cls-9" points="41.25 15.25 40.25 16.25 49.25 20.25 49.25 18.25 41.25 15.25"/>
    </g>
    <polygon id="Base-3" data-name="Base" class="cls-10" points="31.25 17.25 23.25 15.25 12.25 20.25 7.25 39.25 9.25 45.25 15.25 43.25 21.25 36.25 31.25 34.25 41.25 36.25 47.25 43.25 53.25 45.25 55.25 39.25 50.25 20.25 39.25 15.25 31.25 17.25"/>
    <g id="Buttons_with_Shadow" data-name="Buttons with Shadow">
      <g id="Buttons_Shadow" data-name="Buttons Shadow">
        <g id="Action_Buttons" data-name="Action Buttons">
          <circle class="cls-2" cx="44.75" cy="21.75" r="1.5"/>
          <circle class="cls-2" cx="44.75" cy="27.75" r="1.5"/>
          <circle class="cls-2" cx="41.75" cy="24.75" r="1.5"/>
          <circle class="cls-2" cx="47.75" cy="24.75" r="1.5"/>
        </g>
        <polygon id="Arrows" class="cls-2" points="28.75 29.75 27 29.5 26.75 27.75 24.75 27.75 24.5 29.5 22.75 29.75 22.75 31.75 24.5 32 24.75 33.75 26.75 33.75 27 32 28.75 31.75 28.75 29.75"/>
        <g id="Control_Buttons" data-name="Control Buttons">
          <rect class="cls-2" x="26.75" y="21.75" width="3" height="1"/>
          <rect class="cls-2" x="33.75" y="21.75" width="3" height="1"/>
        </g>
      </g>
      <g id="Buttons">
        <g id="Action_Buttons-2" data-name="Action Buttons">
          <circle class="cls-11" cx="44.25" cy="21.25" r="1.5"/>
          <circle class="cls-12" cx="44.25" cy="27.25" r="1.5"/>
          <circle class="cls-13" cx="41.25" cy="24.25" r="1.5"/>
          <circle class="cls-3" cx="47.25" cy="24.25" r="1.5"/>
        </g>
        <g id="Sticks_Base_with_Shadow" data-name="Sticks Base with Shadow">
          <g id="Sticks_Base" data-name="Sticks Base">
            <circle class="cls-14" cx="37.25" cy="30.25" r="3"/>
            <circle class="cls-14" cx="18.25" cy="24.25" r="3"/>
          </g>
          <g id="Sticks_Base_Shadow" data-name="Sticks Base Shadow">
            <path d="M37.75,27.75a3,3,0,0,1,1.85.65,3,3,0,1,0-4.2,4.2,3,3,0,0,1,2.35-4.85Z"/>
            <path d="M18.75,21.75a3,3,0,0,1,1.85.65,3,3,0,1,0-4.2,4.2,3,3,0,0,1,2.35-4.85Z"/>
          </g>
        </g>
        <g id="Sticks_with_Shadow" data-name="Sticks with Shadow">
          <g id="Sticks_Shadow" data-name="Sticks Shadow">
            <circle class="cls-2" cx="37.75" cy="30.75" r="2"/>
            <circle class="cls-2" cx="18.75" cy="24.75" r="2"/>
          </g>
          <g id="Sticks">
            <circle class="cls-9" cx="37.25" cy="30.25" r="2"/>
            <circle class="cls-9" cx="18.25" cy="24.25" r="2"/>
          </g>
        </g>
        <polygon id="Arrows-2" data-name="Arrows" class="cls-9" points="28.25 29.25 26.5 29 26.25 27.25 24.25 27.25 24 29 22.25 29.25 22.25 31.25 24 31.5 24.25 33.25 26.25 33.25 26.5 31.5 28.25 31.25 28.25 29.25"/>
        <g id="Control_Buttons-2" data-name="Control Buttons">
          <rect class="cls-9" x="26.25" y="21.25" width="3" height="1"/>
          <rect class="cls-9" x="33.25" y="21.25" width="3" height="1"/>
        </g>
      </g>
    </g>
  </g>
</svg>
